<svg xmlns="http://www.w3.org/2000/svg" viewBox="0 0 100 100">
  <path fill="#fff" d="M50 0a50 50 0 1050 50A50 50 0 0050 0zm20.6 67.6H29.3a4 4 0 01-4.2-3.1 4.6 4.6 0 010-1V36.5a4 4 0 014.3-4.2h41.3a4 4 0 014.3 4.2v26.8a4 4 0 01-4.4 4.2z"/>
  <path fill="#fff" d="M69 41l.3-.3a2 2 0 00-1.1-3.3 2.1 2.1 0 00-2 .7L51.4 52.4a1.7 1.7 0 01-2.8 0L34 38.3a6.2 6.2 0 00-.5-.5 2 2 0 00-3.2 1.1 2 2 0 00.7 2l8.9 8.7.4.4-.4.5-9 8.6a2 2 0 00-.7 1.8 1.9 1.9 0 001.4 1.6 2 2 0 002.2-.6l9-8.7.4-.4a106 106 0 003.3 3.2 4.8 4.8 0 007 0l3.5-3.2a1.9 1.9 0 00.3.4l7.2 7 1.9 1.9a2 2 0 002 .4 1.9 1.9 0 001.4-1.6 2 2 0 00-.8-1.8l-9-8.6-.4-.5a6.6 6.6 0 00.5-.4z"/>
</svg>
