<svg width="28" height="28" xmlns="http://www.w3.org/2000/svg" xmlns:xlink="http://www.w3.org/1999/xlink">
  <g fill="none" fill-rule="evenodd">
    <path d="M13.82 0C6.2 0 0 6.38 0 14.25c0 6.3 3.96 11.64 9.45 13.53.7.13.95-.31.95-.69l-.02-2.42c-3.85.86-4.66-1.91-4.66-1.91-.63-1.65-1.53-2.09-1.53-2.09-1.26-.88.1-.87.1-.87 1.38.1 2.1 1.47 2.1 1.47 1.24 2.18 3.24 1.55 4.03 1.19.13-.92.48-1.55.88-1.9C8.23 20.18 5 18.96 5 13.5a5.6 5.6 0 011.43-3.83c-.15-.36-.62-1.8.13-3.77 0 0 1.16-.38 3.8 1.46a12.83 12.83 0 016.92 0c2.64-1.84 3.8-1.46 3.8-1.46.75 1.96.28 3.41.14 3.77a5.6 5.6 0 011.42 3.83c0 5.47-3.23 6.68-6.31 7.03.5.44.94 1.31.94 2.64l-.02 3.91c0 .38.25.83.95.69a14.23 14.23 0 009.44-13.53C27.64 6.38 21.45 0 13.82 0" fill="#6d6e71" />
  </g>
</svg>