<?xml version="1.0" encoding="UTF-8"?>
<svg width="100px" height="100px" viewBox="0 0 100 100" version="1.1" xmlns="http://www.w3.org/2000/svg" xmlns:xlink="http://www.w3.org/1999/xlink">
    <!-- Generator: Sketch 51.3 (57544) - http://www.bohemiancoding.com/sketch -->
    <title>Group 2</title>
    <desc>Created with Sketch.</desc>
    <defs></defs>
    <g id="Page-1" stroke="none" stroke-width="1" fill="none" fill-rule="evenodd">
        <g id="Group-2">
            <circle id="Oval-Copy" fill="#7AB800" cx="50" cy="50" r="50"></circle>
            <g id="Group" transform="translate(17.000000, 23.000000)" fill="#FFFFFF" fill-rule="nonzero">
                <path d="M62.0043333,15.7682016 C59.9986182,13.0027636 56.1393663,9.29543023 54.2131163,7.64652907 C50.5690174,4.68723256 46.7167771,2.63308527 42.6891163,1.5126531 C35.4545446,-0.499294574 27.5430911,0.452468992 19.1708178,4.34171512 C12.4292674,5.42033721 7.69628876,8.82357364 5.09432558,14.4633895 C2.18294186,17.8337752 0.59273062,21.0232868 0.235397287,24.2059167 C-0.178418605,27.8913062 1.10821512,31.482688 4.05985078,34.8834574 C5.41543217,37.3194787 7.23066473,38.8877461 9.45841473,39.5468391 C11.8026357,40.2404709 14.4627694,39.9158585 17.5451589,38.5520969 C18.9022984,41.0488857 20.844,42.7175233 23.3385814,43.5248992 C25.5728236,44.2480058 28.2182849,44.2667035 31.3893585,43.5769671 C33.2225097,45.8989845 36.5447229,46.2110019 38.5803023,46.2385291 L44.7594942,53.0930446 C45.1534438,53.5301027 45.7142442,53.7795349 46.3025717,53.7795349 L50.654845,53.7795349 C51.2908256,53.7795349 51.8917481,53.4882926 52.2858275,52.9889089 C52.6797771,52.489655 52.8233857,51.8374438 52.6754922,51.2188624 L52.1114457,48.859969 C54.9843953,48.2560601 57.627,47.0742112 59.8537112,45.385188 C62.5277384,43.3570097 64.3240136,40.7982849 64.911562,38.1800911 C65.4430174,35.8122384 64.9100039,33.5976027 63.4732694,31.9101376 C65.2108547,29.8111938 66.145219,27.4471066 66.1987151,24.9716124 C66.2689612,21.7217229 64.8191124,18.5419496 62.0043333,15.7682016 Z M59.0669806,30.5014496 C58.5721415,30.9411047 58.3167364,31.5901996 58.3786725,32.2490329 C58.4406085,32.9078663 58.8130039,33.4977519 59.3810756,33.8374264 C60.714064,34.6342849 61.1968275,35.7571841 60.8572829,37.2702674 C60.102624,40.6332519 55.5973934,44.4751047 49.3649651,45.0831686 C48.7671589,45.141469 48.2238876,45.4556938 47.875124,45.9448198 C47.5263605,46.4339457 47.4065136,47.0499302 47.5460969,47.6341027 L48.0219787,49.624626 L47.2268081,49.624626 L41.0455388,42.7677733 C40.6513295,42.3304554 40.0905291,42.0812829 39.5024612,42.0812829 C39.4937616,42.0812829 39.4849322,42.0812829 39.4761027,42.0814128 C35.4618159,42.1363372 34.6531415,41.2726085 34.3990349,40.5178198 C34.0475446,39.4733469 32.941655,38.8859283 31.8790039,39.1775601 C28.7950562,40.0259671 26.420062,40.1550329 24.617814,39.5717694 C23.1648488,39.1014709 22.0629845,38.1507461 21.2262636,36.6293527 C24.5130291,34.4393876 25.9162636,31.1397674 24.7362326,28.068155 C24.3247539,26.997064 23.1231686,26.4619729 22.0518178,26.8738411 C20.9807267,27.2853198 20.4460252,28.4871647 20.8575039,29.558126 C21.5476298,31.3547907 19.3688314,32.9562984 18.0141589,33.6987519 C17.7147364,33.862876 13.184186,36.4789922 10.6371473,35.5625465 C9.45568798,35.1374341 7.91650581,33.0449826 7.32739922,32.3078527 C5.04537403,29.7353643 4.0760814,27.2368876 4.36446705,24.669593 C4.4535407,23.8761105 4.66285078,23.0671764 4.98967054,22.238376 C5.26091667,22.9239574 5.60708333,23.5798043 6.02778101,24.188907 C7.71810271,26.6357054 10.4210853,28.0390698 13.443876,28.0390698 C14.591186,28.0390698 15.5213953,27.1089903 15.5213953,25.9615504 C15.5213953,24.8141105 14.591186,23.884031 13.443876,23.884031 C11.3142888,23.884031 10.094655,22.7655465 9.44646899,21.8272868 C8.38706395,20.293688 8.13178876,18.1598159 8.78945349,16.3770446 C10.8002326,11.8814225 14.447188,9.28062791 19.9323585,8.42936434 C21.7604457,8.47519961 22.3574729,9.35749612 22.9878702,10.290562 C23.0498062,10.3822326 23.108626,10.4692287 23.1651085,10.5502519 C23.5687965,11.1302694 24.2150349,11.4408585 24.8719205,11.4408585 C25.2815814,11.4408585 25.6953973,11.3199729 26.0571453,11.0682035 C26.998781,10.4126163 27.2306841,9.11780233 26.5750969,8.17629651 C26.5290019,8.11007558 26.4810891,8.03905039 26.4305795,7.96425969 C26.1466085,7.54395155 25.7542171,6.96445349 25.1861453,6.38898062 C30.1917984,4.68190891 34.906469,4.22056977 39.3595019,5.01314341 C36.5614729,7.84597093 35.3789748,11.6867849 35.9208178,16.333936 C36.0441705,17.3919128 36.9419186,18.1709826 37.9818469,18.1709826 C38.0620911,18.1709826 38.143374,18.1663081 38.2250465,18.1568295 C39.3646957,18.0239981 40.1807713,16.99225 40.0479399,15.8526008 C39.538688,11.4861744 40.8751822,8.46805814 44.2424516,6.4255969 C46.5199322,7.35048256 48.7257384,8.6351686 50.8646744,10.2790058 C50.6161512,11.5857655 49.9397888,12.4666337 48.7465136,13.0717112 C47.7232054,13.5905717 47.3143236,14.8408488 47.8331841,15.864157 C48.1993469,16.5864845 48.9297248,17.0027674 49.6877597,17.0027674 C50.0038023,17.0027674 50.3245194,16.930314 50.6256298,16.7777461 C52.2662209,15.9458295 53.4776744,14.7396996 54.2288275,13.2144109 C55.7882655,14.7432054 57.3109574,16.4765058 58.7988508,18.4158702 C58.860657,18.496374 58.9283062,18.5723333 59.0012791,18.642969 C61.0378973,20.6171318 62.0902907,22.7746357 62.0447151,24.8821492 C62.0018663,26.8650116 60.9720659,28.8081415 59.0669806,30.5014496 Z" id="Shape"></path>
                <path d="M46.7219709,30.2104671 C46.7241783,30.204624 46.726905,30.1990407 46.7289826,30.1930678 C48.5018857,25.2505194 47.3030271,20.812938 43.6747694,18.8878566 C42.6609399,18.3499089 41.4035213,18.7358081 40.8658333,19.7493779 C40.3280155,20.7629477 40.7137849,22.0204961 41.7273547,22.558314 C43.6977519,23.6038256 43.6155601,26.3396589 42.9189419,28.4922287 C38.3821589,27.1620969 34.3596919,28.4058818 32.541343,31.764062 C31.9949554,32.7730872 32.3700775,34.0337519 33.3791027,34.5801395 C34.3881279,35.1260078 35.6487926,34.751405 36.1951802,33.7423798 C37.590624,31.1645678 41.4997364,32.3755019 42.2688081,32.644281 C45.5447965,33.789124 47.9238159,36.3288915 47.5720659,38.305781 C47.370936,39.4354322 48.1236473,40.5141841 49.2532984,40.7151841 C49.3763915,40.7371279 49.4989651,40.7477752 49.6197209,40.7477752 C50.6075814,40.7477752 51.4835155,40.0405097 51.6627016,39.0339516 C52.2977733,35.4667209 49.9410872,32.2431899 46.7219709,30.2104671 Z" id="Shape"></path>
                <path d="M34.5652364,23.8526085 C35.6098391,23.378155 36.0720872,22.1465756 35.5977636,21.1019729 C35.1234399,20.0572403 33.8919903,19.5948624 32.8471279,20.0693159 C31.9775562,20.4643043 30.9162035,19.6580969 30.1621938,18.5448062 C31.2144574,17.0727539 31.5447829,15.3478934 31.0056667,13.6475736 C30.6588508,12.5537597 29.4912849,11.9486822 28.3973411,12.2951085 C27.303657,12.6420543 26.6981899,13.80975 27.0450058,14.9034341 C27.4597306,16.2112326 25.3933779,17.2972558 25.1565407,17.4167132 C23.3577984,18.3239399 21.4621919,18.2408391 20.9690407,17.5604516 C20.2956647,16.6314109 18.9966957,16.424438 18.067655,17.0975543 C17.1386143,17.7710601 16.9315116,19.0698992 17.6048876,19.9989399 C18.7489516,21.5773353 20.5765194,22.2370775 22.5128973,22.2370775 C24.0100097,22.2370775 25.571655,21.8418295 26.9329496,21.1726085 C27.6029496,22.087626 28.3978605,22.851374 29.2587326,23.3919186 C30.2580194,24.0194593 31.3165155,24.3360213 32.3652733,24.3360213 C33.1118818,24.3361512 33.8535562,24.1756628 34.5652364,23.8526085 Z" id="Shape"></path>
                <path d="M55.9373275,22.428469 L52.6499128,23.0680853 C51.5236376,23.2872636 50.7881957,24.3778314 51.0075039,25.5041066 C51.2004535,26.4963818 52.070155,27.1852093 53.0445116,27.1852093 C53.1761744,27.1852093 53.3095252,27.1726143 53.4435252,27.1465155 L56.7309399,26.5068992 C57.8572151,26.2877209 58.592657,25.1971531 58.3733488,24.0708779 C58.1541705,22.9447326 57.0630833,22.209031 55.9373275,22.428469 Z" id="Shape"></path>
            </g>
        </g>
    </g>
</svg>