<?xml version="1.0" encoding="UTF-8"?>
<svg width="100px" height="100px" viewBox="0 0 100 100" version="1.1" xmlns="http://www.w3.org/2000/svg" xmlns:xlink="http://www.w3.org/1999/xlink">
    <!-- Generator: Sketch 51.3 (57544) - http://www.bohemiancoding.com/sketch -->
    <title>Group 5</title>
    <desc>Created with Sketch.</desc>
    <defs></defs>
    <g id="Page-1" stroke="none" stroke-width="1" fill="none" fill-rule="evenodd">
        <g id="Group-5">
            <circle id="Oval" fill="#F2AF00" cx="50" cy="50" r="50"></circle>
            <g id="Group-3" transform="translate(22.000000, 19.000000)" fill="#FFFFFF" fill-rule="nonzero">
                <path d="M55,8.43621763 C54.9946073,3.77927814 51.2530308,0.00543919789 46.6359034,0 L11.3793103,0 L11.3793103,11.4774307 L0,11.4774307 L0,49.735533 L7.5862069,49.735533 L7.5862069,61 L24.0217241,49.735533 L43.6206897,49.735533 L43.6206897,38.2581023 L55,38.2581023 L55,8.43621763 Z M39.8275862,45.9097228 L22.8549276,45.9097228 L11.3793103,53.774307 L11.3793103,45.9097228 L3.79310345,45.9097228 L3.79310345,15.3032409 L11.3793103,15.3032409 L11.3793103,38.2581023 L39.8275862,38.2581023 L39.8275862,45.9097228 Z M39.8275862,34.4322921 L15.1724138,34.4322921 L15.1724138,15.3032409 L35.2565931,15.3032409 C37.7799779,15.3059295 39.8249206,17.3685051 39.8275862,19.9136483 L39.8275862,34.4322921 Z M51.2068966,34.4322921 L43.6206897,34.4322921 L43.6206897,19.9136483 C43.615297,15.2567088 39.8737205,11.4828699 35.2565931,11.4774307 L15.1724138,11.4774307 L15.1724138,3.82581023 L46.6359034,3.82581023 C49.1592883,3.82849878 51.204231,5.8910744 51.2068966,8.43621763 L51.2068966,34.4322921 Z" id="Shape"></path>
                <rect id="Rectangle-path" x="21" y="19" width="13" height="3"></rect>
                <rect id="Rectangle-path" x="21" y="27" width="13" height="3"></rect>
            </g>
        </g>
    </g>
</svg>