<?xml version="1.0" encoding="UTF-8"?>
<svg width="100px" height="100px" viewBox="0 0 100 100" version="1.1" xmlns="http://www.w3.org/2000/svg" xmlns:xlink="http://www.w3.org/1999/xlink">
    <!-- Generator: Sketch 51.3 (57544) - http://www.bohemiancoding.com/sketch -->
    <title>Group 6</title>
    <desc>Created with Sketch.</desc>
    <defs></defs>
    <g id="Page-1" stroke="none" stroke-width="1" fill="none" fill-rule="evenodd">
        <g id="Group-6">
            <circle id="Oval-Copy-2" fill="#D8D8D8" cx="50" cy="50" r="50"></circle>
            <path d="M59.8208387,29.4312729 C68.8626784,29.5019417 76.150591,36.860525 76.1340032,45.9026257 C76.1451491,54.9408728 68.8588166,62.2934447 59.8208387,62.3640917 L59.8208387,69.967015 L50.626146,62.3640917 L39.0586294,62.3640917 C30.0206514,62.2934447 22.7343189,54.9408728 22.7454649,45.9026257 C22.728877,36.860525 30.0167896,29.5019417 39.0586294,29.4312729 L59.8208387,29.4312729 Z M59.8208387,24.4878898 L39.0586294,24.4878898 C27.4135854,24.7381473 18.104,34.2499496 18.104,45.8976823 C18.104,57.545415 27.4135854,67.0572173 39.0586294,67.3074748 L48.846528,67.3074748 L56.6471867,73.77342 C57.5391727,74.5125633 58.6624127,74.9149702 59.8208387,74.9103982 C60.5479253,74.9076419 61.2659892,74.7491959 61.9267199,74.4457201 C63.6608586,73.6291816 64.7666685,71.8837742 64.7642219,69.967015 L64.7642219,66.7241556 C75.2695735,64.1567552 82.2144856,54.1626787 80.957322,43.4214731 C79.7001584,32.6802675 70.6351235,24.5600144 59.8208387,24.4878898 Z M41.9455651,51.7951384 L45.2675186,51.7951384 L45.2675186,55.749845 L41.9455651,55.749845 L41.9455651,51.7951384 Z M42.0246593,36.3520094 L45.3169525,36.3520094 L44.9906892,48.9279762 L42.2520549,48.9279762 L42.0246593,36.3520094 Z M56.4889984,45.7345507 C54.6203996,47.1879053 54.1952686,47.8898657 54.1952686,48.8884291 L54.1952686,49.8177852 L51.6543697,49.8177852 C51.2077849,49.169475 50.96978,48.4002708 50.9721828,47.6130363 C50.9721828,46.6243596 51.7927844,45.7048904 53.2659126,44.4591578 C55.3619071,42.758634 55.7376042,42.2148618 55.7376042,40.939469 C55.7376042,39.6640761 54.9170026,38.7841539 52.7715743,38.7841539 C51.3479548,38.8422695 49.9320974,39.0242138 48.5400383,39.3279261 L48.3719633,36.9748757 C49.917775,36.4362801 51.5322683,36.1200392 53.1670449,36.0356329 C57.1217515,36.0356329 58.9508032,37.3703463 58.9508032,40.6329792 C58.9112562,43.1442179 58.4861252,44.0834607 56.4395646,45.7246639 L56.4889984,45.7345507 Z M51.219352,51.8050252 L54.5116452,51.8050252 L54.5116452,55.7597317 L51.1699181,55.7597317 L51.219352,51.8050252 Z" id="Shape" fill="#FFFFFF" fill-rule="nonzero"></path>
        </g>
    </g>
</svg>