<?xml version="1.0" encoding="UTF-8"?>
<svg width="100px" height="100px" viewBox="0 0 100 100" version="1.1" xmlns="http://www.w3.org/2000/svg" xmlns:xlink="http://www.w3.org/1999/xlink">
    <!-- Generator: Sketch 51.3 (57544) - http://www.bohemiancoding.com/sketch -->
    <title>Group 4</title>
    <desc>Created with Sketch.</desc>
    <defs></defs>
    <g id="Page-1" stroke="none" stroke-width="1" fill="none" fill-rule="evenodd">
        <g id="Group-4">
            <circle id="Oval-Copy-3" fill="#00A2D9" cx="50" cy="50" r="50"></circle>
            <path d="M69.346,57.3341882 L70.2775765,58.2657647 C70.7921176,58.7803059 70.7921176,59.6143765 70.2775765,60.1289176 L66.7838353,63.6226588 C66.6553647,63.7511294 66.6553647,63.9599765 66.7838353,64.0884471 L70.2775765,67.5821882 C70.7921176,68.0967294 70.7921176,68.9308 70.2775765,69.4453412 L69.346,70.3769176 C68.8314588,70.8914588 67.9973882,70.8914588 67.4828471,70.3769176 L63.9891059,66.8831765 C63.8606353,66.7547059 63.6517882,66.7547059 63.5233176,66.8831765 L60.0295765,70.3769176 C59.5150353,70.8914588 58.6809647,70.8914588 58.1664235,70.3769176 L57.2348471,69.4453412 C56.7203059,68.9308 56.7203059,68.0967294 57.2348471,67.5821882 L60.7285882,64.0884471 C60.8570588,63.9599765 60.8570588,63.7511294 60.7285882,63.6226588 L57.2348471,60.1289176 C56.7203059,59.6143765 56.7203059,58.7803059 57.2348471,58.2657647 L58.1664235,57.3341882 C58.6809647,56.8196471 59.5150353,56.8196471 60.0295765,57.3341882 L63.5233176,60.8279294 C63.6517882,60.9564 63.8606353,60.9564 63.9891059,60.8279294 L67.4828471,57.3341882 C67.9973882,56.8189882 68.8314588,56.8189882 69.346,57.3341882 Z" id="Shape" fill="#FFFFFF" fill-rule="nonzero"></path>
            <path d="M77.7341412,34.8564471 L71.4786118,24.2698118 C70.9686824,23.4067529 69.7195529,23.4067529 69.2096235,24.2698118 L62.9540941,34.8564471 C62.4349412,35.7346588 63.0680706,36.8441176 64.0885882,36.8441176 L68.0382353,36.8441176 C68.2200706,36.8441176 68.3676471,36.9916941 68.3676471,37.1735294 L68.3676471,39.4794118 C68.3676471,43.8454353 64.8277882,47.3852941 60.4617647,47.3852941 L40.6970588,47.3852941 C34.1476941,47.3852941 28.8382353,52.6947529 28.8382353,59.2441176 L28.8382353,60.5492471 C28.8382353,60.6974824 28.7374353,60.8233176 28.5944706,60.8615294 C24.6639294,61.9149882 21.8454824,65.6860941 22.2980941,70.0422353 C22.7078824,73.9879294 25.8926353,77.1983765 29.8350353,77.6364941 C35.0035059,78.2103294 39.3794118,74.1796471 39.3794118,69.1264706 C39.3794118,65.1656235 36.6874588,61.8412 33.0356,60.8621882 C32.8919765,60.8233176 32.7911765,60.6968235 32.7911765,60.5485882 L32.7911765,59.2441176 C32.7911765,54.8780941 36.3310353,51.3382353 40.6970588,51.3382353 L60.4617647,51.3382353 C67.0111294,51.3382353 72.3205882,46.0287765 72.3205882,39.4794118 L72.3205882,37.1735294 C72.3205882,36.9916941 72.4681647,36.8441176 72.65,36.8441176 L76.5996471,36.8441176 C77.6201647,36.8441176 78.2532941,35.7346588 77.7341412,34.8564471 Z M35.4264706,69.1264706 C35.4264706,71.6695294 33.3577647,73.7382353 30.8147059,73.7382353 C28.2716471,73.7382353 26.2029412,71.6695294 26.2029412,69.1264706 C26.2029412,66.5834118 28.2716471,64.5147059 30.8147059,64.5147059 C33.3577647,64.5147059 35.4264706,66.5834118 35.4264706,69.1264706 Z" id="Shape" fill="#FFFFFF" fill-rule="nonzero"></path>
            <path d="M42.9930588,28.3459529 L43.9246353,29.2775294 C44.4391765,29.7920706 44.4391765,30.6261412 43.9246353,31.1406824 L40.4308941,34.6344235 C40.3024235,34.7628941 40.3024235,34.9717412 40.4308941,35.1002118 L43.9246353,38.5939529 C44.4391765,39.1084941 44.4391765,39.9425647 43.9246353,40.4571059 L42.9930588,41.3886824 C42.4785176,41.9032235 41.6444471,41.9032235 41.1299059,41.3886824 L37.6361647,37.8949412 C37.5076941,37.7664706 37.2988471,37.7664706 37.1703765,37.8949412 L33.6766353,41.3886824 C33.1620941,41.9032235 32.3280235,41.9032235 31.8134824,41.3886824 L30.8819059,40.4571059 C30.3673647,39.9425647 30.3673647,39.1084941 30.8819059,38.5939529 L34.3756471,35.1002118 C34.5041176,34.9717412 34.5041176,34.7628941 34.3756471,34.6344235 L30.8819059,31.1406824 C30.3673647,30.6261412 30.3673647,29.7920706 30.8819059,29.2775294 L31.8134824,28.3459529 C32.3280235,27.8314118 33.1620941,27.8314118 33.6766353,28.3459529 L37.1703765,31.8396941 C37.2988471,31.9681647 37.5076941,31.9681647 37.6361647,31.8396941 L41.1299059,28.3459529 C41.6444471,27.8307529 42.4785176,27.8307529 42.9930588,28.3459529 Z" id="Shape" fill="#FFFFFF" fill-rule="nonzero"></path>
        </g>
    </g>
</svg>