<svg version="1.1" id="Layer_1" xmlns="http://www.w3.org/2000/svg" x="0" y="0" viewBox="0 0 960 960" xml:space="preserve">
  <style>
    .st2{fill:#386f96}.st3{fill:#89b9cd}.st5{fill:#fcfbf4}.st6{fill:#c8bf96}.st7{fill:#201d1c}.st8{fill:#0e100f}.st9{fill:#cf4882}
  </style>
  <path d="M-8-11v983h977V560 400-11H-8z" fill="#f1e6a9"/>
  <path d="M766 355c0-64-52-116-116-116H503c-46 0-86 28-105 67h107c64 0 116 52 116 116 0 17-4 34-11 49h40a67 67 0 0042 30c5 2 10 2 16 3 8 1 16 0 24-2h2l-2-2-26-16c-6-5-11-10-14-17l-2-3c44-17 76-59 76-109z" fill="#df8e45"/>
  <path class="st2" d="M693 817h-2l-10-1h-4l-9-1-17-1-17-2-2-1a7565 7565 0 0037-110l27-80 14-37a137 137 0 0159-62l31-10c10-2 155-3 164-4l1 509H679v-4l1-8 1-16 2-17 1-17 1-21 2-17 1-22 2-22 2-31 2-24-1-1zm27-102h12a38 38 0 0023-10l2-4v-3l-3-4c-4-4-9-7-15-8l-7-1h-9a38 38 0 00-23 10c-3 3-4 5 0 9 3 3 6 6 10 7a38 38 0 0010 3v1z"/>
  <path class="st3" d="M677 816h4-4zM691 817h2l1 1-3-1z"/>
  <path d="M735 686c5 3 8 8 8 14s-3 11-9 14l-2 1h-7l-3-1c-5-2-8-6-9-10a15 15 0 0110-19h9l3 1zm-7 21c3 0 7-4 7-7 0-4-4-7-7-7-4 0-7 3-7 7s3 7 7 7z" fill="#a3ab45"/>
  <path class="st5" d="M739 686c6 1 11 3 15 7l4 4v4l-3 3c-2 3-5 5-8 6-4 3-10 4-15 5l2-1c6-3 9-7 9-14 0-6-3-11-8-14l-3-1 7 1zM720 715l-1-1-9-2-11-8c-3-4-2-6 1-9l6-5c5-3 11-5 17-5l-2 1c-7 3-10 10-8 18 1 5 4 8 9 10l-2 1z"/>
  <path class="st6" d="M725 715h-5l2-1 3 1zM719 714h0z"/>
  <path class="st7" d="M728 693c3 0 7 3 7 7 0 3-4 7-7 7s-7-3-7-7 3-7 7-7zm-4 7c0 1 2 4 3 3 3 0 5-1 5-3s-2-4-4-4-4 2-4 4z"/>
  <path class="st8" d="M732 700c0 2-2 3-4 3s-4-2-4-3c0-2 2-4 4-4s4 2 4 4z"/>
  <g>
    <path class="st9" d="M-4 1017V509h132l11 1a185 185 0 0153 15 124 124 0 0146 45c7 13 13 26 18 40a15007 15007 0 0063 185l5 15c1 2 1 2-1 2h-3l-17 2-12 1-18 1-10 1-1 1v7l2 19 1 11 1 19 1 11 1 18 1 12 1 18 1 11 2 18v12l2 18 1 12 1 13H-4zm235-333h-4l-3 1c-8 0-15 3-21 8l-3 3c-2 3-2 4 0 6l3 4c5 4 12 7 19 8l3 1h8l2-1c8-1 15-4 21-9l3-4v-3l-2-4c-5-4-10-6-15-8l-8-2h-3z"/>
    <path d="M224 714a16 16 0 01-1-29h1l3-1h4l3 1c6 2 10 7 10 14 1 6-2 11-7 14l-2 1-2 1h-8l-1-1zm5-7c4 0 7-3 7-7s-3-7-7-7-7 3-7 7c0 3 3 7 7 7z" fill="#49848f"/>
    <path class="st5" d="M221 714c-6-1-13-4-18-8l-4-4c-1-2-1-3 1-6l3-3c6-5 13-8 21-9v1h-1a16 16 0 001 29l1 1-4-1zM234 685l8 1c5 2 10 4 14 8l3 4v3l-3 4c-6 5-13 8-21 10v-1l2-1c5-3 8-8 7-14 0-7-4-12-10-14z"/>
    <path d="M233 715l2-1v1h-2z" fill="#f1ebcb"/>
    <path class="st6" d="M227 684l-3 1 3-1zM231 684l3 1-3-1z"/>
    <path class="st7" d="M229 693c4 0 7 3 7 7a7 7 0 11-14 0c0-4 3-7 7-7zm0 3c-2 0-4 2-4 4s2 3 4 3 4-1 4-3-2-4-4-4z"/>
    <path class="st8" d="M229 704c-2-1-4-2-4-4s2-4 4-4 4 1 4 4c0 2-2 4-4 4z"/>
  </g>
  <g>
    <path class="st9" d="M683 335c0 8-2 15-6 22l-7 12-9 8h-2c-1-2-1-2 1-4 5-4 9-9 12-15l1-7c0-2-1-3-3-3l-3 1c-11 1-20-10-19-20 2-8 7-14 15-15 8 0 14 4 18 11l2 10zM688 332c0-9 6-16 14-17 8-2 16 2 19 10 2 4 2 8 2 12a53 53 0 01-21 39h-2-1c-1-1-1-1 1-2a34 34 0 0013-19l1-4c0-2-1-3-3-3h-3a17 17 0 01-20-16z"/>
  </g>
  <path d="M505 306H398a116 116 0 00105 164h107c7-14 11-31 11-48 0-64-52-116-116-116z" fill="#706530"/>
  <g>
    <path class="st3" d="M388 355c0-17 3-34 10-49h-40c-63 0-115 52-115 116 0 50 31 92 75 109l-1 3c-3 7-9 12-15 17l-26 16-2 2h3a98 98 0 0040-1 65 65 0 0042-30h146c47 0 87-28 105-67H503c-63 0-115-52-115-116z"/>
  </g>
  <g>
    <path class="st2" d="M295 420c0-10 3-19 8-27 3-5 8-10 13-14 1-1 1-1 2 1h1l-1 2-7 7c-3 4-6 8-7 14v3l2 2h2c13-3 23 8 21 20-3 13-18 17-27 11-4-3-6-8-7-12v-7zM359 381l-1 1c-6 5-10 10-13 17l-1 6c0 2 1 3 3 3h2c9-2 19 4 20 14 1 5 0 9-3 13-6 8-20 10-27 0-2-3-4-7-4-11-1-8 1-16 4-23a51 51 0 0117-22c1-1 1-1 2 1l1 1z"/>
  </g>
</svg>
