<?xml version="1.0" encoding="UTF-8"?>
<svg width="1600px" height="801px" viewBox="0 0 1600 801" version="1.1" xmlns="http://www.w3.org/2000/svg" xmlns:xlink="http://www.w3.org/1999/xlink">
    <!-- Generator: Sketch 51.3 (57544) - http://www.bohemiancoding.com/sketch -->
    <title>Group 2</title>
    <desc>Created with Sketch.</desc>
    <defs>
        <path d="M174,52 C166,44 147,46 139,55 L137,58 L145,43 C150,32 150,14 129,8 C114,3 100,16 97,27 L93,41 L91,28 C84,6 70,-3 54,2 C42,6 34,23 41,40 L46,55 C33,41 17,42 7,53 C-2,62 -2,83 7,93 C15,102 18,101 25,114 C30,125 29,165 29,169 C29,245 19,383 19,383 L163,383 C163,383 151,212 151,135 C151,131 153,123 159,115 C169,103 177,96 179,88 C183,76 185,63 174,52" id="path-1"></path>
    </defs>
    <g id="Page-1" stroke="none" stroke-width="1" fill="none" fill-rule="evenodd">
        <g id="Group-2">
            <polygon id="Shape" fill="#AAA997" fill-rule="nonzero" points="0 800 1600 800 1600 0 0 0"></polygon>
            <path d="M518.880518,336.345035 C510.880518,327.345035 491.880518,330.345035 483.880518,338.345035 L481.880518,341.345035 L488.880518,326.345035 C493.880518,315.345035 494.880518,298.345035 473.880518,291.345035 C458.880518,286.345035 444.880518,299.345035 440.880518,310.345035 L437.880518,324.345035 L435.880518,311.345035 C428.880518,289.345035 414.880518,280.345035 398.880518,285.345035 C386.880518,289.345035 378.880518,306.345035 384.880518,323.345035 L390.880518,338.345035 C377.880518,324.345035 360.880518,325.345035 350.880518,336.345035 C342.880518,345.345035 342.880518,366.345035 351.880518,376.345035 C359.880518,385.345035 362.880518,384.345035 369.880518,398.345035 C374.880518,408.345035 373.880518,448.345035 373.880518,452.345035 C373.880518,528.345035 363.880518,800.345035 363.880518,800.345035 L507.880518,800.345035 C507.880518,800.345035 495.880518,495.345035 495.880518,418.345035 C495.880518,414.345035 497.880518,406.345035 503.880518,398.345035 C513.880518,386.345035 521.880518,379.345035 523.880518,372.345035 C527.880518,359.345035 529.880518,346.345035 518.880518,336.345035 Z" id="Shape" fill="#F6F0E7" fill-rule="nonzero"></path>
            <path d="M629,472 L631,469 L632,469 L631,470 L631,471 L629,472 C629,472 630,472 629,472 Z M634,472 L633,472 L631,474 L632,472 L630,473 L632,471 L633,471 L634,472 Z M634,475 L635,474 L634,475 Z M633,475 L633,474 L634,474 L633,475 Z M634,472 L632,474 L634,472 Z M634,473 L634,474 L633,474 L634,473 Z M681,456 L680,456 L680,455 L681,456 Z M682,460 L681,459 L682,459 L682,460 Z M681,459 L682,458 L680,458 L681,459 Z M681,457 L681,456 L681,457 Z M682,456 L683,456 L682,456 Z M729,474 L728,473 L728,472 L729,474 Z M729,475 L728,474 L728,475 L729,475 Z M727,478 L726,477 L727,476 L727,478 Z M729,476 L727,475 L728,475 L729,476 Z M773,494 L771,493 L769,492 L768,492 L773,491 L770,491 L772,490 L771,490 L773,489 L771,489 L769,489 L771,488 L768,488 L771,487 L769,487 L770,487 C769,486 772,486 772,486 L771,486 L772,485 L770,485 L769,485 L767,485 L770,484 L769,484 L769,483 L770,483 L771,482 L770,482 L771,481 L767,482 L768,482 L771,480 L769,481 L769,480 L770,479 L769,479 L768,478 L767,478 L766,479 L766,478 L768,476 L767,477 L767,476 L765,477 L766,476 L766,475 L764,476 L766,474 L766,473 L764,474 L766,472 L765,472 L762,474 L763,473 L763,472 L761,474 L762,473 L764,470 L761,472 L761,471 L760,473 L762,470 L762,468 L761,470 L759,472 L759,470 L760,469 L758,471 L759,468 L758,470 L757,471 L759,467 L758,467 L757,468 L756,469 L756,470 L755,470 L756,466 L755,467 L754,469 L754,467 L753,469 L753,468 L753,466 L753,465 L752,464 L752,468 L752,465 L751,468 L750,467 L749,468 L749,465 L749,466 L748,466 L748,464 L747,468 L747,465 L746,465 L746,469 L745,466 L745,469 L744,469 L743,465 L743,468 L742,467 L741,465 L742,469 L741,468 L740,467 L740,470 L739,467 L740,470 L739,469 L739,470 L738,467 L738,470 L737,468 L737,471 L735,467 L737,471 L734,467 L736,471 C736,471 735,468 734,469 L735,470 L735,472 L733,469 L733,468 L734,471 L733,471 L732,469 L732,471 L733,473 L731,471 L732,473 L732,474 L730,471 L731,473 L732,474 L731,474 L729,471 L731,471 L730,470 L732,470 L730,469 L732,469 L731,468 L732,469 L731,468 L731,467 L731,466 L733,467 L732,466 L734,466 C734,466 733,466 734,466 L735,466 L733,465 L733,464 L735,465 L734,464 L735,464 L734,463 L733,462 L733,461 L736,462 L733,461 L733,460 L736,460 L733,459 L733,458 L735,459 L737,459 L734,458 L734,457 L736,457 L733,456 L733,455 L738,455 L734,454 L736,454 L738,453 L736,453 L735,452 L734,452 L735,452 L735,451 L734,451 L738,450 L734,450 L736,450 L737,449 L734,449 L735,449 L736,448 L733,448 L736,447 L737,446 L733,447 L733,446 L735,446 L735,445 L733,445 L734,445 L737,444 L735,444 L736,443 L732,444 L736,442 L733,443 L732,443 L733,442 L731,442 L732,442 L734,440 L733,441 L732,440 L734,439 L732,440 L733,438 L734,438 L734,437 L731,439 L731,438 L733,436 L732,437 L729,438 L730,437 L729,438 L729,437 L732,434 L728,437 L731,434 L730,433 L730,432 L727,435 C727,435 729,433 728,432 C728,432 728,433 728,432 L726,434 L728,431 L725,435 L727,432 L726,433 L725,432 L724,434 L723,434 L724,432 L724,433 L724,430 L723,433 L724,430 L723,431 L722,431 L721,432 L722,429 L721,431 L720,432 L721,428 L720,431 L720,428 L719,430 L719,429 L719,427 L717,431 L718,429 L717,431 L718,426 L717,428 L716,429 L716,428 L716,426 L715,426 L715,428 L714,428 L714,426 L713,427 L713,425 L712,427 L712,425 L711,430 L711,429 L711,427 L710,427 L710,429 L709,425 L709,428 L708,427 L708,426 L708,430 L707,430 L707,429 L706,426 L706,428 L705,427 L704,426 L703,426 L704,431 L703,428 L703,431 L701,428 L702,432 L700,428 L700,429 L699,428 L701,432 L699,430 L698,429 L700,433 L697,430 L698,431 L699,433 L696,430 L697,432 L696,431 L697,433 L696,433 L694,431 L696,434 L694,432 L694,433 L696,435 L693,433 L692,432 L694,434 L692,433 L694,436 L692,434 L691,434 L693,436 L692,436 L694,438 L691,436 L693,438 L690,436 L692,439 L689,436 L691,438 L691,440 L688,438 L690,440 L689,439 L687,438 L691,441 L690,441 L689,441 L690,442 L688,441 L688,442 L690,443 L689,443 L687,442 L685,441 L687,442 L686,443 L689,444 L688,445 L687,445 L686,445 L688,445 L687,446 L683,445 L684,445 L685,446 L683,446 L686,448 L684,448 L685,448 L685,449 L682,449 L685,450 L683,450 L684,451 L685,451 L685,452 L683,452 L682,452 L681,453 L684,454 L683,454 L684,454 L684,455 L683,455 L684,455 L684,456 L682,456 L681,456 L680,456 L680,455 L682,454 L680,455 L680,454 L680,453 L679,453 L679,452 L680,452 L680,451 L682,450 L680,451 L681,450 L680,450 L679,450 L679,449 L681,448 L678,449 L678,448 L680,447 L680,446 L679,446 L680,445 L680,444 L678,445 L677,445 L678,444 L678,443 L679,442 L678,442 L678,441 L675,443 L675,442 L678,440 L676,440 L674,441 L677,439 L676,439 L674,440 L674,439 L673,439 L674,438 L673,438 L672,438 L676,435 L675,435 L672,437 L674,435 L675,434 L674,434 L672,435 L674,433 L671,435 L674,432 L672,433 L671,433 L673,432 L671,433 L670,433 L670,432 L671,430 L670,431 L672,429 L670,430 L668,431 L670,429 L670,428 L669,429 L668,430 L670,427 L669,427 L668,428 L668,427 L667,428 L666,428 L665,429 L667,426 L666,427 L666,426 L667,425 L666,426 L665,426 L663,428 L665,425 L663,427 L662,427 L664,423 L662,427 L662,426 L663,424 L661,426 L660,427 L662,423 L661,424 L660,425 L660,423 L659,424 L658,426 L660,421 L659,421 L658,424 L658,423 L657,424 L657,422 L657,424 L657,421 L656,422 L655,424 L655,423 L656,420 L655,422 L654,423 L654,420 L654,421 L653,423 L653,420 L653,421 L652,421 L652,422 L651,421 L651,420 L650,420 L650,424 L649,421 L649,420 L648,420 L648,419 L648,424 L647,420 L647,424 L646,425 L645,420 L645,425 L644,423 L644,424 L643,422 L644,426 L643,425 L642,424 L642,425 L641,423 L642,426 L640,424 L641,425 L640,425 L639,424 L638,423 L638,425 L639,427 L638,426 L637,426 L636,425 L638,428 L637,427 L635,425 L637,428 L637,429 L635,428 L637,429 L635,428 L636,429 L634,428 L633,428 L634,429 L635,430 L635,431 L632,429 L635,431 L634,431 L632,430 L630,430 L632,431 L631,431 L632,432 L633,433 L631,432 L631,433 L632,434 L629,433 L630,434 L628,434 L629,435 L627,434 L630,436 L631,437 L627,436 L627,437 L630,439 L628,438 L626,438 L627,438 L628,439 L626,439 L630,440 L625,440 L626,440 L625,441 L627,441 L627,442 L625,442 L626,442 L629,443 L629,444 L627,444 L626,444 L629,445 L625,445 L626,445 L628,446 L626,446 L629,446 L629,447 L624,447 L629,448 L628,448 L627,448 L628,449 L626,449 L625,450 L629,450 L628,451 L626,451 L624,452 L627,452 L628,453 L625,453 L625,454 L624,454 L629,454 L627,455 L629,455 L629,456 L626,457 L629,457 L626,459 L629,458 L626,460 L629,459 L627,460 L628,460 L629,461 L627,461 L630,461 L628,462 L629,462 L628,463 L630,463 L628,464 L631,464 L629,465 L631,465 L630,466 L631,466 L631,468 L630,469 L632,468 L632,469 L633,469 L633,470 L631,470 L630,471 L631,469 L629,470 L628,472 L628,471 L629,469 L626,472 L628,469 L626,471 L628,467 L626,469 L625,469 L626,468 L625,468 L626,466 L624,468 L625,465 L625,466 L624,467 L623,468 L622,469 L623,466 L622,466 L621,468 L622,466 L621,465 L620,466 L620,467 L619,468 L619,466 L618,467 L619,464 L618,468 L617,468 L617,467 L617,466 L616,467 L615,468 L615,467 L615,463 L614,466 L614,467 L613,465 L613,464 L613,465 L612,466 L612,463 L612,466 L611,468 L611,463 L610,463 L610,467 L609,466 L609,468 L608,465 L608,468 L607,464 L607,466 L606,465 L606,466 L605,465 L605,467 C604,468 604,465 603,466 C603,466 603,465 603,466 L602,465 L603,469 L602,468 L601,467 L601,469 L600,467 L599,467 L601,470 L598,467 L600,471 L599,469 L597,468 L597,469 L599,472 C599,472 597,469 596,470 L599,473 L597,472 L598,473 L595,470 L596,472 L595,471 L595,472 L597,474 L594,472 L593,471 L595,474 L594,474 L596,475 L596,476 L594,475 L595,476 L594,475 L595,477 L594,477 L593,477 L590,475 L593,477 L594,478 L593,478 L594,479 L592,479 L590,478 L593,480 L589,479 L591,480 L589,480 L590,481 L591,481 L592,482 L590,482 L589,482 L587,482 L592,484 L590,484 L589,484 L588,484 L590,485 L589,485 L591,486 L591,487 L588,487 L587,487 L590,488 L587,488 L588,488 L588,489 L591,489 L589,490 L586,490 L589,491 L588,491 L589,491 L586,492 L591,492 L589,493 L586,493 L588,494 L589,494 L588,495 L591,495 L589,496 L590,496 L587,497 L589,497 L587,498 L589,498 L588,499 L587,499 L592,499 L588,500 L590,500 L588,501 L590,500 L590,501 L589,501 L589,502 L588,503 C588,503 587,503 588,503 L590,503 L589,504 L589,505 L592,504 L590,505 L593,505 L591,506 L593,505 L590,507 L591,507 L593,506 L592,507 L591,508 L590,509 L592,509 L594,508 L594,509 L592,511 L594,511 L595,510 L596,513 L594,515 L596,513 L595,515 L597,514 L596,516 L596,517 L597,515 L598,515 L597,516 L598,516 L597,517 L598,516 L597,517 L599,516 L599,517 L598,518 L600,517 L600,518 L601,519 L601,520 L602,519 L603,520 L604,520 L603,521 L604,520 L603,521 L604,520 L605,521 L603,522 L606,522 L606,523 L605,524 L608,524 L608,525 L607,526 L608,525 L608,526 L609,525 L610,527 L608,528 L610,527 L610,528 L608,529 L610,529 L609,530 L610,530 L611,529 L609,531 L610,531 L612,530 L610,531 L611,532 L610,532 L613,532 L612,533 L611,533 L613,533 L614,534 L612,534 L614,534 L610,535 L614,535 L612,536 L611,536 L615,536 L615,537 L612,538 L615,538 L611,539 L616,539 L616,540 L615,540 L612,541 L616,540 L616,541 L613,542 L616,542 L615,543 L612,543 L614,544 L616,544 L612,545 L617,545 L615,545 L615,546 L614,546 L614,547 L616,547 L613,548 L615,549 L614,549 L616,550 L615,550 L614,550 L616,551 L617,551 L615,552 L614,552 L616,552 L614,553 L615,553 L613,554 L618,554 L613,554 L617,555 L613,555 L614,555 L617,556 L613,556 L617,556 L614,557 L618,557 L613,558 L613,559 L615,559 L613,560 L617,560 L618,561 L617,561 L618,561 L618,562 L617,562 L617,563 L613,563 L614,564 L617,564 L617,565 L613,565 L618,565 L615,566 L617,566 L616,567 L617,567 L617,568 L616,568 L617,568 L616,569 L618,569 L614,570 L617,570 L618,571 L613,571 L614,571 L616,572 L615,572 L613,572 L614,573 L615,573 L617,574 L615,575 L614,575 L616,575 L618,576 L617,576 L614,576 L614,577 L613,577 L615,578 L613,578 L614,579 L616,580 L614,580 L618,580 L616,581 L614,581 L613,581 L618,582 L615,582 L615,583 L616,583 L615,584 L614,584 L616,585 L613,585 L614,585 L614,586 L616,586 L614,587 L617,587 L615,588 L614,588 L613,588 L616,589 L615,589 L614,590 L617,591 L616,591 L615,592 L616,592 L618,593 L615,593 L615,594 L614,595 L616,596 L614,596 L615,597 L614,597 L618,598 L614,598 L613,598 L618,599 L613,599 L614,599 L614,600 L616,600 L616,601 L614,601 L618,602 L616,602 L616,603 L615,603 L614,603 L616,604 L618,604 L617,605 L616,605 L616,606 L615,607 L616,607 L615,608 L614,608 L614,609 L615,609 L613,610 L617,610 L616,611 L615,611 L615,612 L613,613 L618,613 L616,614 L615,614 L614,614 L618,615 L617,615 L613,615 L615,616 L616,616 L615,617 L618,618 L617,618 L617,619 L612,619 L615,620 L616,620 L613,621 L617,622 L614,622 L615,622 L614,623 L613,623 L615,624 L613,624 L617,625 L616,625 L618,625 L615,626 L612,626 L615,626 L613,627 L612,627 L612,628 L614,628 L615,629 L617,629 L613,630 L615,630 L614,631 L613,631 L612,632 L613,633 L614,633 L616,634 L617,635 L616,635 L615,635 L614,636 L612,636 L617,636 L617,637 L612,637 L616,638 L613,638 L617,638 L614,639 L617,639 L613,640 L612,640 L613,641 L612,641 L616,642 L613,642 L616,643 L615,643 L612,644 L614,644 L616,645 L614,645 L617,645 L613,646 L614,646 L613,647 L614,647 L614,648 L612,648 L615,649 L613,649 L613,650 L612,650 L613,650 L613,651 L612,651 L613,651 L616,652 L613,652 L612,653 L615,653 L616,654 L615,654 L614,654 L614,655 L613,655 L611,656 L612,656 L613,657 L616,657 L614,658 L616,658 L611,659 L614,659 L615,660 L611,660 L614,661 L612,661 L611,661 L612,662 L614,662 L616,663 L613,663 L614,663 L613,664 L612,664 L611,664 L612,665 L612,666 L614,667 L612,667 L614,667 L614,668 L613,668 L612,668 L612,669 L614,670 L613,670 L614,671 L611,671 L613,672 L611,672 L611,674 L614,674 L615,675 L614,675 L611,675 L612,676 L611,676 L614,677 L612,677 L611,677 L612,678 L613,678 L613,679 L610,679 L612,680 L611,680 L613,681 L611,681 L614,682 L610,682 L611,682 L615,683 L614,683 L614,684 L611,684 L615,684 L615,685 L612,685 L615,685 L613,686 L611,686 L614,687 L613,687 L613,688 L612,688 L610,688 L613,689 L610,689 L614,690 L611,690 L613,690 L612,691 L610,691 L611,691 L613,692 L612,693 L611,693 L611,694 L610,694 L613,695 L612,695 L612,696 L611,696 L610,697 L613,697 L614,698 L609,698 L611,698 L612,699 L611,699 L613,699 L611,700 L609,701 L614,702 L610,702 L613,702 L612,703 L611,703 L612,703 L613,704 L614,704 L613,705 L612,705 L610,705 L610,706 L609,706 L611,707 L610,708 L612,709 L609,709 L612,710 L610,710 L609,710 L611,711 L609,711 L613,712 L609,712 L610,712 L611,713 L612,713 L612,714 L610,714 L612,714 L613,715 L608,715 L611,715 L610,716 L609,716 L609,717 L611,717 L611,718 L608,718 L611,719 L612,719 L610,720 L612,720 L610,721 L609,721 L612,722 L609,722 L611,722 L611,723 L608,723 L609,724 L611,725 L610,725 L608,725 L609,726 L611,726 L609,727 L608,727 L609,727 L608,728 L611,728 L610,729 L608,730 L611,730 L612,731 L608,731 L608,732 L610,732 L608,732 L610,733 L609,733 L610,734 L608,734 L608,735 L607,735 L610,735 L612,736 L608,736 L611,737 L609,737 L607,737 L611,738 L608,738 L607,738 L610,739 L608,739 L608,740 L607,740 L610,741 L608,741 L608,742 L607,742 L609,743 L608,743 L607,743 L609,744 L608,744 L611,745 L609,745 L607,745 L609,745 L607,746 L611,746 L610,747 L607,747 L609,748 L606,748 L610,748 L607,749 L609,750 L611,750 L610,751 L609,751 L610,752 L606,752 L610,752 L608,753 L606,754 L607,754 L610,755 L607,755 L608,755 L608,756 L610,756 C609,756 610,756 610,756 L606,756 L606,757 L609,757 L606,758 L608,759 L606,759 L608,760 L607,760 L609,761 L606,761 L609,761 L608,762 L609,762 L607,763 L607,764 L606,764 L605,764 L609,765 L606,765 L608,766 L607,766 L607,767 L606,767 L610,768 L607,768 L609,769 L608,769 L605,769 L609,770 L605,770 L605,771 L609,772 L608,772 L606,772 L608,773 L606,773 L605,773 L609,774 L605,774 L605,775 L606,775 L605,776 L607,776 L606,777 L607,777 L604,778 L606,778 L608,779 L609,779 L607,780 L608,780 L604,781 L606,781 L608,782 L604,782 L609,783 L608,783 L603,783 L607,784 L606,784 L608,785 L607,785 L605,786 L608,787 L606,787 L605,787 L606,788 L603,788 L604,788 L608,789 L605,789 L607,789 L608,790 L604,790 L607,790 L606,791 L605,791 L604,791 L607,792 L605,792 L606,793 L604,793 L605,794 L604,794 L607,794 L607,793 L607,795 L608,798 L608,795 L608,800 L746,800 L746,794 L746,795 L747,793 L747,795 L748,795 L748,794 L748,795 L751,794 L750,794 L748,793 L750,793 L749,792 L748,792 L746,792 L747,791 L748,791 L747,790 L751,789 L748,789 L751,788 L747,788 L748,787 L748,786 L746,786 L749,785 L748,785 L749,784 L746,784 L747,783 L746,783 L750,782 L747,782 L749,781 L746,781 L747,780 L748,779 L747,779 L748,778 L749,777 L746,777 L747,777 L748,776 L746,775 L748,775 L750,774 L748,774 L746,774 L750,773 L748,773 L745,773 L749,772 L746,772 L750,772 L748,771 L749,771 L749,770 L745,770 L746,770 L749,769 L747,769 L749,768 L745,768 L749,767 L748,767 L747,766 L746,766 L745,766 L749,765 L745,765 L745,764 L745,763 L749,763 L746,762 L745,761 L746,761 L747,760 L745,760 L748,759 L745,759 L744,759 L749,758 L744,758 L744,757 L747,757 L748,756 L746,756 L749,755 L744,755 L748,755 L749,754 L747,754 L745,754 L747,753 L748,753 L749,752 L747,752 L745,752 L744,751 L746,751 L746,750 L747,750 L747,749 L745,749 L746,749 L748,748 L745,748 L744,747 L747,746 L744,746 L747,746 L745,745 L744,745 L746,745 L748,744 L744,744 L743,743 L744,743 L743,742 L748,742 L747,741 L743,741 L747,741 L746,740 L745,740 L743,740 L746,739 L743,739 L746,739 L745,738 L746,738 L745,737 L744,737 L746,736 L744,736 L743,736 L744,735 L747,735 L743,734 L746,734 L744,733 L743,732 L745,732 L745,731 L742,731 L743,730 L744,729 L743,729 L745,728 L744,728 L745,727 L746,727 L744,726 L745,726 L746,725 L744,725 L746,725 L744,724 L742,724 L745,724 L746,723 L743,723 L744,722 L742,722 L746,721 L744,721 L743,721 L745,720 L746,720 L745,719 L744,719 L746,718 L744,718 L742,718 L744,717 L742,717 L744,716 L742,716 L743,715 L745,715 L743,714 L744,714 L746,713 L745,713 L742,713 L746,712 L742,712 L746,712 L742,711 L744,711 L745,710 L744,710 L744,709 L742,709 L742,708 L743,707 L745,707 L743,706 L745,706 L742,705 L743,705 L746,704 L741,704 L746,703 L742,703 L744,703 L742,702 L741,702 L742,701 L743,701 L744,700 L741,700 L745,699 L741,699 L746,698 L743,698 L745,697 L744,697 L741,696 L744,696 L744,695 L745,695 L745,694 L744,694 L741,694 L741,693 L743,693 L741,692 L744,691 L742,691 L743,691 L740,690 L741,689 L742,689 L744,688 L741,688 L745,688 L742,687 L743,687 L745,686 L742,686 L743,685 L740,685 L742,684 L741,684 L740,683 L743,683 L745,682 L740,682 L745,681 L740,681 L741,681 L744,680 L742,680 L745,679 L744,679 L742,678 L743,678 L740,677 L741,677 L740,676 L741,676 L740,675 L739,675 L740,675 L743,674 L741,674 L739,674 L743,673 L744,673 L744,672 L741,672 L742,672 L744,671 L743,671 L740,671 L744,670 L740,670 L739,670 L742,669 L741,669 L744,668 L743,668 L742,668 L742,667 L739,667 L741,666 L744,666 L739,665 L743,665 L742,664 L740,664 L741,663 L739,663 L742,662 L739,662 L740,661 L739,661 L741,661 L742,660 L741,660 L740,660 L743,659 L738,659 L741,659 L742,658 L741,658 L739,658 L739,657 L743,657 L739,656 L738,656 L741,655 L740,655 L738,655 L738,654 L743,654 L742,653 L739,653 L743,652 L741,652 L743,651 L739,651 L738,650 L739,650 L742,649 L743,649 L740,648 L741,648 L739,648 L738,647 L740,647 L739,646 L740,646 L738,645 L741,645 L742,644 L739,644 L741,644 L741,643 L742,643 L742,642 L739,642 L740,641 L741,641 L740,640 L738,640 L738,639 L740,639 L740,638 L741,638 L742,637 L741,637 L742,637 L742,636 L739,636 L740,636 L741,635 L738,635 L739,635 L742,634 L740,634 L737,634 L740,633 L737,633 L738,633 L738,632 L737,632 L741,631 L742,631 L741,630 L740,630 L742,630 L739,629 L737,629 L740,629 L737,628 L738,628 L742,627 L740,627 L738,626 L737,626 L738,626 L739,625 L737,625 L740,624 L741,623 L740,623 L737,623 L740,622 L740,621 L737,621 L739,621 L740,620 L738,620 L740,619 L738,619 L739,618 L738,618 L741,618 L738,617 L736,617 L739,616 L738,616 L739,615 L738,615 L741,614 L740,613 L737,613 L740,612 L739,612 L739,611 L736,611 L737,610 L740,609 L738,609 L739,608 L736,608 L739,608 L738,607 L737,607 L738,606 L737,606 L736,606 L738,605 L739,605 L740,604 L738,604 L736,603 L741,602 L737,602 L740,601 L737,601 L738,601 L740,600 L738,600 L740,599 L737,599 L739,599 L740,598 L736,598 L740,597 L736,597 L738,597 L741,596 L739,596 L738,596 L738,595 L737,595 L740,595 L739,594 L738,594 L739,594 L740,593 L739,593 L740,592 L736,592 L739,592 L737,591 L736,591 L737,590 L736,590 L738,589 L736,589 L736,588 L739,587 L736,587 L739,586 L736,586 L739,586 L735,585 L739,585 L738,584 L740,584 L737,583 L740,583 L738,582 L737,582 L739,582 L739,581 L736,581 L739,581 L736,580 L737,580 L739,579 L735,579 L737,578 L736,578 L737,577 L735,577 L736,577 L740,576 L736,575 L738,574 L739,573 L737,573 L739,573 L737,572 L738,572 L737,571 L735,571 L736,571 L739,570 L738,570 L740,569 L737,569 L737,568 L740,568 L738,567 L737,567 L736,566 L739,566 L738,565 L739,565 L736,564 L740,564 L739,563 L737,563 L736,562 L739,562 L738,561 L737,561 L739,560 L735,560 L738,560 L739,559 L738,558 L736,558 L738,558 L739,557 L735,557 L736,556 L740,555 L736,555 L739,555 L738,554 L735,554 L737,554 L738,553 L737,553 L735,552 L738,552 L738,551 L735,551 L738,550 L737,549 L736,549 L738,549 L738,548 L737,547 L740,547 L737,546 L740,546 L737,545 L736,545 L739,545 L739,544 L737,543 L736,543 L736,542 L741,542 L739,541 L737,540 L738,540 L738,539 L740,540 L739,539 L739,538 L740,538 L738,537 L739,537 L742,538 L739,536 L742,537 L740,536 L742,536 L740,535 L741,535 L743,536 L741,534 L743,535 L742,534 L743,534 L742,533 L743,533 L742,532 L743,531 L744,532 L746,533 L745,532 L745,531 L745,530 L746,531 L745,529 L746,530 L746,529 L746,528 L747,529 L749,530 L746,528 L747,527 L749,528 L747,526 L748,526 L749,527 L748,526 L751,528 L750,527 L751,526 L752,527 L752,526 L750,524 L753,526 L752,525 L751,524 L753,524 L751,523 L753,525 L754,525 L753,523 L752,522 L754,523 L752,521 L753,520 L755,522 L754,521 L754,520 L756,521 L754,519 L756,519 L755,518 L756,517 L758,518 L757,516 L758,516 L757,515 L759,516 L758,515 L759,515 L761,516 L758,514 L761,515 L760,514 L759,513 L762,515 L760,513 L761,513 L762,514 L760,511 L763,512 L760,510 L760,509 L761,510 L760,509 L761,509 L760,508 L763,509 L762,508 L761,507 L763,507 L762,506 L763,506 L763,505 L767,506 L766,505 L763,503 L766,504 L763,503 L765,503 L764,502 L767,502 L763,500 L768,500 L766,499 L766,498 L767,498 L763,497 L768,497 L765,496 L767,496 L764,495 L769,495 L766,494 L768,494 L764,493 L769,493 L773,494 Z" id="Shape" fill="#412821" fill-rule="nonzero"></path>
            <path d="M970,336 L968,340 L975,325 C980,314 981,297 960,290 C945,285 931,298 927,309 L924,323 L922,310 C915,288 901,279 885,284 C873,288 865,305 871,322 L877,337 C864,323 847,324 837,335 C829,344 829,365 838,375 C846,384 849,383 856,397 C861,407 860,447 860,451 C860,527 850,800 850,800 L994,800 C994,800 982,494 982,417 C982,413 984,405 990,397 C1000,385 1008,378 1010,371 C1014,358 1016,345 1005,335 C997,326 978,328 970,336 Z" id="Shape" fill="#49463F" fill-rule="nonzero"></path>
            <path d="M1115,464 L1115,463 L1115,462 L1119,461 L1120,462 L1119,463 L1118,463 L1117,463 L1115,465 L1115,464 Z M1119,468 L1118,468 L1118,467 L1120,464 L1121,467 L1119,468 Z M1169,449 L1170,449 L1170,450 L1167,450 L1170,449 L1167,449 L1167,448 L1169,449 Z M1168,452 L1168,451 L1169,452 L1168,452 Z M1219,462 L1220,464 L1219,464 L1220,466 L1217,463 L1216,463 L1217,461 L1219,462 Z M1216,469 L1214,467 L1215,466 L1216,466 L1216,467 L1217,468 L1216,469 Z M1217,464 L1216,464 L1217,464 Z M1260,479 L1259,478 L1254,478 L1257,477 L1254,477 L1258,475 L1258,474 L1253,475 L1256,473 L1254,473 L1256,471 L1254,471 L1251,472 L1256,468 L1250,471 L1250,470 L1251,469 L1250,469 L1252,466 L1252,465 L1252,464 L1249,465 L1249,464 L1247,465 L1247,464 C1247,464 1246,466 1245,465 L1244,466 L1244,465 L1247,459 L1243,464 L1244,460 L1243,460 L1241,461 L1241,458 L1239,460 L1238,462 L1237,463 L1237,458 L1236,461 L1236,460 L1235,456 L1234,457 L1233,460 L1232,457 L1232,461 L1231,456 L1230,461 L1228,457 L1228,462 L1227,462 L1226,463 L1226,464 L1224,460 L1223,459 L1224,464 L1222,461 L1221,460 L1220,460 L1219,460 L1219,461 L1217,460 L1218,458 L1221,459 L1218,457 L1219,457 L1222,458 L1219,456 L1219,454 L1221,454 L1222,453 L1222,452 L1223,452 L1222,451 L1220,450 L1220,449 L1221,449 L1220,448 L1222,448 L1220,447 L1220,446 L1225,446 L1222,445 L1220,444 L1221,443 L1225,442 L1225,441 L1219,441 L1223,440 L1219,440 L1222,438 L1220,438 L1223,436 L1218,437 L1222,435 L1221,435 L1221,434 L1223,432 L1221,432 L1216,434 C1216,433 1219,432 1218,431 L1216,431 L1219,428 L1219,427 L1216,429 L1216,427 L1214,429 L1215,426 L1215,425 L1216,423 L1212,427 L1211,426 L1210,427 L1211,423 L1211,422 L1208,426 L1208,424 L1209,421 L1209,419 L1205,425 L1206,422 L1207,418 L1204,422 L1203,424 L1202,424 L1202,422 L1202,419 L1201,420 L1201,418 L1199,421 L1199,419 L1198,421 L1197,420 L1197,419 L1196,420 L1195,420 L1194,417 L1193,417 L1193,419 L1192,420 L1192,422 L1191,421 L1189,419 L1189,421 L1188,420 L1186,418 L1186,419 L1187,424 L1184,419 L1186,424 L1184,423 L1183,423 L1182,424 L1183,427 L1183,428 L1182,428 L1181,427 L1178,425 L1178,426 L1176,426 L1175,426 L1179,430 L1175,428 L1175,429 L1177,431 L1177,434 L1172,432 L1172,434 L1174,436 C1174,436 1171,434 1170,435 L1175,437 L1174,438 L1173,438 L1169,438 L1173,440 L1172,441 L1168,441 L1169,442 L1172,443 L1171,444 L1167,444 L1171,445 L1171,446 L1170,446 L1170,447 L1167,447 C1165.33481,447.099294 1163.66519,447.099294 1162,447 L1161,445 L1166,443 L1163,443 L1162,443 L1160,443 L1160,442 L1162,441 L1160,442 L1159,441 L1161,440 L1160,440 L1159,440 L1158,439 L1160,438 L1158,438 L1158,437 L1159,436 L1157,436 L1159,434 L1157,434 L1156,434 L1157,432 L1158,431 L1154,433 L1153,431 L1157,428 L1154,429 L1152,430 L1151,430 L1153,428 C1153,428 1155,426 1154,425 L1153,426 L1150,428 L1149,428 L1151,426 L1149,427 L1148,427 L1151,423 L1150,423 L1149,423 L1149,422 L1149,420 L1146,424 L1146,422 L1145,422 L1143,424 L1145,419 L1143,421 L1142,422 L1142,418 L1140,422 L1139,423 L1139,422 L1139,420 L1138,421 L1138,417 L1137,418 L1136,418 L1135,419 L1134,416 L1134,418 L1133,415 L1132,422 L1131,418 L1131,422 L1130,420 L1130,423 L1128,419 L1128,422 L1127,422 L1127,423 L1126,423 L1124,419 L1123,417 C1122,418 1124,422 1124,422 L1122,420 L1124,424 L1123,425 L1120,422 L1120,423 L1121,425 L1120,425 L1120,426 L1119,426 L1115,423 L1118,427 L1119,429 L1117,428 C1117,429 1113,425 1112,426 L1112,427 L1115,430 L1114,431 L1116,432 L1114,432 L1114,433 L1115,434 L1115,435 L1110,434 L1109,434 L1112,436 L1114,437 L1114,438 L1112,438 L1113,439 L1109,439 L1111,440 L1113,441 L1110,442 L1110,443 L1108,443 L1111,444 L1112,445 L1107,446 L1111,446 L1106,447 L1106,448 L1113,448 L1108,450 L1112,451 L1109,452 L1111,452 L1109,453 L1108,455 L1113,454 L1113,456 L1108,458 L1112,457 L1109,459 L1113,458 C1114,459 1110,460 1111,460 L1114,460 L1112,462 C1112,462 1111,462 1112,462 L1111,464 L1115,463 L1113,465 L1116,464 L1112,466 L1110,468 L1109,468 L1109,466 L1108,467 L1107,467 L1107,465 L1108,462 L1107,461 L1104,466 L1104,465 L1103,465 L1103,464 L1101,467 L1102,460 L1101,460 L1100,465 L1099,461 L1098,458 L1097,464 L1096,460 L1095,463 C1095,464 1095,463 1095,463 L1094,460 L1093,462 L1092,460 L1091,460 L1091,462 L1090,462 L1090,465 L1089,463 L1089,467 L1086,461 L1087,464 L1087,467 L1085,464 L1083,463 L1084,466 L1082,464 L1082,465 L1081,465 L1082,468 L1081,469 L1082,471 L1079,468 L1081,471 L1081,472 L1075,468 L1077,471 L1076,471 L1079,474 L1078,474 L1074,472 L1076,474 L1076,475 L1072,474 L1077,477 C1077,477 1072,475 1071,476 L1074,477 L1075,479 L1071,478 L1071,480 L1070,480 L1069,481 L1069,482 L1075,484 L1072,484 L1071,485 L1073,486 L1071,487 L1073,488 L1070,488 L1073,489 L1068,490 L1069,491 L1072,491 L1074,492 L1070,493 L1074,493 C1074,494 1070,494 1071,495 L1075,495 L1070,496 L1071,497 L1076,496 L1076,497 L1072,498 L1072,501 L1076,500 L1074,502 L1073,504 L1076,503 L1076,504 L1077,504 L1078,505 L1074,508 C1075,509 1077,507 1078,506 L1078,507 L1077,509 L1078,508 L1079,509 L1080,510 L1078,512 L1080,510 L1081,512 L1079,514 L1081,512 L1082,513 L1082,514 L1083,515 L1083,514 L1084,516 L1083,518 L1085,516 L1088,520 L1086,522 L1088,521 L1090,521 L1088,523 L1090,522 L1091,522 L1089,524 L1091,523 L1092,523 L1089,526 L1092,525 L1093,525 L1092,526 L1091,528 L1094,527 C1095,527 1096,528 1096,530 L1095,532 L1097,531 L1098,532 L1098,533 L1096,534 L1099,534 L1096,536 L1100,536 L1095,537 L1095,538 L1101,538 L1100,539 L1096,540 L1101,540 L1100,541 L1102,541 L1102,542 L1100,543 L1097,544 L1099,544 L1098,545 L1097,546 L1096,547 L1098,547 L1097,548 L1099,549 L1099,550 L1096,551 L1103,551 L1100,552 L1098,552 L1101,553 L1097,554 L1103,554 L1103,555 L1101,556 L1103,557 L1098,558 L1103,558 L1098,559 L1103,560 L1101,561 L1103,561 L1102,562 L1100,563 L1102,564 L1102,565 L1103,565 L1097,566 L1097,567 L1100,568 L1102,568 L1102,569 L1099,570 L1098,571 L1099,571 L1100,572 L1104,573 L1100,574 L1099,574 L1102,575 L1102,576 L1104,577 L1100,577 L1104,578 L1103,579 L1097,580 L1103,581 L1102,581 L1098,582 L1104,583 L1101,584 L1103,584 L1102,585 L1097,586 L1097,587 L1099,587 L1099,588 L1102,589 L1102,590 L1099,590 L1102,591 L1102,592 L1103,593 L1102,593 L1103,594 L1101,595 L1099,596 L1102,596 L1097,597 L1104,598 L1098,599 L1103,600 L1104,601 L1098,602 L1103,603 L1100,603 L1103,604 L1104,605 L1103,606 L1097,606 L1102,607 L1101,608 L1104,608 L1104,609 L1102,609 L1100,610 L1097,611 L1101,612 L1097,612 L1102,613 L1102,614 L1104,615 L1101,615 L1100,616 L1103,617 L1099,618 L1098,618 L1098,619 L1097,620 L1097,621 L1101,621 L1100,622 L1101,623 L1097,624 L1098,624 L1101,625 L1102,626 L1096,627 L1098,627 L1102,628 L1100,629 L1100,630 L1099,630 L1100,631 L1099,632 L1096,633 L1097,633 L1102,634 L1102,635 L1096,636 L1103,637 L1099,637 L1100,638 L1101,639 L1097,639 L1100,640 L1098,641 L1099,642 L1102,643 L1097,643 L1103,644 L1099,645 L1098,646 L1097,646 L1097,647 L1098,648 L1097,649 L1100,649 L1100,650 L1102,651 L1098,652 L1102,653 L1099,653 L1098,654 L1101,655 L1100,656 L1098,656 L1097,657 L1101,658 L1102,659 L1099,659 L1099,660 L1096,661 L1102,662 L1102,663 L1101,663 L1099,664 L1097,664 L1097,665 L1100,666 L1099,667 L1101,668 L1099,668 L1097,669 L1097,670 L1095,670 L1098,671 L1099,672 L1099,673 L1095,673 L1096,674 L1096,675 L1100,676 L1094,676 L1096,677 L1095,678 L1101,679 L1096,680 L1099,681 L1101,681 L1097,682 L1098,683 L1094,683 L1095,684 L1099,685 L1095,686 L1097,687 L1098,687 L1095,688 L1097,689 L1099,690 L1098,690 L1094,691 L1096,692 L1094,692 L1095,693 L1098,694 L1096,695 L1099,696 L1100,697 L1093,697 L1097,698 L1099,699 L1094,699 L1098,700 L1093,701 L1098,702 L1099,703 L1100,703 L1098,704 L1095,705 L1099,706 L1093,706 L1098,707 L1096,708 L1094,708 L1093,709 L1094,710 L1099,711 L1098,712 L1095,712 L1095,713 L1098,714 L1094,714 L1097,715 L1095,716 L1093,717 L1099,718 L1098,718 L1092,719 L1096,720 L1096,721 L1095,721 L1096,722 L1097,723 L1097,724 L1094,724 L1096,725 L1098,726 L1098,727 L1097,728 L1095,728 L1092,729 L1098,730 L1096,731 L1092,731 L1094,732 L1096,733 L1097,734 L1095,734 L1093,735 L1092,736 L1091,736 L1092,737 L1093,738 L1097,739 L1093,739 L1097,740 L1093,741 L1095,742 L1091,742 L1093,743 L1090,744 L1097,745 L1097,746 L1094,746 L1097,747 L1095,748 L1093,749 L1090,749 L1093,750 L1090,751 L1095,752 L1096,753 L1092,753 L1094,754 L1097,755 L1096,756 L1093,756 L1091,757 L1093,758 L1095,759 L1092,759 L1090,760 L1096,761 L1089,761 L1090,762 L1089,763 L1092,764 L1095,765 L1090,765 L1093,766 L1091,767 L1092,767 L1090,768 L1090,769 L1095,770 L1090,770 L1094,771 L1095,772 L1092,773 L1095,774 L1090,774 L1089,775 L1090,776 L1091,776 L1090,777 L1091,778 L1095,779 L1094,780 L1092,780 L1091,781 L1095,782 L1092,783 L1088,783 L1088,785 L1094,787 L1090,787 L1090,788 L1094,789 L1090,789 L1093,790 L1094,791 L1092,792 L1090,792 L1088,793 L1091,794 L1091,796 L1092,795 L1093,798 L1094,796 L1094,800 L1232,800 L1232,797 L1233,797 L1233,793 L1232,793 L1231,793 L1231,792 L1236,791 L1232,790 L1234,789 L1235,788 L1236,788 L1232,787 L1232,786 L1233,786 L1235,785 L1236,784 L1232,783 L1234,782 L1237,782 L1237,781 L1235,780 L1231,780 L1231,779 L1234,779 L1234,778 L1232,777 L1235,776 L1234,776 L1231,775 L1232,774 L1231,774 L1233,773 L1231,772 L1232,771 L1235,770 L1230,769 L1233,768 L1230,768 L1230,767 L1236,766 L1230,766 L1230,765 L1232,764 L1234,764 L1235,763 L1232,762 L1230,762 L1229,761 L1230,760 L1233,759 L1232,758 L1228,758 L1228,757 L1233,756 L1228,756 L1230,755 L1231,754 L1232,754 L1228,753 L1229,752 L1232,751 L1230,751 L1228,750 L1228,749 L1227,749 L1227,748 L1229,748 L1230,747 L1233,746 L1230,745 L1228,745 L1227,744 L1228,743 L1233,742 L1232,741 L1230,741 L1230,740 L1230,739 L1229,739 L1227,738 L1229,737 L1232,736 L1233,735 L1228,735 L1229,734 L1227,733 L1232,732 L1226,732 L1226,730 L1229,729 L1226,729 L1228,728 L1231,727 L1226,727 L1226,726 L1230,725 L1226,724 L1232,723 L1228,723 L1232,722 L1226,721 L1226,720 L1228,720 L1227,719 L1227,718 L1228,717 L1225,717 L1229,716 L1228,715 L1225,715 L1225,714 L1227,714 L1225,713 L1230,712 L1228,711 L1227,711 L1226,710 L1226,709 L1225,709 L1225,708 L1227,707 L1225,706 L1226,705 L1227,705 L1226,704 L1229,703 L1227,702 L1227,701 L1228,701 L1227,700 L1230,699 L1230,698 L1224,698 L1228,697 L1226,696 L1229,695 L1230,695 L1229,694 L1229,693 L1229,692 L1225,692 L1226,691 L1225,690 L1224,690 L1224,689 L1228,689 L1230,688 L1227,687 L1224,686 L1227,686 L1227,685 L1228,684 L1224,684 L1224,682 L1226,682 L1230,681 L1225,680 L1227,680 L1224,679 L1226,678 L1227,677 L1223,677 L1223,676 L1224,676 L1229,675 L1229,674 L1223,674 L1223,673 L1227,673 L1227,672 L1223,671 L1228,670 L1227,670 L1223,669 L1227,668 L1224,668 L1223,667 L1226,666 L1223,665 L1224,665 L1225,664 L1223,663 L1222,662 L1223,662 L1226,661 L1223,660 L1222,660 L1222,659 L1226,658 L1227,658 L1228,657 L1227,656 L1225,655 L1223,655 L1223,654 L1224,653 L1226,652 L1225,651 L1227,650 L1227,649 L1226,648 L1224,648 L1226,647 L1225,646 L1222,646 L1222,645 L1225,644 L1222,644 L1222,643 L1226,642 L1222,641 L1221,641 L1222,640 L1224,639 L1223,639 L1225,638 L1224,637 L1223,636 L1221,636 L1221,635 L1225,634 L1225,633 L1227,632 L1223,632 L1222,631 L1224,630 L1226,630 L1225,629 L1221,628 L1224,627 L1226,626 L1225,626 L1226,625 L1224,624 L1221,624 L1226,623 L1224,622 L1221,621 L1221,619 L1222,618 L1223,618 L1222,617 L1221,616 L1225,615 L1221,615 L1223,614 L1220,613 L1225,612 L1225,611 L1220,611 L1223,610 L1224,609 L1226,608 L1223,608 L1220,607 L1221,606 L1223,605 L1224,604 L1226,603 L1221,602 L1224,602 L1225,601 L1224,600 L1224,599 L1220,599 L1220,597 L1224,596 L1220,596 L1222,595 L1220,594 L1221,593 L1223,592 L1221,592 L1222,591 L1223,590 L1220,590 L1220,589 L1223,589 L1223,588 L1220,587 L1221,586 L1222,585 L1224,584 L1220,583 L1221,583 L1225,582 L1224,581 L1223,580 L1222,580 L1224,579 L1219,578 L1221,577 L1224,577 L1224,576 L1222,575 L1221,574 L1220,574 L1223,573 L1225,572 L1219,572 L1219,571 L1221,571 L1225,570 L1221,569 L1219,569 L1219,568 L1222,567 L1219,566 L1219,565 L1221,564 L1222,564 L1219,563 L1225,562 L1219,562 L1219,561 L1224,561 L1221,560 L1220,559 L1220,558 L1224,557 L1220,556 L1219,556 L1219,554 L1225,553 L1220,552 L1219,552 L1219,551 L1223,551 L1223,550 L1224,550 L1220,548 L1220,546 L1222,546 L1221,545 L1225,545 L1221,543 L1226,544 L1226,543 L1225,542 L1223,540 L1225,540 L1224,539 L1224,538 L1227,539 L1229,539 L1225,536 L1226,535 L1228,533 L1229,533 L1232,535 L1230,532 L1231,533 L1232,532 L1230,530 L1231,529 L1234,531 L1233,529 L1235,529 L1236,530 L1236,528 L1237,528 L1235,526 L1236,525 L1239,527 L1236,524 L1237,523 L1239,524 L1241,524 L1238,522 L1239,521 L1241,522 L1239,521 L1240,520 L1242,521 L1241,520 L1241,519 L1244,521 L1242,518 L1242,517 L1243,518 C1244,517 1246,519 1246,519 L1243,516 L1244,515 L1247,517 L1244,515 L1244,514 L1247,516 L1245,513 L1245,512 L1250,514 L1247,512 L1248,512 L1249,511 L1250,510 L1247,508 L1249,508 L1248,507 L1251,507 L1247,505 L1248,504 L1250,504 L1248,503 L1248,502 L1252,503 L1252,502 L1248,500 L1252,500 L1251,499 L1254,499 L1253,498 L1251,497 L1254,497 L1250,495 L1253,495 L1251,494 L1254,493 L1255,492 L1249,491 L1248,490 L1254,489 L1251,489 L1251,488 L1251,487 L1255,486 L1260,479 Z" id="Shape" fill="#F6F0E7" fill-rule="nonzero"></path>
            <path d="M1457,339 L1455,341 L1462,326 C1467,315 1468,298 1447,291 C1432,286 1418,299 1414,310 L1411,324 L1409,311 C1402,289 1388,280 1372,286 C1360,289 1352,306 1358,323 L1364,339 C1351,324 1334,325 1324,336 C1316,346 1316,366 1325,376 C1333,385 1336,385 1343,398 C1348,408 1347,448 1347,452 C1347,529 1337,800 1337,800 L1481,800 C1481,800 1469,495 1469,418 C1469,414 1471,406 1477,398 C1487,386 1495,379 1497,372 C1501,360 1503,347 1492,336 C1484,327 1465,330 1457,339 Z" id="Shape" fill="#604F42" fill-rule="nonzero"></path>
            <path d="M677,571 L674,571 C667,570 667,565 669,560 C670,555 675,548 679,548 L680,548 C685,549 686,558 685,563 C684,568 682,571 677,571 M944,413 L939,411 C932,408 933,403 936,399 C938,395 943,390 947,390 L949,390 C953,393 953,402 950,407 C949,410 947,413 944,413 M902,425 L896,422 C893,418 890,411 893,407 L897,406 C900,406 904,408 906,410 C910,414 912,417 907,422 L902,425 M918,412 C914,412 912,409 911,404 C910,399 912,390 916,389 L917,389 C922,389 926,395 927,400 C928,405 929,410 922,412 L918,412" id="Shape" fill="#55ACA1" fill-rule="nonzero"></path>
            <path d="M276,471 C276,471 281,465 279,456 L278,456 C277,459 274,466 267,467 L276,471 M229,429 C229,429 230,421 224,414 L223,414 C224,418 225,425 219,429 L229,429 M156,425 C156,425 151,418 154,409 L155,409 C156,413 158,419 165,421 L156,425 M108,474 C108,474 101,470 101,460 L102,460 C104,463 108,468 116,468 L108,474" id="Shape" fill="#F6F0E7" fill-rule="nonzero"></path>
            <path d="M275.880518,468.42839 C267.880518,459.42839 248.880518,462.42839 240.880518,471.42839 L238.880518,473.42839 L245.880518,459.42839 C250.880518,448.42839 251.880518,430.42839 230.880518,423.42839 C215.880518,418.42839 201.880518,431.42839 197.880518,443.42839 L194.880518,456.42839 L192.880518,444.42839 C185.880518,421.42839 171.880518,413.42839 155.880518,418.42839 C143.880518,422.42839 135.880518,439.42839 141.880518,455.42839 L147.880518,471.42839 C134.880518,457.42839 117.880518,457.42839 107.880518,468.42839 C99.8805179,478.42839 99.8805179,498.42839 108.880518,508.42839 C116.880518,517.42839 119.880518,517.42839 126.880518,530.42839 C131.880518,540.42839 130.880518,580.42839 130.880518,584.42839 C130.880518,661.42839 120.880518,799.42839 120.880518,799.42839 L264.880518,799.42839 C264.880518,799.42839 252.880518,628.42839 252.880518,551.42839 C252.880518,546.42839 254.880518,538.42839 260.880518,531.42839 C270.880518,518.42839 278.880518,511.42839 280.880518,504.42839 C284.880518,492.42839 286.880518,479.42839 275.880518,468.42839" id="Shape" fill="#E39C2E" fill-rule="nonzero"></path>
            <g id="Group" transform="translate(102.000000, 416.000000)">
                <g id="Clipped">
                    <mask id="mask-2" fill="white">
                        <use xlink:href="#path-1"></use>
                    </mask>
                    <g id="a"></g>
                    <path d="M1,208 C1,208 20,232 56,235 C58,235 59,239 56,239 C41,242 27,244 1,228 L1,208 M-3,260 C-3,260 41,292 87,289 C91,289 92,294 89,295 C71,303 40,311 3,292 L-3,260 M-21,333 C-21,333 24,357 60,360 C62,360 62,364 60,364 C45,367 5,369 -21,353 L-21,333 M192,224 C192,224 157,249 113,252 C110,252 110,256 112,256 C131,259 161,261 192,245 L192,224 M197,277 C197,277 168,302 132,305 C130,305 129,309 132,309 C147,312 171,313 197,298 L197,277 M207,323 C207,323 161,352 105,356 C101,356 101,360 105,361 C128,364 167,366 207,347 L207,323" id="Shape" fill="#B87230" fill-rule="nonzero" mask="url(#mask-2)"></path>
                </g>
            </g>
            <path d="M228,536 L229,530 C229,514 213,501 194,501 C174,501 158,514 158,530 L159,536 C153,540 150,547 151,554 C153,562 161,568 171,569 C180,570 189,567 194,561 C198,566 205,569 214,569 C226,569 237,561 237,551 C237,545 234,539 228,536 M146,495 C146,504 142,512 130,510 C121,509 117,507 114,495 C112,484 121,478 130,478 C139,478 147,488 146,495 M180,443 C183,452 186,461 174,465 C166,469 160,469 155,458 C150,446 154,439 161,435 C169,430 177,433 180,443 M235,455 C233,464 233,469 222,472 C213,474 207,467 209,455 C211,444 216,440 222,439 C231,437 238,444 235,455 M272,495 C270,504 267,509 256,512 C247,514 241,506 244,495 C246,484 248,481 256,479 C265,476 275,484 272,495 M630,495 L631,496 L633,496 L632,497 L631,497 L631,498 L633,499 L630,499 L632,500 L631,500 L631,501 L630,502 L631,503 L631,505 L628,505 L630,506 L630,507 L627,506 L629,508 L627,507 L628,509 L626,507 L626,508 L627,510 L625,508 L626,510 L626,511 L624,509 L624,510 L623,510 L623,511 L622,511 L622,510 L621,511 L621,512 L620,512 L620,510 L619,511 L618,511 L617,511 L617,512 L616,511 L616,512 L615,512 L615,510 L614,511 L614,510 L614,509 L613,509 L612,510 L611,511 L611,508 L610,510 L610,509 L609,510 L610,508 L608,510 L608,508 L607,508 L608,507 L607,507 L606,507 L607,506 L605,507 L604,507 L605,506 L604,506 L604,505 L603,505 L604,504 L604,503 L603,503 L603,502 L601,502 L603,501 L600,501 L601,501 L600,500 L601,500 L601,499 L600,499 L599,498 L602,497 L601,497 L601,496 L599,496 L601,495 L601,494 L600,494 L601,493 L598,493 L599,493 L600,492 L598,492 L600,491 L598,491 L600,490 L599,489 L601,489 L601,488 L599,487 L601,487 L600,485 L602,486 L600,484 L602,485 L602,484 L602,483 L604,484 L604,483 L605,483 L604,482 L604,480 L605,481 L606,482 L606,479 L607,481 L608,481 L609,480 L609,479 L610,478 L611,480 L611,478 L612,480 L612,479 L612,478 L613,477 L614,480 L614,478 L615,479 L616,480 L616,478 L617,480 L617,479 L618,479 L618,480 L620,480 L621,479 L622,480 L623,479 L622,481 L623,482 L623,481 L625,480 L624,482 L624,483 L626,482 L627,482 L627,483 L626,484 L626,485 L628,484 L627,485 L628,485 L628,486 L629,486 L628,487 L630,487 L631,488 C631,488 630,488 631,488 L629,490 L630,490 L630,491 L633,491 L630,492 L633,492 L632,493 L631,494 L632,494 L632,495 L630,495 M667,443 L666,443 L667,444 L666,445 L665,446 L667,446 L667,447 L669,447 L666,448 L668,448 L667,449 L668,449 L669,450 L668,451 L670,451 L669,452 L668,453 L667,454 L668,454 L668,455 L667,455 L670,456 L669,456 L668,456 L670,457 L667,457 L667,458 L668,459 L669,460 L668,460 L667,460 L667,461 L665,460 L665,461 L666,462 L664,461 L665,462 L664,462 L665,464 L664,463 L664,465 L663,465 L662,463 L662,466 L661,464 L661,465 L660,464 L660,467 L659,466 L658,464 L658,467 L657,466 L657,468 L656,467 L656,468 L655,466 L654,468 L654,469 L653,466 L652,467 L651,468 L651,469 L651,466 L650,469 L649,468 L649,467 L648,467 L648,466 L647,467 L648,465 L647,465 L646,465 L647,464 L644,465 L645,464 L645,463 L645,462 L643,463 L644,462 L644,461 L643,461 L642,461 L642,460 L644,459 L643,459 L642,459 L641,459 L642,458 L640,458 L641,457 L641,456 L642,455 L640,455 L638,455 L640,454 L640,453 L639,453 L639,452 L638,452 L639,451 L638,451 L639,451 L638,450 L640,449 L639,449 L639,448 L637,448 L639,447 L640,447 L640,446 L639,446 L639,445 L638,444 L640,444 L638,443 L639,443 L639,442 L639,441 L639,440 L641,441 L641,440 L640,439 L642,439 L641,438 L641,437 L643,439 L642,437 L642,436 L643,437 L643,436 L644,436 L645,437 L645,435 L645,434 L646,434 L648,435 L648,433 L649,434 L649,432 L650,433 L651,432 L652,434 L652,432 L652,434 L653,432 L655,432 L655,431 L656,433 L656,432 L656,434 L657,434 L657,435 L658,434 L659,433 L659,435 L660,434 L661,433 L661,436 L663,435 L663,436 L662,437 L665,437 L663,438 L662,439 L663,440 L664,439 L663,440 L663,441 L666,440 L665,441 L667,441 L665,442 L665,443 L667,443 M722,455 L721,455 L720,456 L723,457 L720,457 L721,457 L720,458 L720,459 L719,459 L722,460 L721,460 L720,461 L721,461 L720,462 L720,464 L718,463 L719,465 L718,465 L719,467 L717,466 L716,465 L716,466 L717,468 L716,468 L715,468 L715,469 L714,469 L713,468 L713,470 L712,469 L711,469 L711,470 L710,470 L709,470 L709,471 L708,472 L708,471 L707,470 L707,472 L706,470 L706,472 L705,473 L704,472 L704,470 L703,472 L703,471 L702,471 L702,469 L702,470 L700,471 L699,471 L699,469 L698,470 L698,469 L697,469 L697,468 L699,466 L698,466 L697,466 L697,465 L696,465 L697,464 L695,464 L696,464 L694,463 L696,462 L695,462 L697,461 L696,461 L695,460 L695,459 L697,458 C697,458 696,458 697,458 L696,457 L695,456 L696,455 L695,455 L697,454 L696,454 L695,453 L698,453 L696,452 L698,452 L695,451 L698,451 L697,450 L696,449 L697,449 L696,448 L699,449 L697,447 L699,447 L698,446 L697,446 L697,445 L699,445 L698,444 L700,444 L699,443 L701,444 L699,442 L701,443 L702,443 L701,441 L702,441 L703,442 L702,440 L704,442 L703,440 L704,441 L704,440 L704,439 L704,438 L705,439 L705,438 L707,439 L707,438 L708,439 L708,440 L709,439 L709,437 L709,436 L710,439 L711,437 L711,438 L712,438 L712,440 L713,437 L714,438 L714,437 L715,438 L715,437 L716,438 L716,439 L717,438 L718,439 L718,440 L717,442 L718,441 L720,441 L719,442 L720,443 L719,444 L722,444 L721,445 L722,445 L722,446 L723,446 L720,447 L722,448 L720,449 L721,449 L720,450 L723,450 L721,451 L721,452 L722,453 L722,454 L723,454 L722,455 M755,495 L756,496 L755,496 L754,497 L755,498 L753,498 L754,499 L752,499 L753,500 L755,502 L754,502 L754,503 L752,502 L751,502 L751,503 L753,504 L753,505 L750,504 L751,505 L750,505 L751,506 L751,507 L749,506 L749,509 L748,508 L746,507 L747,509 L746,507 L746,509 L745,509 L745,510 L744,509 L744,511 L743,509 L742,509 L742,510 L741,510 L741,512 L740,510 L739,510 L739,512 L738,510 L738,511 L737,511 L737,512 L736,511 L736,512 L735,511 L734,513 L734,511 L733,511 L732,512 L733,510 L731,512 L732,510 L731,510 L731,509 L730,509 L729,509 L730,508 L729,508 L728,508 L729,507 L729,506 L727,506 L729,505 L727,505 L728,504 L728,503 L725,503 L727,502 L728,502 L728,501 L727,501 L725,500 L726,500 L726,499 L725,499 L726,498 L725,498 L727,497 L728,497 L728,496 L726,495 L728,495 L726,494 L729,494 L727,493 L728,493 L729,492 L728,492 L729,491 L730,491 L727,490 L729,490 L729,489 L730,489 L728,488 C729,488 728,488 728,488 L730,488 L729,487 L731,487 L731,486 L729,485 L731,485 L729,484 L730,484 L731,483 L732,484 L730,482 L733,483 L731,481 L733,482 L734,482 L733,480 L734,480 L735,479 L735,478 L736,479 L737,479 L738,480 L738,478 L739,479 L739,478 L740,477 L741,479 L741,477 L742,480 L742,477 L743,476 L744,477 L744,478 L745,478 L746,477 L746,479 L747,477 L747,480 L748,478 L748,480 L749,479 L750,479 L750,481 L751,480 L751,482 L753,481 L752,482 L751,484 L754,482 L753,483 L754,484 L753,485 L754,485 L753,486 L754,486 L755,487 L755,489 L756,489 L755,490 L754,491 L755,492 L754,493 L755,493 L755,494 L754,494 L755,495 M711,525 L711,524 L712,523 L712,522 L711,523 L710,523 L710,522 L709,522 L711,520 L709,521 L710,519 L708,521 L709,519 L707,520 L707,519 L708,517 L707,517 L706,518 L705,518 L706,516 L704,518 L704,517 L705,515 L703,516 L703,515 L703,514 L702,516 L702,514 L701,514 L701,513 L700,515 L701,512 L700,512 L700,511 L699,513 L699,512 L698,512 L698,511 L697,511 L696,512 L696,511 C696,511 696,512 696,511 L695,511 L696,509 L694,511 L694,510 L693,510 L693,509 L693,510 L693,507 L692,507 L691,510 L691,508 L690,507 L690,508 L689,507 L688,507 L687,508 L687,506 L687,507 L686,507 L685,508 L685,505 L684,508 L684,506 L683,507 L683,506 L682,506 L682,508 L682,504 L681,506 L680,508 L680,506 L679,508 L679,504 L678,506 L678,505 L677,507 L676,506 L675,505 L675,507 L674,506 L673,507 L673,506 L673,508 L672,506 L672,508 L671,507 L671,509 L670,509 L668,507 L667,507 L667,509 L667,511 L666,510 L665,509 L665,511 L664,510 L663,509 L662,509 L662,512 L661,510 L661,511 L660,511 L660,513 L659,512 L659,514 L658,514 L658,515 C658,515 658,514 658,515 L657,515 L656,515 L655,514 L655,517 L653,515 L654,516 L653,516 L654,518 L652,517 L653,519 L652,518 L651,518 L651,520 L650,519 L650,520 L651,521 L650,522 L648,520 L649,522 L648,522 L646,521 L648,524 L645,522 L646,523 L647,525 L646,525 L645,525 L646,526 L646,527 L644,526 L643,526 L644,527 L644,528 L643,528 C643,529 643,528 643,528 C642,529 644,530 644,530 L642,529 L641,529 L641,530 L640,530 L640,531 L642,533 L639,532 L640,533 L639,533 L639,534 L641,535 L640,535 L639,535 L639,536 L637,536 L638,536 L637,537 L639,538 L636,537 L636,539 L638,540 L637,540 L636,541 L639,542 L637,542 L638,542 L637,543 L637,544 L636,544 L638,545 L637,545 L638,546 L637,546 L635,546 L636,547 L635,547 L637,548 L636,548 L636,549 L637,550 L638,550 L635,551 L637,551 L636,552 L637,552 L637,553 L639,553 L637,554 L639,553 L638,554 L637,555 L640,555 L638,556 L640,556 L639,557 L639,558 L641,558 L639,560 L640,560 L642,559 L641,561 L642,560 L642,562 L643,562 C643,562 643,561 643,562 L643,563 L645,561 L645,562 L646,561 L646,564 L647,562 L647,565 L648,564 L648,563 L649,564 L649,565 L650,563 L651,564 L651,566 L652,565 L653,564 L653,565 L654,564 L655,566 L655,563 L656,565 L656,563 L657,565 L657,566 L658,565 L659,565 L659,566 L660,564 L660,563 L661,565 L661,563 L661,564 L662,565 L662,564 L663,564 C663,564 662,564 663,564 L663,565 L664,564 L665,564 L665,565 L666,564 L665,566 L665,567 L667,566 L667,569 L668,568 L669,567 L669,570 L671,568 L670,570 L671,570 L672,568 L672,570 L673,570 L673,572 L675,569 L675,570 L676,569 L676,571 L677,571 L678,570 L678,572 L679,571 L679,570 L680,572 L680,571 L680,570 L681,569 L682,571 L682,570 L682,569 L683,570 L683,571 L684,569 L686,571 L686,569 L686,568 L687,570 L688,570 L688,568 L690,568 L690,567 L691,568 L691,567 L692,568 L691,566 L692,567 L693,567 L693,566 L693,565 L693,564 L694,564 L693,563 L695,565 L695,564 L696,562 L696,564 L697,564 L697,565 L698,564 L699,565 L700,564 L700,565 L701,564 L701,566 L702,564 L702,566 L703,565 L704,565 L704,564 L705,565 L705,566 L706,564 L706,565 L707,565 L707,564 L708,565 L709,565 L709,562 L710,565 L711,565 L711,562 L712,563 L711,562 L713,564 L713,562 L713,561 L714,563 C714,562 714,563 714,563 L715,563 L715,562 L715,561 L715,560 L716,561 L716,560 L716,559 L718,560 L717,559 L720,559 L720,558 L720,557 L719,556 L719,555 L722,555 L720,554 L722,554 L720,553 L721,553 L722,552 L723,552 L721,551 L722,551 L722,550 L721,549 L721,548 L723,548 L721,547 L722,547 L723,546 L723,545 L720,545 L721,544 L723,543 L723,542 L720,542 L722,541 L722,540 L719,540 L721,539 L722,539 L722,538 L721,538 L721,537 L721,536 L719,537 L720,536 L719,536 L719,535 L718,535 L717,535 L719,533 L719,532 L717,533 L719,531 L718,531 L716,532 L716,531 L715,531 L717,529 L717,528 L716,528 L715,528 L714,528 C713,528 714,528 714,528 L713,527 L715,526 L714,526 L714,525 L713,525 L713,524 L711,525" id="Shape" fill="#F6F0E7" fill-rule="nonzero"></path>
            <path d="M839,337 C839,337 833,331 835,322 L837,321 C838,325 841,331 848,332 L839,337 M883,286 C883,286 882,278 888,271 C889,271 890,271 889,272 C888,275 887,282 893,287 L883,286 M964,296 C964,296 969,290 966,280 L965,281 C964,284 962,291 955,293 L964,296 M1006,341 C1006,341 1013,336 1014,327 L1012,326 C1010,330 1006,335 999,334 L1006,341" id="Shape" fill="#121311" fill-rule="nonzero"></path>
            <path d="M953,390 L946,386 C941,377 933,371 924,371 C916,371 908,377 903,386 C900,386 898,388 895,390 C882,398 876,413 883,423 C888,431 897,433 907,431 C912,436 918,439 924,439 C931,439 937,436 941,431 C951,433 961,430 965,423 C972,413 966,398 953,390 M910,313 C913,322 914,330 902,334 C890,338 887,330 884,321 C881,311 884,302 891,299 C898,297 907,303 910,313 M871,350 C879,357 884,363 875,372 C865,381 859,376 852,368 C845,361 844,351 849,346 C854,341 864,342 871,350 M964,324 C961,334 957,341 945,337 C933,332 935,325 939,315 C942,306 951,300 958,303 C964,305 967,315 964,324 M994,369 C987,377 981,382 972,373 C963,363 968,358 975,350 C982,343 992,342 998,347 C1003,352 1001,362 994,369" id="Shape" fill="#161715" fill-rule="nonzero"></path>
            <path d="M1117,495 L1119,495 L1118,496 L1117,496 L1117,497 L1118,497 L1119,498 L1118,498 L1117,499 L1118,500 L1117,501 L1116,501 L1118,502 L1117,502 L1117,503 L1116,503 L1117,504 L1115,504 L1115,505 L1116,506 L1115,506 L1114,506 L1115,507 L1114,507 L1113,507 C1113,508 1113,507 1113,507 L1112,508 L1113,510 L1112,510 L1111,510 L1111,509 L1110,509 L1110,511 L1109,510 L1108,510 L1108,511 L1107,511 L1106,510 L1105,511 L1105,510 L1104,510 L1104,511 L1103,510 L1103,511 L1102,510 L1101,510 L1101,511 L1100,511 L1099,511 L1099,510 L1098,510 L1098,509 L1097,508 L1097,509 L1096,510 L1095,510 L1095,509 L1094,509 L1093,508 C1093,507 1093,508 1093,508 L1093,507 L1093,506 L1092,506 L1091,507 L1090,507 L1091,505 L1090,505 L1090,504 L1089,505 L1089,503 L1088,503 L1089,501 L1088,502 L1088,501 L1087,501 L1088,500 L1087,500 L1089,499 L1087,499 L1087,498 L1088,498 L1088,497 L1086,497 L1087,496 L1087,495 L1086,495 L1085,495 L1086,494 L1085,494 L1087,493 L1086,493 L1085,492 L1085,491 L1086,491 L1086,490 L1085,490 L1087,489 L1085,488 L1087,488 L1087,487 L1086,485 L1087,486 L1088,485 L1088,484 L1088,483 L1089,483 L1089,482 L1091,483 L1091,481 L1092,482 L1092,481 L1092,480 L1093,481 L1094,481 L1094,480 L1095,481 L1094,479 L1095,479 L1096,480 L1096,479 L1096,478 L1097,479 L1099,479 L1099,477 L1100,479 L1100,480 L1101,479 L1101,478 L1102,478 L1102,477 L1103,477 L1103,479 L1104,480 L1104,478 L1105,478 L1106,479 L1108,479 L1107,481 L1108,481 L1109,480 L1110,480 L1110,481 L1111,481 L1111,482 C1111,483 1111,482 1111,482 L1112,482 L1111,484 L1113,484 C1113,485 1113,484 1113,484 L1114,484 L1113,486 L1114,485 L1114,486 L1117,486 L1116,487 L1116,488 L1117,488 L1116,489 L1118,489 L1116,490 L1118,490 L1117,491 L1118,492 L1117,492 L1118,493 L1119,493 L1118,494 L1117,495 M1152,444 L1152,445 L1153,446 L1154,446 L1153,447 L1154,447 L1154,448 L1155,449 L1155,450 L1154,450 L1153,451 L1155,451 L1153,452 L1154,452 L1154,453 L1155,454 L1154,455 L1155,455 L1155,456 L1156,457 L1154,457 L1155,457 L1154,458 L1153,458 L1154,459 C1153,459 1154,459 1154,459 L1155,460 L1154,460 L1154,461 C1153,461 1154,461 1154,461 L1153,461 L1151,461 L1152,463 L1151,462 L1150,462 L1151,464 L1151,465 L1150,464 L1149,464 L1149,465 C1149,466 1149,465 1149,465 L1148,464 L1147,465 L1147,466 L1146,466 L1145,465 L1145,466 L1144,465 L1145,467 L1144,468 L1143,466 L1143,467 L1142,468 L1141,466 L1141,467 L1140,469 L1140,468 L1139,467 C1139,468 1139,467 1139,467 L1138,469 L1138,467 L1137,467 L1137,466 L1136,467 L1135,467 L1135,466 L1134,467 L1134,466 L1133,466 L1133,465 L1131,467 L1131,466 L1130,465 L1130,464 L1131,462 L1129,463 L1129,462 L1128,462 L1128,461 C1128,461 1129,461 1128,461 L1128,460 L1127,460 L1128,459 L1127,459 L1128,458 L1128,457 L1127,456 L1126,457 L1127,456 L1126,455 L1125,455 L1127,454 L1126,454 L1126,453 L1125,453 L1126,452 L1124,452 L1124,451 L1124,450 L1126,450 L1126,449 L1126,448 L1124,448 L1124,447 L1125,447 L1126,446 L1125,446 L1124,445 L1126,445 L1125,444 L1126,444 L1125,443 L1125,442 L1126,442 L1126,441 C1127,441 1126,441 1126,441 L1128,441 L1128,440 L1128,439 L1129,440 L1128,439 L1128,438 L1130,439 L1129,437 L1132,437 L1131,435 L1133,437 L1132,434 L1133,436 L1133,435 L1135,435 L1134,434 L1135,434 L1135,433 L1136,435 L1136,432 L1137,434 L1137,432 L1138,433 L1138,432 L1139,434 L1140,433 L1140,434 L1141,431 L1141,432 L1143,432 L1143,434 L1145,434 L1145,435 L1146,434 L1147,434 L1146,436 L1148,435 L1147,437 L1148,436 L1149,437 L1149,436 L1149,438 L1150,437 L1151,437 L1151,439 L1152,439 L1150,441 L1152,440 L1151,441 L1150,442 L1151,442 L1151,443 L1152,444 M1207,454 L1208,455 L1208,456 L1207,456 L1206,457 L1208,458 L1207,459 L1205,459 L1206,459 C1205,460 1207,460 1207,460 L1206,461 L1205,461 L1205,463 L1204,463 L1204,465 L1203,465 L1204,466 L1203,467 L1202,467 L1203,468 L1202,468 L1202,469 L1200,467 L1201,469 L1200,469 L1199,469 L1198,468 L1198,470 L1197,469 L1196,469 L1196,472 L1195,469 L1194,470 L1193,470 L1193,472 L1192,472 L1192,471 L1191,471 L1191,472 L1190,472 L1190,470 L1189,471 L1188,472 L1188,471 L1187,470 L1186,470 L1186,469 L1184,470 L1184,469 L1185,468 L1183,468 L1183,467 L1183,466 L1182,466 L1182,465 L1181,465 L1183,464 L1182,464 L1182,463 L1182,462 L1180,461 L1181,461 L1180,460 L1183,460 L1180,459 L1182,459 L1180,458 L1183,457 L1182,457 L1181,456 L1182,456 L1180,455 L1181,454 L1182,453 L1181,452 L1183,452 L1182,451 L1183,451 L1182,450 L1184,450 L1183,449 L1184,449 L1184,448 L1183,447 L1183,446 L1185,447 L1184,446 L1185,446 L1185,445 L1184,444 L1185,444 L1185,443 L1187,444 L1186,443 L1188,443 L1186,441 L1187,442 L1187,440 L1189,442 L1189,440 L1190,440 L1190,438 L1191,440 L1191,439 L1191,438 L1192,439 L1192,438 L1193,439 L1194,439 L1194,438 L1194,437 L1195,439 L1195,437 L1196,436 L1196,437 L1198,437 L1199,438 L1199,437 L1200,438 L1201,438 L1202,437 L1201,440 L1202,439 L1202,441 L1203,440 L1204,441 L1205,440 L1204,441 L1206,441 C1206,441 1205,441 1206,441 L1207,441 L1207,442 L1206,443 L1205,444 L1206,444 L1206,445 L1208,445 L1208,447 L1207,447 L1207,448 L1209,448 L1207,449 L1207,450 L1209,450 L1209,452 L1207,452 L1209,453 L1207,453 L1208,453 L1208,454 L1207,454 M1243,495 L1246,496 L1244,496 L1245,497 L1243,497 L1243,498 L1244,499 L1242,499 L1242,500 L1243,501 L1242,501 L1243,502 L1242,502 L1243,503 L1241,503 C1240,503 1241,503 1241,503 L1241,506 L1239,505 L1239,507 L1238,506 L1239,507 L1237,506 L1238,508 L1237,508 L1237,509 L1236,509 L1235,508 L1235,509 L1234,509 L1235,511 L1234,510 L1233,509 L1233,510 L1232,510 L1232,511 L1231,510 L1231,512 L1230,512 L1229,511 L1229,510 L1229,512 L1228,512 L1227,511 L1227,512 L1226,513 L1226,511 L1225,512 L1224,512 L1224,511 L1223,511 C1223,510 1223,511 1223,511 L1221,513 L1222,510 L1221,512 L1220,511 L1220,510 L1219,511 L1219,510 L1220,509 L1219,509 L1219,508 L1218,508 L1217,509 L1217,508 L1216,508 L1217,507 L1217,506 L1215,506 L1216,505 L1215,505 L1214,505 L1216,504 L1214,504 L1215,503 L1214,502 L1215,502 L1215,501 L1216,501 L1216,500 L1214,500 L1215,499 L1216,499 L1215,498 L1214,498 L1215,497 L1214,497 L1216,496 L1215,496 L1216,496 L1217,495 L1215,494 L1217,494 L1216,493 L1218,493 L1216,492 L1216,491 L1217,491 L1217,490 L1218,490 L1218,489 L1217,489 L1217,488 C1218,488 1217,488 1217,488 L1219,488 L1219,487 L1217,486 L1218,486 L1219,485 L1220,485 L1219,483 L1221,483 L1221,482 L1221,481 L1222,481 L1223,482 L1223,481 L1223,480 L1224,481 L1224,480 L1225,479 L1226,479 L1227,479 L1228,478 L1229,479 L1229,478 L1230,479 L1230,480 L1231,479 L1231,480 L1232,478 L1232,477 L1233,478 L1233,479 L1234,479 L1234,478 L1234,479 L1235,480 L1236,478 L1236,480 L1237,480 L1238,479 L1237,481 L1238,480 L1238,481 L1240,480 L1239,482 L1241,482 L1240,483 L1242,482 L1241,483 L1242,484 L1243,483 L1241,485 L1243,485 L1243,487 L1245,487 L1245,488 L1243,489 L1244,489 L1244,490 L1246,490 L1244,491 L1246,492 L1244,492 L1245,493 L1244,493 L1244,494 L1245,494 L1244,495 L1243,495 M1198,530 L1196,531 L1196,530 L1196,529 L1197,528 L1195,528 L1194,528 L1193,529 L1194,527 L1193,527 L1192,526 L1191,527 L1190,527 L1191,525 L1190,525 L1191,524 L1189,523 L1191,522 L1190,522 L1191,521 L1189,520 L1191,519 L1190,518 L1191,517 L1188,518 L1190,517 L1189,516 L1188,516 L1188,515 L1187,515 L1188,514 L1188,513 L1189,512 L1187,513 L1188,511 L1186,512 L1186,511 L1187,510 L1185,510 C1185,510 1186,510 1185,510 L1184,510 L1185,508 L1184,508 L1185,506 L1183,507 L1183,506 L1182,506 L1181,506 L1183,503 L1182,504 L1182,503 L1180,504 L1181,502 L1180,502 L1179,502 L1179,501 L1178,502 L1177,503 L1177,500 L1176,501 L1175,502 L1175,499 L1174,499 L1173,499 L1172,501 L1171,501 L1170,501 L1170,500 L1169,500 L1169,501 L1168,500 L1168,499 L1167,498 L1166,498 L1166,500 L1165,497 L1164,498 L1163,498 L1163,499 L1162,500 L1161,500 L1160,500 L1159,499 L1159,501 L1157,501 L1156,500 L1156,502 L1155,502 L1154,502 L1153,503 L1152,502 L1152,504 L1151,504 L1150,504 L1151,506 L1150,506 L1149,506 L1150,507 L1149,508 L1147,508 L1146,507 L1148,510 L1146,509 L1147,510 L1147,511 L1144,511 L1146,512 L1144,512 L1144,513 L1144,514 L1142,514 C1142,514 1145,515 1144,516 L1143,516 L1142,516 L1141,517 L1144,518 L1141,518 L1141,519 L1142,520 L1141,520 L1143,521 L1141,521 L1143,522 L1141,522 L1143,523 L1142,524 L1142,525 L1141,524 L1140,524 L1140,526 L1139,525 L1139,526 L1138,525 L1138,528 L1136,528 L1135,528 L1135,529 L1135,530 L1132,528 L1133,531 L1132,530 L1132,532 L1131,531 L1131,533 L1130,532 L1131,534 L1130,533 L1130,534 L1129,534 L1128,534 L1127,534 L1127,535 L1128,536 L1127,536 L1126,536 L1126,537 L1126,538 L1126,539 L1124,538 L1124,540 L1123,540 L1125,541 L1123,541 L1124,542 L1123,542 L1122,543 L1123,544 L1121,544 L1123,546 L1122,546 L1123,547 L1120,547 L1122,548 L1123,548 L1120,549 L1122,550 L1121,550 L1120,551 L1120,552 L1122,552 L1120,553 L1123,553 L1123,554 L1122,555 L1125,555 L1123,557 L1125,556 L1126,557 L1124,559 L1126,558 L1125,559 L1126,560 L1127,559 L1127,561 L1128,561 L1129,560 L1129,562 L1131,562 L1132,561 L1131,563 L1133,563 L1133,562 L1134,564 L1134,563 L1135,562 L1136,564 L1137,563 L1137,562 L1138,563 L1139,563 L1139,562 L1140,564 L1141,564 L1141,562 L1142,564 L1143,564 L1143,563 L1143,561 L1144,564 L1145,562 L1146,563 L1146,561 L1147,562 L1147,561 L1148,562 L1148,560 L1149,561 L1150,561 C1150,560 1150,561 1150,561 L1151,561 L1152,560 L1153,560 L1153,559 L1154,560 L1155,561 L1155,560 L1155,558 L1156,559 L1157,560 L1157,557 L1159,560 L1158,558 L1159,557 L1160,559 L1161,558 L1161,557 L1162,558 L1161,556 L1161,555 L1163,557 L1164,557 L1164,556 L1165,556 L1165,555 L1165,556 L1167,554 L1167,557 L1169,556 L1169,558 L1170,557 L1170,559 L1171,558 L1172,557 L1172,559 L1174,557 L1173,560 L1174,559 L1174,561 L1175,561 L1176,558 L1176,561 L1177,559 L1178,559 L1179,560 L1179,562 L1180,560 L1181,562 L1181,563 L1182,560 L1182,562 L1183,562 L1184,561 L1185,561 L1185,563 L1186,564 L1186,562 L1187,561 L1187,563 L1188,562 L1189,563 L1189,562 L1190,563 L1190,562 L1191,562 L1191,561 L1192,562 L1193,563 L1193,564 L1194,562 L1195,561 L1195,562 L1196,562 L1197,563 L1197,562 L1198,563 L1198,560 L1199,562 L1200,562 L1201,563 L1200,560 L1201,561 L1203,562 L1203,561 L1203,559 L1204,559 L1204,558 L1205,558 L1205,557 L1207,558 L1208,557 L1206,555 L1207,555 L1207,554 L1206,553 L1209,553 L1207,552 L1207,551 L1209,551 L1208,550 L1208,549 L1209,548 L1207,548 L1208,547 L1209,546 L1208,546 L1208,545 L1207,544 L1209,543 L1207,543 L1208,542 L1206,543 L1206,542 C1206,542 1208,541 1207,540 L1205,541 L1207,539 L1206,539 L1204,539 L1205,538 L1206,537 L1205,537 L1204,537 L1203,537 L1204,535 L1203,535 L1201,535 L1202,534 L1201,534 L1200,534 L1201,533 L1199,533 L1200,531 L1198,532 L1199,530 L1198,530 M476,329 C472,337 468,342 456,337 C445,331 447,324 451,317 C455,309 466,300 473,304 C480,307 480,321 476,329 M386,349 C392,355 396,361 387,370 C379,379 373,375 367,369 C361,363 356,350 361,344 C367,339 380,343 386,349 M424,313 C426,322 427,329 415,332 C403,336 400,330 397,322 C394,313 397,300 404,297 C411,295 421,305 424,313 M509,371 C504,378 498,382 488,375 C479,367 482,361 487,354 C492,347 505,341 511,346 C517,350 514,364 509,371" id="Shape" fill="#DEB2AD" fill-rule="nonzero"></path>
            <path d="M1395,313 C1398,322 1399,330 1387,334 C1375,338 1372,330 1369,321 C1366,311 1369,302 1376,299 C1383,297 1392,303 1395,313 M1356,351 C1364,358 1369,364 1360,373 C1350,382 1344,377 1337,369 C1330,362 1329,352 1334,347 C1339,342 1349,343 1356,351 M1449,325 C1446,335 1442,342 1430,338 C1418,333 1420,326 1424,316 C1427,307 1436,301 1442,304 C1449,306 1452,316 1449,325 M1478,370 C1471,378 1465,383 1456,374 C1447,364 1452,359 1459,351 C1466,344 1476,343 1482,348 C1487,353 1485,363 1478,370 M1439,399 C1434,396 1430,391 1430,388 C1430,376 1420,366 1408,366 C1395,366 1386,376 1386,388 C1386,391 1382,396 1376,399 C1364,406 1362,419 1370,426 C1376,432 1387,432 1398,429 C1407,426 1415,428 1418,429 C1428,433 1439,432 1446,426 C1454,419 1451,406 1439,399" id="Shape" fill="#F6F0E7" fill-rule="nonzero"></path>
            <path d="M469.1895,390 L470.1895,384 C470.1895,368 454.1895,355 435.1895,355 C415.1895,355 399.1895,368 399.1895,384 L400.1895,390 C394.1895,394 391.1895,401 392.1895,408 C394.1895,416 402.1895,422 412.1895,423 C421.1895,424 430.1895,421 435.1895,415 C439.1895,420 446.1895,423 455.1895,423 C467.1895,423 478.1895,415 478.1895,405 C478.1895,399 475.1895,393 469.1895,390" id="Path" fill="#DEB2AD"></path>
        </g>
    </g>
</svg>