<svg version="1.1" id="Layer_1" xmlns="http://www.w3.org/2000/svg" x="0" y="0" viewBox="0 0 960 960" xml:space="preserve" enable-background="new 0 0 960 960">
  <style>
    .st0{fill:#002f43}.st2{fill:#fdfdfd}.st3{fill:#436b82}.st5{fill:#65889e}.st8{fill:#7a9aae}.st12{fill:#002b41}.st14{fill:#e8ce97}.st15{fill:#806946}
  </style>
  <path class="st0" d="M-13 972V-14h987v986H-13z"/>
  <linearGradient id="SVGID_1_" gradientUnits="userSpaceOnUse" x1="661.7" y1="827.5" x2="219.6" y2="188.1">
    <stop offset="0" stop-color="#a8becd"/>
    <stop offset="1" stop-color="#294c63"/>
  </linearGradient>
  <path fill="url(#SVGID_1_)" d="M124 318l378.7 445.4L642 795.3l173.2-14-682.6-568.4-16.3 36.7z"/>
  <path class="st2" d="M635 818.8c-19.2 0-223-2.8-223-2.8l91-53 134.3 22s34.7-16.3 90.4-20 109.9 20.2 108.9 38.8c-.9 18.5-45.9 37.6-85.3 37.6-39.3 0-81.3-.4-116.3-22.6z"/>
  <path class="st3" d="M93.2 318.4l-.2.7c-8.4.6-7.6.3-7.1-7.3l.8-10c.4-5.6 1-11.1 1.6-16.7l.1-1.4c.4-6.1.7-12.1 1.2-18.1.3-3.7 1-7.3 1-11 0-2.2-.4-3.9-1.8-5.7a47.3 47.3 0 01-9.9-25.5c-1-7.9 0-15.6 2-23.2 1.4-5.5 4-10.5 7.5-14.9a21.2 21.2 0 0118.2-8.8c5.1.3 9.2 2.4 12.9 5.7 3.8 3.4 6.2 7.7 8.3 12.2 1.8 3.9 2.9 8.1 3.8 12.4.2 1.1 0 2.2 0 3.3l-3.2-.9-.8-2a38.5 38.5 0 00-7.3-18.4 18.5 18.5 0 00-6.4-5.7 14.9 14.9 0 00-13.3-.8c-.9.3-1.1 1-1.3 1.9a3.2 3.2 0 00-3.1.6 30.7 30.7 0 00-8.5 12 52.3 52.3 0 00-3.5 26.8c1.2 9.4 4 18.1 11.2 24.9.8.7.9 1.6.9 2.6l-.3 4.8-1.5 18.2-2.7 33.5-.3 7.2 1.7 3.6z"/>
  <path d="M93.2 318.4l-1.8-3.7h13.1l11 .1c5.8 0 5.7 0 5.6-5.9l-.1-1.4c-.9-2.8-.7-5.7-.8-8.5 0-1.1.1-2.3-.2-3.3-.7-2.3-.7-4.7-.7-7.1 0-5.4-1.4-10.7-1.1-16.2l-.1-.5c-1-2.8-.7-5.7-.8-8.5 0-1.1.2-2.3-.1-3.3-1-3.4-.7-7-.9-10.5l2.9-3.2c1.7-1.7 3-3.7 4.1-5.9a51.8 51.8 0 004.9-31.2l3.2.9.6 2.7-.2 6.7a47 47 0 01-10 29.3 7.4 7.4 0 00-1.7 5.3c.2 3.3-.1 6.7.8 10l.1 1c-.3 5.5.5 10.9 1.2 16.2.8 6.2.6 12.4 1.5 18.6.6 4.4.9 8.9 1.2 13.3.1 1.1 0 2.2-.1 3.4-.1 1.1-.8 1.7-1.9 1.8l-1 .1-28.7-.2z" fill="#4d738a"/>
  <path class="st5" d="M552.8 562.5c-.7-.1-1.3-.5-1.5-1.2.7.1 1.2.5 1.5 1.2z"/>
  <path d="M816.2 782.2c-.6 0-1-.2-1-.8.6-.1.9.2 1 .8z" fill="#a9bfcf"/>
  <path class="st5" d="M553.8 563.4l-.8-.7.8.7zM550.2 561.4v-1c.5.1.9.4 1 .9l-1 .1z"/>
  <path class="st3" d="M410.3 813.8l.7 1.1-.7-1.1z"/>
  <path class="st5" d="M554.9 564.3l-.9-.8c.5.1.8.3.9.8z"/>
  <path d="M348.8 717.9l.8 1-.8-1z" fill="#3b647b"/>
  <path class="st8" d="M699 684.3c-.5-.1-.8-.3-.9-.8.5 0 .8.3.9.8zM697.9 683.4c-.4 0-.7-.3-.8-.7.4 0 .7.2.8.7zM693.2 679.5c-.5-.1-.8-.3-.9-.8.5 0 .8.3.9.8zM692.1 678.6c-.4 0-.7-.3-.8-.7.5 0 .7.2.8.7zM687.4 674.7c-.5-.1-.8-.3-.9-.8.6 0 .8.3.9.8zM696 673c-.4 0-.7-.3-.8-.7.5 0 .8.2.8.7z"/>
  <path class="st2" d="M104.5 314.6H91.4l.3-7.2 2.7-33.5 1.5-18.2.3-4.8c.1-1-.1-1.9-.9-2.6a39.7 39.7 0 01-11.2-24.9 51.2 51.2 0 013.5-26.8 30 30 0 018.5-12c1-.8 1.9-.9 3.1-.6l5.5 5.9.3.9a47 47 0 016.9 23.6 46 46 0 01-10.9 33.7c-1.3.5-1.5 1.5-1.4 2.7l2 24.3 2.5 29.5c-.1 3.3.1 6.7.4 10z"/>
  <path d="M100.8 248.1a45.4 45.4 0 0010.9-33.7 47 47 0 00-6.9-23.6l-.3-.9c.7.2 1.6.3 2.2.7l5.9 4.7c2.8 2.3 5.3 5 8.3 7 2.2 1.5 3.8 3.8 6.4 4.7l.8 2c1.6 10.9.1 21.3-4.8 31.2a24 24 0 01-4.1 5.9l-2.9 3.2h-11.7c-1.4.1-2.9.1-3.8-1.2z" fill="#0d475c"/>
  <path class="st0" d="M127.3 207.1c-2.6-.9-4.2-3.2-6.4-4.7-3-2-5.5-4.7-8.3-7a135 135 0 00-5.9-4.7c-.6-.4-1.5-.5-2.2-.7l-5.5-5.9c.1-.8.4-1.5 1.3-1.9 4.6-1.8 9-1.6 13.3.8 2.5 1.4 4.7 3.3 6.4 5.7 4 5.5 6.5 11.7 7.3 18.4z"/>
  <path d="M100.8 248.1c1 1.3 2.4 1.3 3.8 1.3h11.7c.1 3.5-.1 7 .9 10.5.3 1 .1 2.2.1 3.3.1 2.9-.2 5.8.8 8.5l.1.5c-.3 5.4 1.1 10.8 1.1 16.2 0 2.4 0 4.8.7 7.1.3 1 .2 2.2.2 3.3.1 2.9-.1 5.7.8 8.5l.1 1.4c.1 5.9.3 6-5.6 5.9l-11-.1-.7-10-2.5-29.5-2-24.3c0-1.1.2-2.1 1.5-2.6z" fill="#2a576e"/>
  <path fill="#cb252c" d="M605.9 642.2l-5.1 23.7 10.1 6.9-.5 3.2-18.9-.2-10.4-7.1-15.8 9.1 1.8 55.5-19 54.3-5.5-.9 6.7-47.7-4-25.2-1.3 29.3-11.5 44-4 .1-1.2-48.3-12.2-59.2 9.1-22 26.2-29.9 15.8-5.3z"/>
  <path class="st12" d="M547.5 789l13 7.7-7.8.6-10.4-2.8.1-3.5zM534.3 789.6l3.2 9.3-10 .5v-7.8l1.3-2zM594.7 638.4l-12.2 14.4-4.5 1.9 11.2-1.1z"/>
  <path fill="#fff" d="M592.8 642.9l-1.7 3.1-2.3 1.2-4.6 6.1-6.2 1.4 4.9-5.4 4.7-3.5 2.3-2.9z"/>
  <path class="st14" d="M606.2 635.5l-10.4-11.8-13.4 13.9 11.1 10.2z"/>
  <path class="st15" d="M602.8 640.1l-.6-1.7c1.4-.5 5.2-2.2 5.3-4.7.1-4.5-2.8-6.3-6-8.3-2.8-1.8-5.8-3.6-6-7.4l1.8-.1c.2 2.9 2.5 4.3 5.2 6 3.3 2 7 4.4 6.8 9.8-.1 4.3-6.2 6.3-6.5 6.4zM593.1 626.7c0-.5-.4-4.9.7-7.2l1.6.7c-.7 1.6-.6 5.1-.5 6.3l-1.8.2zM597.5 636.5l-4.1 2.6 1.3 3.5 4-4.7z"/>
  <g>
    <path d="M611.6 644.8c14.2-4.3 27-3.2 28.7 2.4l1.8 6c1.7 5.6-8.5 13.5-22.6 17.8-14.2 4.3-27 3.2-28.6-2.4l-.3-.9-36.9 12c-1.7-1-2.8-4.1-1.8-6l37.5-10.1-.3-1c-1.8-5.6 8.3-13.6 22.5-17.8z" fill="#231f20"/>
    <linearGradient id="SVGID_2_" gradientUnits="userSpaceOnUse" x1="6697" y1="456.8" x2="6734.6" y2="456.8" gradientTransform="rotate(28.3 3262.8 -11552.6)">
      <stop offset="0" stop-color="#cddcdb"/>
      <stop offset=".2" stop-color="#c5d7d7"/>
      <stop offset=".4" stop-color="#aec9cb"/>
      <stop offset=".8" stop-color="#88b1b9"/>
      <stop offset="1" stop-color="#6ea1ac"/>
    </linearGradient>
    <path d="M613.5 651.4c-13.2 4-22.9 11-21.5 15.6 1.4 4.6 13.3 5.2 26.5 1.2s22.9-11 21.5-15.6c-1.3-4.7-13.2-5.2-26.5-1.2z" fill="url(#SVGID_2_)"/>
    <defs>
      <filter id="Adobe_OpacityMaskFilter" filterUnits="userSpaceOnUse" x="597.3" y="651" width="40.2" height="17.8">
        <feColorMatrix values="1 0 0 0 0 0 1 0 0 0 0 0 1 0 0 0 0 0 1 0"/>
      </filter>
    </defs>
    <mask maskUnits="userSpaceOnUse" x="597.3" y="651" width="40.2" height="17.8" id="SVGID_3_">
      <g filter="url(#Adobe_OpacityMaskFilter)">
        <radialGradient id="SVGID_4_" cx="-7910.5" cy="-2592.6" r="44.9" fx="-7910.5" fy="-2592.7" gradientTransform="matrix(-.817 .1428 .1554 -.3526 -5451.1 881)" gradientUnits="userSpaceOnUse">
          <stop offset="0" stop-color="#00121e"/>
          <stop offset=".2" stop-color="#031521"/>
          <stop offset=".3" stop-color="#0d1e29"/>
          <stop offset=".4" stop-color="#1d2d37"/>
          <stop offset=".5" stop-color="#33424b"/>
          <stop offset=".6" stop-color="#515d65"/>
          <stop offset=".6" stop-color="#757f85"/>
          <stop offset=".7" stop-color="#a0a7ab"/>
          <stop offset=".8" stop-color="#d0d3d6"/>
          <stop offset=".9" stop-color="#fff"/>
        </radialGradient>
        <path d="M616.5 652.6c11.1-3.2 20.9-2.7 22 1 1.1 3.7-7 9.3-18.1 12.5-11.1 3.2-20.9 2.7-22-1-1.1-3.7 7-9.3 18.1-12.5z" fill="url(#SVGID_4_)"/>
      </g>
    </mask>
    <path d="M615.4 653.1c11.1-3.2 20.9-2.7 22 1 1.1 3.7-7 9.3-18.1 12.5-11.1 3.2-20.9 2.7-22-1-1-3.7 7.1-9.3 18.1-12.5z" mask="url(#SVGID_3_)" fill="#fff"/>
  </g>
  <path class="st14" d="M583.8 661.8l4.5 3 3.2 3.4-7 3.8-3.4-3.3-1.7-5.3zM620.6 667.2l1.5 4.6-3.3 4-6.9-1.2 3.1-4.1 1.7-3.7z"/>
  <linearGradient id="SVGID_5_" gradientUnits="userSpaceOnUse" x1="440.2" y1="764.4" x2="129.8" y2="315.6">
    <stop offset="0" stop-color="#5f8298"/>
    <stop offset="1" stop-color="#25455a"/>
  </linearGradient>
  <path fill="url(#SVGID_5_)" d="M89 319l323 497 91-53-379-445z"/>
</svg>
