<svg xmlns="http://www.w3.org/2000/svg" viewBox="0 0 800 400">
  <style>
    .st1{fill:#7c7c7c}
  </style>
  <path d="M805-6h1v414H-8V-5h812l1-1z" fill="#aaa997" id="πœ_xBA_h_2"/>
  <g id="πœ_xBA_h_1">
    <path class="st1" d="M656 255a42 42 0 00-14 1c3 2 7 5 12 6l10 1c10 0 12-2 10-4s-10-4-18-4zM640 257h-5c-6 0-10 1-8 3 4 4 13 2 19 2l-6-5zM748 274c-1-2-8-5-18-4l-9 1-3 6h3l15 1c8-1 13-3 12-4zM714 272c-7 0-20-2-18 2 1 2 8 3 14 3h5l-1-5zM539 255c-4-1-9 0-13 1h-2c2 2 5 5 9 6l10 1c10 0 13-2 11-4-1-2-8-4-15-4zM521 257h-5c-5 0-10 1-9 3 2 4 12 2 19 2l-5-5z"/>
    <g>
      <path class="st1" d="M622 274c-1-2-8-5-18-4l-9 1c-3 2-4 4-3 6h3l15 1c8-1 13-3 12-4zM588 272c-7 0-20-2-18 2 1 2 7 3 14 3h5c-1-2-2-3-1-5z"/>
    </g>
    <g>
      <path class="st1" d="M421 255a55 55 0 00-15 1c0 2 3 5 6 6l9 1c11 0 15-2 14-4 0-2-6-4-14-4zM403 257h-5c-6 0-11 1-11 3 0 4 11 2 18 2l-2-5z"/>
      <g>
        <path class="st1" d="M496 274c-1-2-8-5-18-4l-9 1c-3 2-4 4-3 6h3l15 1c8-1 13-3 12-4zM462 272c-7 0-20-2-18 2 1 2 7 3 14 3h5c-1-2-2-3-1-5z"/>
      </g>
    </g>
    <g>
      <path class="st1" d="M304 255a62 62 0 00-17 1c0 2 2 5 4 6l9 1c10 0 16-2 16-4s-5-4-12-4zM280 257c-6 0-12 1-13 3-2 4 11 2 17 2l1-5h-5z"/>
      <g>
        <path class="st1" d="M370 274c-1-2-8-5-18-4l-9 1-3 6h3l16 1c7-1 12-3 11-4zM336 272c-7 0-20-2-18 2 2 2 8 3 14 3h5l-1-5z"/>
      </g>
    </g>
    <g>
      <path class="st1" d="M175 255a55 55 0 00-15 1c1 2 3 5 6 6l10 1c10 0 14-2 13-4 0-2-6-4-14-4zM157 257h-5c-6 0-11 1-11 3 0 4 11 2 18 2l-2-5z"/>
      <g>
        <path class="st1" d="M250 274c-1-2-8-5-18-4l-9 1c-2 2-4 4-3 6h3l15 1c8-1 13-3 12-4zM216 272c-7 0-20-2-18 2 1 2 7 3 14 3h5l-1-5z"/>
      </g>
    </g>
    <g>
      <path class="st1" d="M58 255a62 62 0 00-16 1c-1 2 1 5 4 6l9 1c9 0 15-2 15-4s-5-4-12-4zM34 257c-6 0-12 1-13 3-2 4 11 2 18 2v-5h-5z"/>
      <g>
        <path class="st1" d="M124 274c-1-2-8-5-18-4l-9 1c-2 2-3 4-2 6h2l16 1c7-1 13-3 11-4zM90 272c-7 0-20-2-18 2 2 2 8 3 14 3h6c-2-2-2-3-2-5z"/>
      </g>
    </g>
    <path d="M741-7l26-2 13 2-19 135-11 56c-5 21-13 40-18 61 0 2 0 2-2 2h-4v1c3 5 7 9 11 12l12 6 2 1c2 1 2 3 0 4l-3 1-2 1-3-1a82 82 0 01-22-8l-8-5-1-1-2 5c-1 2-1 2-3 1a1693 1693 0 00-10-3c0-5 2-10 4-15l1-1 1-1-6-2-7-1-1-2 6-16 11-34 15-64L741-7z" fill="#002f44"/>
  </g>
</svg>
