<svg version="1.1" id="Layer_1" xmlns="http://www.w3.org/2000/svg" x="0" y="0" viewBox="0 0 560 560" xml:space="preserve">
  <style>
    .st1{fill:#fff}.st2{fill:#cccbca}.st3{fill:#06b2b8}.st4{fill:#fb3}.st5{fill:#242d3c}.st6{fill:#21d8de}.st8{fill:#374863}.st9{fill:#ffd85c}.st10{fill:#ffca40}.st12{fill:#eeeeed}
  </style>
  <path fill="#2e8489" d="M-3.5-3.5h566.9v566.9H-3.5z"/>
  <path class="st1" d="M499.5 393.3a.9.9 0 01-.9-.9v-74.8c0-.5.4-.9.9-.9s.9.4.9.9v74.8c0 .5-.4.9-.9.9z"/>
  <path class="st1" d="M509.1 328.1c-.2 0-.5-.1-.6-.3l-9-9-9 9c-.4.4-.9.4-1.3 0s-.4-.9 0-1.3l9.6-9.6c.4-.4.9-.4 1.3 0l9.6 9.6c.4.4.4.9 0 1.3-.1.3-.3.3-.6.3zM335 190.5a.9.9 0 01-.9-.9v-23.7c0-.5.4-.9.9-.9s.9.4.9.9v23.7c0 .5-.4.9-.9.9z"/>
  <path class="st1" d="M344.7 176.4c-.2 0-.5-.1-.6-.3l-9-9-9 9c-.4.4-.9.4-1.3 0s-.4-.9 0-1.3l9.6-9.6c.4-.4.9-.4 1.3 0l9.6 9.6c.4.4.4.9 0 1.3l-.6.3zM67 408.8a.9.9 0 01-.9-.9v-44c0-.5.4-.9.9-.9s.9.4.9.9v44c0 .5-.4.9-.9.9z"/>
  <path class="st1" d="M76.6 374.4c-.2 0-.5-.1-.6-.3l-9-9-9 9c-.4.4-.9.4-1.3 0s-.4-.9 0-1.3l9.6-9.6c.4-.4.9-.4 1.3 0l9.6 9.6c.4.4.4.9 0 1.3-.1.2-.3.3-.6.3zM405.8 244.9h-21.4a.9.9 0 01-.9-.9v-21.4c0-.5.4-.9.9-.9s.9.4.9.9v20.5h20.5c.5 0 .9.4.9.9s-.4.9-.9.9z"/>
  <path class="st1" d="M399.6 260c-.2 0-.5-.1-.6-.3l-15.1-15.1a1 1 0 01-.2-1c.1-.3.5-.6.8-.6h21.4c.5 0 .9.4.9.9s-.4.9-.9.9h-19.2l13.6 13.6c.4.4.4.9 0 1.3l-.7.3z"/>
  <path class="st1" d="M384.5 266.3a22.3 22.3 0 110-44.6 22.3 22.3 0 010 44.6zm0-42.8a20.5 20.5 0 100 41 20.5 20.5 0 000-41zM473.4 270.7h-7.9a.9.9 0 01-.9-.9v-3.5c-1.5-.4-3-1-4.4-1.8l-2.4 2.4c-.4.4-.9.4-1.3 0l-5.6-5.6-.3-.6c0-.2.1-.5.3-.6l2.4-2.4c-.8-1.4-1.4-2.9-1.8-4.4H448a.9.9 0 01-.9-.9v-7.9c0-.5.4-.9.9-.9h3.5c.4-1.5 1-3 1.8-4.4l-2.4-2.4-.3-.6c0-.2.1-.5.3-.6l5.6-5.6c.3-.3.9-.3 1.3 0l2.4 2.4c1.4-.8 2.9-1.4 4.4-1.8V227c0-.5.4-.9.9-.9h7.9c.5 0 .9.4.9.9v3.4c1.5.4 3 1 4.4 1.8l2.4-2.4.6-.3c.2 0 .5.1.6.3l5.6 5.6c.4.4.4.9 0 1.3l-2.4 2.4c.8 1.4 1.4 2.9 1.8 4.4h3.5c.5 0 .9.4.9.9v7.9c0 .5-.4.9-.9.9h-3.5c-.4 1.5-1 3-1.8 4.4l2.4 2.4c.4.4.4.9 0 1.3l-5.6 5.6c-.4.4-.9.4-1.3 0l-2.4-2.4c-1.4.8-2.9 1.4-4.4 1.8v3.5c.1.5-.3.9-.8.9zm-7-1.8h6v-3.3c0-.4.3-.8.7-.9 1.8-.4 3.6-1.1 5.2-2.1.4-.2.8-.2 1.1.1l2.3 2.3 4.3-4.3-2.3-2.3c-.3-.3-.4-.8-.1-1.1 1-1.6 1.7-3.3 2.1-5.2.1-.4.5-.7.9-.7h3.3v-6.1h-3.3a1 1 0 01-.9-.7c-.4-1.8-1.1-3.6-2.1-5.2-.2-.4-.2-.8.1-1.1l2.3-2.3-4.3-4.3-2.3 2.3a1 1 0 01-1.1.1c-1.6-1-3.3-1.7-5.2-2.1a1 1 0 01-.7-.9v-3.3h-6v3.3c0 .4-.3.8-.7.9-1.8.4-3.6 1.1-5.2 2.1-.4.2-.8.2-1.1-.1l-2.3-2.3-4.3 4.3 2.3 2.3c.3.3.4.8.1 1.1-1 1.6-1.7 3.3-2.1 5.2a1 1 0 01-.9.7H449v6.1h3.3c.4 0 .8.3.9.7.4 1.8 1.1 3.6 2.1 5.2.2.4.2.8-.1 1.1l-2.3 2.3 4.3 4.3 2.3-2.3c.3-.3.8-.4 1.1-.1 1.6 1 3.3 1.7 5.2 2.1.4.1.7.5.7.9v3.3z"/>
  <path class="st1" d="M469.4 258a9.6 9.6 0 110-19.2 9.6 9.6 0 010 19.2zm0-17.4a7.8 7.8 0 100 15.6 7.8 7.8 0 000-15.6z"/>
  <g>
    <path class="st1" d="M188.5 295.6l-.6-.3a1 1 0 010-1.2l22.7-22.7a1 1 0 011.2 0c.3.3.3.9 0 1.2l-22.7 22.7c-.2.3-.4.3-.6.3zM206.9 295.6a5.1 5.1 0 01-5.1-5.1c0-2.8 2.3-5.1 5.1-5.1s5.1 2.3 5.1 5.1-2.3 5.1-5.1 5.1zm0-8.5a3.4 3.4 0 00-3.4 3.4c0 1.9 1.5 3.4 3.4 3.4s3.4-1.5 3.4-3.4-1.5-3.4-3.4-3.4zM192.8 281.5c-2.8 0-5.1-2.3-5.1-5.1s2.3-5.1 5.1-5.1 5.1 2.3 5.1 5.1-2.3 5.1-5.1 5.1zm0-8.5c-1.9 0-3.4 1.5-3.4 3.4s1.5 3.4 3.4 3.4 3.4-1.5 3.4-3.4-1.6-3.4-3.4-3.4z"/>
  </g>
  <g>
    <path class="st1" d="M184 174.5a.8.8 0 01-.7-.4l-8.6-14.8-8.6 14.8c-.3.5-1.2.5-1.5 0l-4.2-7.3-3.2 5.6-1.5-.9 4-6.9c.3-.5 1.2-.5 1.5 0l4.2 7.3 8.6-14.8c.3-.5 1.2-.5 1.5 0l8.6 14.8 9-15.6 1.5.9-9.7 16.8c-.3.3-.6.5-.9.5z"/>
    <path class="st1" d="M196.3 159.1l-.4-.1-5.2-3c-.3-.2-.4-.4-.4-.7 0-.3.2-.6.4-.7l5.2-3c.3-.2.6-.2.9 0 .3.2.4.4.4.7v6c0 .3-.2.6-.4.7l-.5.1zm-3.5-3.8l2.6 1.5v-3l-2.6 1.5zM155.5 176.4a2.9 2.9 0 01-2.8-2.8c0-1.5 1.3-2.8 2.8-2.8 1.5 0 2.8 1.3 2.8 2.8 0 1.5-1.3 2.8-2.8 2.8zm0-3.9c-.6 0-1.1.5-1.1 1.1 0 .6.5 1.1 1.1 1.1.6 0 1.1-.5 1.1-1.1 0-.6-.5-1.1-1.1-1.1z"/>
  </g>
  <g>
    <path class="st1" d="M255 203.9h-34.4a1 1 0 01-1-1v-19.1c0-.5.4-1 1-1H255c.5 0 1 .4 1 1v19.1c0 .5-.4 1-1 1zm-33.7-1.7h33v-17.7h-33v17.7z"/>
    <path class="st1" d="M237.8 199.3a6 6 0 01-6-6 6 6 0 016-6 6 6 0 016 6c.1 3.3-2.6 6-6 6zm0-10.4c-2.4 0-4.4 2-4.4 4.4 0 2.4 2 4.4 4.4 4.4s4.4-2 4.4-4.4c0-2.4-2-4.4-4.4-4.4zM255.2 189.6a6 6 0 01-6-6h1.7c0 2.4 2 4.4 4.4 4.4v1.6zM220.5 189.6V188c2.4 0 4.4-2 4.4-4.4h1.7c-.1 3.3-2.8 6-6.1 6zM250.8 203h-1.7a6 6 0 016-6v1.7a4.3 4.3 0 00-4.3 4.3zM226.5 203h-1.7c0-2.4-2-4.4-4.4-4.4V197a6 6 0 016.1 6z"/>
    <g>
      <path class="st1" d="M249.9 194.1h-4.2a.8.8 0 01-.8-.8c0-.5.4-.8.8-.8h4.2c.5 0 .8.4.8.8.1.5-.3.8-.8.8zM229.9 194.1h-4.2a.8.8 0 01-.8-.8c0-.5.4-.8.8-.8h4.2c.5 0 .8.4.8.8 0 .5-.3.8-.8.8z"/>
    </g>
  </g>
  <g>
    <path class="st1" d="M416.6 185.6h-8.1a.9.9 0 01-.9-.9v-6.4c0-.5.4-.9.9-.9h8.1c.5 0 .9.4.9.9v6.4c0 .5-.4.9-.9.9zm-7.2-1.7h6.4v-4.7h-6.4v4.7zM428.2 185.6h-8.1a.9.9 0 01-.9-.9v-22.2c0-.5.4-.9.9-.9h8.1c.5 0 .9.4.9.9v22.2c-.1.5-.5.9-.9.9zm-7.3-1.7h6.4v-20.5h-6.4v20.5zM439.7 185.6h-8.1a.9.9 0 01-.9-.9V168c0-.5.4-.9.9-.9h8.1c.5 0 .9.4.9.9v16.7c0 .5-.4.9-.9.9zm-7.2-1.7h6.4v-15h-6.4v15zM451.3 185.6h-8.1a.9.9 0 01-.9-.9v-35.4c0-.5.4-.9.9-.9h8.1c.5 0 .9.4.9.9v35.4c-.1.5-.5.9-.9.9zm-7.3-1.7h6.4v-33.7H444v33.7z"/>
  </g>
  <g>
    <path class="st1" d="M112.2 237.9a7.6 7.6 0 110-15.2 7.6 7.6 0 010 15.2zm0-13.4a5.8 5.8 0 105.8 5.8 5.7 5.7 0 00-5.8-5.8zM91.6 242.1a3.8 3.8 0 110-7.6 3.8 3.8 0 010 7.6zm0-5.8c-1.1 0-2.1.9-2.1 2.1s.9 2.1 2.1 2.1c1.1 0 2.1-.9 2.1-2.1s-1-2.1-2.1-2.1zM90.3 265.2a5.1 5.1 0 01-5.1-5.1c0-2.8 2.3-5.1 5.1-5.1s5.1 2.3 5.1 5.1-2.3 5.1-5.1 5.1zm0-8.4a3.4 3.4 0 00-3.4 3.4c0 1.9 1.5 3.4 3.4 3.4s3.4-1.5 3.4-3.4a3.5 3.5 0 00-3.4-3.4zM118.2 258.6a5.6 5.6 0 110-11.2 5.6 5.6 0 010 11.2zm0-9.5a3.9 3.9 0 103.9 3.9c0-2.2-1.7-3.9-3.9-3.9zM126.8 237.3a2.9 2.9 0 112.9-2.9c-.1 1.6-1.3 2.9-2.9 2.9zm0-4c-.6 0-1.2.5-1.2 1.2 0 .6.5 1.2 1.2 1.2.6 0 1.2-.5 1.2-1.2-.1-.7-.6-1.2-1.2-1.2z"/>
    <path class="st1" d="M117 249.3a.9.9 0 01-.8-.6l-3.1-11.6c-.1-.5.2-.9.6-1 .5-.1.9.2 1 .6l3.1 11.6c.1.5-.2.9-.6 1 0-.1-.1 0-.2 0zM124.8 234.7h-.2l-6.1-1.7c-.5-.1-.7-.6-.6-1.1.1-.5.6-.7 1.1-.6l6.1 1.7c.5.1.7.6.6 1.1-.1.4-.5.6-.9.6zM92.8 257.6a.8.8 0 01-.5-.2c-.4-.3-.5-.8-.2-1.2l15.5-21c.3-.4.8-.5 1.2-.2.4.3.5.8.2 1.2l-15.5 21c-.2.3-.5.4-.7.4zM94.3 238.2c-.3 0-.7-.2-.8-.5-.2-.4 0-.9.5-1.1l11.7-4.6c.4-.2.9 0 1.1.5.2.4 0 .9-.5 1.1l-11.7 4.6h-.3z"/>
  </g>
  <g>
    <path class="st1" d="M430.8 320.1v118.7c0 11.4-9.2 20.6-20.6 20.6H227.3a19.5 19.5 0 00-19.5 19.5V339.6a19.5 19.5 0 0119.5-19.5h203.5z"/>
    <path class="st2" d="M269.5 356.7l-.5-.6 20.1-12.7.4.6zM289.1 378.5L269 365.8l.5-.5 20 12.7zM320.1 343.5h19.4v.7h-19.4zM320.1 377.7h19.4v.7h-19.4z"/>
    <path class="st3" d="M246.2 350.7h23.3v20.5h-23.3z"/>
    <path class="st4" d="M289 337h31.1v13.7H289zM289 371.2h31.1v13.7H289zM339.5 337h31.1v13.7h-31.1zM339.5 371.2h31.1v13.7h-31.1z"/>
    <path class="st1" d="M294.8 341.1h19.4v.9h-19.4zM294.8 343.4h19.4v.9h-19.4zM294.8 345.7h9.7v.9h-9.7z"/>
    <g>
      <path class="st1" d="M294.8 375.3h19.4v.9h-19.4zM294.8 377.6h19.4v.9h-19.4zM294.8 379.9h9.7v.9h-9.7z"/>
    </g>
    <g>
      <path class="st1" d="M345.4 375.3h19.4v.9h-19.4zM345.4 377.6h19.4v.9h-19.4zM345.4 379.9h9.7v.9h-9.7z"/>
    </g>
    <g>
      <path class="st1" d="M345.4 341.1h19.4v.9h-19.4zM345.4 343.4h19.4v.9h-19.4zM345.4 345.7h9.7v.9h-9.7z"/>
    </g>
    <g>
      <path class="st1" d="M249.7 358.2H266v.9h-16.3zM249.7 360.5H266v.9h-16.3zM249.7 362.8h8.2v.9h-8.2z"/>
    </g>
    <g>
      <path class="st5" d="M246.2 420.1H296v1.7h-49.8z"/>
      <path class="st4" d="M246.2 395.6h9.8v21.7h-9.8z"/>
      <path class="st2" d="M259.5 407.3h9.8v10.1h-9.8z"/>
      <path class="st5" d="M272.9 399.1h9.8v18.2h-9.8z"/>
      <path class="st6" d="M286.2 413.3h9.8v4h-9.8z"/>
    </g>
    <g>
      <path class="st4" d="M346.1 393.4l-17.9 23.9H364z"/>
      <path class="st6" d="M357.6 400l-13 17.3h26.1z"/>
      <path class="st3" d="M344.6 417.3H364l-9.7-12.9z"/>
      <path class="st5" d="M330.4 404.7l-9.5 12.6h18.9z"/>
      <path fill="#131a26" d="M328.2 417.3h11.6l-5.8-7.7z"/>
      <path class="st5" d="M320.9 420.1h49.8v1.7h-49.8z"/>
    </g>
    <g>
      <path class="st5" d="M286.2 430.7h84.5v2h-84.5z"/>
      <path class="st2" d="M286.2 435.6h84.5v2h-84.5zM286.2 440.5h42.2v1.9h-42.2z"/>
      <path class="st5" d="M246.2 430.7h31.5v11.7h-31.5z"/>
    </g>
    <path class="st8" d="M207.8 478.9c0 10.8 8.7 19.5 19.5 19.5v-39a19.5 19.5 0 00-19.5 19.5zM410.1 299.5a20.6 20.6 0 00-20.6 20.6v118.7a20.6 20.6 0 1141.2 0V320.1a20.5 20.5 0 00-20.6-20.6z"/>
    <g>
      <path class="st1" d="M274.8 498.4l-14-7 14-7z"/>
      <path class="st4" d="M274.8 484.4h155.9v14H274.8z"/>
      <path class="st9" d="M274.8 484.4h155.9v7H274.8z"/>
      <path class="st5" d="M266.3 494.2l-5.5-2.8 5.5-2.7z"/>
      <path class="st1" d="M414.1 484.4h4.9v14h-4.9z"/>
      <path class="st5" d="M419 484.4h11.7v14H419z"/>
    </g>
    <g>
      <path class="st8" d="M452.6 498.4h20.1V320.1h-20.1v178.3zm13.5-4.7a2 2 0 01-2 2 2 2 0 01-2-2c0-1.1.9-2 2-2a2 2 0 012 2z"/>
      <path class="st1" d="M452.6 495.3h3.5v.4h-3.5zM452.6 489.6h3.5v.4h-3.5zM452.6 483.8h3.5v.4h-3.5zM452.6 478.1h3.5v.4h-3.5zM452.6 472.3h3.5v.4h-3.5zM452.6 466.6h3.5v.4h-3.5zM452.6 460.8h3.5v.4h-3.5zM452.6 455.1h3.5v.4h-3.5zM452.6 449.3h3.5v.4h-3.5zM452.6 443.6h3.5v.4h-3.5zM452.6 437.8h3.5v.4h-3.5zM452.6 432.1h3.5v.4h-3.5zM452.6 426.3h3.5v.4h-3.5zM452.6 420.5h3.5v.4h-3.5zM452.6 414.8h3.5v.4h-3.5zM452.6 409h3.5v.4h-3.5zM452.6 403.3h3.5v.4h-3.5zM452.6 397.5h3.5v.4h-3.5zM452.6 391.8h3.5v.4h-3.5zM452.6 386h3.5v.4h-3.5zM452.6 380.3h3.5v.4h-3.5zM452.6 374.5h3.5v.4h-3.5zM452.6 368.8h3.5v.4h-3.5zM452.6 363h3.5v.4h-3.5zM452.6 357.3h3.5v.4h-3.5zM452.6 351.5h3.5v.4h-3.5zM452.6 345.8h3.5v.4h-3.5zM452.6 340h3.5v.4h-3.5zM452.6 334.3h3.5v.4h-3.5zM452.6 328.5h3.5v.4h-3.5zM452.6 322.8h3.5v.4h-3.5z"/>
      <g>
        <path class="st1" d="M452.6 492.5h1.7v.2h-1.7zM452.6 486.8h1.7v.2h-1.7zM452.6 481h1.7v.2h-1.7zM452.6 475.3h1.7v.2h-1.7zM452.6 469.5h1.7v.2h-1.7zM452.6 463.8h1.7v.2h-1.7zM452.6 458h1.7v.2h-1.7zM452.6 452.3h1.7v.2h-1.7zM452.6 446.5h1.7v.2h-1.7zM452.6 440.8h1.7v.2h-1.7zM452.6 435h1.7v.2h-1.7zM452.6 429.3h1.7v.2h-1.7zM452.6 423.5h1.7v.2h-1.7zM452.6 417.8h1.7v.2h-1.7zM452.6 412h1.7v.2h-1.7zM452.6 406.3h1.7v.2h-1.7zM452.6 400.5h1.7v.2h-1.7zM452.6 394.8h1.7v.2h-1.7zM452.6 389h1.7v.2h-1.7zM452.6 383.2h1.7v.2h-1.7zM452.6 377.5h1.7v.2h-1.7zM452.6 371.7h1.7v.2h-1.7zM452.6 366h1.7v.2h-1.7zM452.6 360.2h1.7v.2h-1.7zM452.6 354.5h1.7v.2h-1.7zM452.6 348.7h1.7v.2h-1.7zM452.6 343h1.7v.2h-1.7zM452.6 337.2h1.7v.2h-1.7zM452.6 331.5h1.7v.2h-1.7zM452.6 325.7h1.7v.2h-1.7z"/>
      </g>
    </g>
    <g>
      <path class="st9" d="M178.4 329.3a45.6 45.6 0 11-91.2 0 45.6 45.6 0 0191.2 0z"/>
      <path class="st10" d="M132.8 365.2a35.7 35.7 0 01-26.6-11.9c-.7-.8-.7-2 .1-2.7.8-.7 2-.7 2.7.1a32 32 0 0055.8-21.4 1.9 1.9 0 113.8 0c.1 19.8-16 35.9-35.8 35.9zM98.8 331.2c-1.1 0-1.9-.9-1.9-1.9a36 36 0 0135.9-35.9 1.9 1.9 0 110 3.8 32 32 0 00-32 32 2 2 0 01-2 2z"/>
      <path class="st4" d="M112.3 369.9h41v11.4h-41z"/>
      <path fill="#3e4959" d="M110 381.3h45.5v28.4H110z"/>
      <path class="st5" d="M107.7 384.4h50.2v3.2h-50.2zM107.7 390.7h50.2v3.2h-50.2zM107.7 397h50.2v3.2h-50.2zM107.7 403.4h50.2v3.2h-50.2zM118.3 409.7h29v7.7h-29z"/>
      <path class="st1" d="M125.1 332.9h1.9v48.3h-1.9zM138.6 332.9h1.9v48.3h-1.9zM116.4 331h32.8v1.9h-32.8z"/>
      <g>
        <path class="st1" d="M96.2 403.3h73.2v95.1H96.2z"/>
        <path class="st12" d="M132.8 403.3h36.6v95.1h-36.6z"/>
        <path fill="#dddcdc" d="M151.1 403.3h18.3v95.1h-18.3z"/>
        <path class="st12" d="M178.2 477.6h-8.8v-8h8.8a6.8 6.8 0 006.9-6.9v-23.4a7 7 0 00-2-4.9 7 7 0 00-4.9-2h-8.8v-8h8.8a15 15 0 0115 15v23.4c0 4-1.6 7.8-4.4 10.6a15.9 15.9 0 01-10.6 4.2z"/>
        <path class="st4" d="M106.2 403.3v7.4a2.8 2.8 0 11-5.6 0v-7.4h5.6z"/>
        <path class="st4" d="M111.7 403.3v7.4a2.8 2.8 0 10-5.6 0v-7.4h5.6z"/>
        <path class="st4" d="M117.3 403.3v29.2a2.8 2.8 0 11-5.6 0v-29.2h5.6zM128.3 403.3v18.5a2.8 2.8 0 11-5.6 0v-18.5h5.6z"/>
        <path class="st4" d="M122.8 403.3v5a2.8 2.8 0 10-5.6 0v-5h5.6z"/>
      </g>
    </g>
    <g>
      <path fill="#e6e5e5" d="M268.3 244.3l5.5 30.4 81.6-58.3z"/>
      <path class="st1" d="M276.9 249.4l31.4 18.3 47.1-51.3zM249.2 233.1l19.1 11.2 87.1-27.9z"/>
      <path class="st2" d="M273.8 274.7l3.1-25.3 17.8 10.4z"/>
      <g>
        <path class="st1" d="M269 311.4a.8.8 0 01-.5-.2.8.8 0 010-1.1l2.7-2.9c.3-.3.8-.3 1.1 0 .3.3.3.8 0 1.1l-2.7 2.9-.6.2zM277.5 302.1a.8.8 0 01-.5-.2.8.8 0 010-1.1l5.9-6.4c.3-.3.8-.3 1.1 0 .3.3.3.8 0 1.1l-5.9 6.4a1 1 0 01-.6.2zm11.8-12.8a.8.8 0 01-.5-.2.8.8 0 010-1.1l5.9-6.4c.3-.3.8-.3 1.1 0 .3.3.3.8 0 1.1l-5.9 6.4-.6.2zM301 276.5a.8.8 0 01-.5-.2.8.8 0 010-1.1l2.7-2.9c.3-.3.8-.3 1.1 0 .3.3.3.8 0 1.1l-2.7 2.9-.6.2z"/>
      </g>
      <g>
        <path class="st1" d="M241.5 235.2c-.4 0-.7-.3-.8-.7-.1-.4.2-.8.7-.9l3.9-.6c.5-.1.8.2.9.7.1.4-.2.8-.7.9l-3.9.6h-.1zM206.8 240.6c-.4 0-.7-.3-.8-.7-.1-.4.2-.8.7-.9l8.7-1.4c.4-.1.8.2.9.7.1.4-.2.8-.7.9l-8.7 1.4h-.1zm17.3-2.7c-.4 0-.7-.3-.8-.7-.1-.4.2-.8.7-.9l8.7-1.4c.4-.1.8.2.9.7.1.4-.2.8-.7.9l-8.7 1.4h-.1zM194.2 242.6c-.4 0-.7-.3-.8-.7-.1-.4.2-.8.7-.9l3.9-.6c.5-.1.8.2.9.7.1.4-.2.8-.7.9l-3.9.6h-.1z"/>
      </g>
    </g>
  </g>
</svg>
