<svg xmlns="http://www.w3.org/2000/svg" viewBox="0 0 500 500">
  <defs>
    <linearGradient id="a" x1="148.4" y1="350.2" x2="500" y2="350.2" gradientUnits="userSpaceOnUse">
      <stop offset="0" stop-color="#bbb"/>
      <stop offset="1" stop-color="#eee"/>
    </linearGradient>
  </defs>
  <path fill="#338489" d="M0 0h500v500H0z"/>
  <path d="M500 340.5l-14 .3c-102.6 1.6-340.7-4.1-337.3.6 0 6.8-.3 13-.3 19.4 34.4-1.5 235 1.6 337.6-.4l14-.2v-19.7z" fill="url(#a)"/>
  <path d="M114.3 300.9c26.2 1.1 57 2.3 93.7 14.8l.7-15.3s6.3-8.2-47-16.7a244.5 244.5 0 00-45.2-1.6zM111.7 261.3c6.2.4 98.4 14.7 101.9 16.4 7.8 3.8 8.4-12.7 8.4-12.7s-1.1-12.1-108.4-16.9c-1.3 0-1.9 13.2-1.9 13.2zM125.1 224c10 3.8 60.1 6.9 89.3 17.3 6.2 2.2 9.8-14.6 9.8-14.6s4.3-9.6-88.8-19.6c0-.1-10.2 15.4-10.3 16.9z" fill="#bbb"/>
  <path d="M154.3 188l1.6 18.6c10.9-2.3 27.4-1.7 27.4-1.7 4.2-21 2.6-15.9 3.2-17.9s-20.9-3.1-32.2 1z" fill="#fff"/>
  <path d="M154.3 188l1.6 18.6c10.9-2.3 27.4-1.7 27.4-1.7 4.2-21 2.7-15.8 3.2-17.9s-20.9-3.1-32.2 1z" fill="#bbb"/>
  <path d="M197.2 343.2c-2.2-7.9-52.2-15.3-59.9-16.2-.5-.1 1-3.3 5.5-12.4 0 0 54.8 4.2 55.1 12.7z" fill="#fff"/>
  <path d="M197.3 343.2c-2.2-7.9-52.2-15.3-60-16.2-.5-.1 1-3.3 5.5-12.4 0 0 56 4.5 55.1 13.1z" fill="#bbb"/>
  <path d="M148.2 341.2c3 3.9 48.9-9.4 49.7-14.1 0 0 .4 1.2-.4 19.4-.3 6.1-42.7 18.6-49.6 14.1zM500 242.7c-35.1-1.6-17.6-2.8-52.7-2.8v23.7c35.1.2 17.6 1.5 52.7 3.2v-24.1zM500 293.8c-37.4.8-74.8.7-112.2-2.6V315c37.4 1.6 74.8 2.1 112.2 1.7v-22.9zM500 382.7h-93.6v23.7l93.6.3v-24zM137.5 327c6.8 2.2 71.3-3.6 71.5-8.3l.5-19.2s.5 4.8-72.4 8.4zM114.8 301c3.8-1.2 105.6-7.8 106.7-16.3l.9-19.5c-.9 8.2-97.3 13.4-109.4 16.5zM112.2 261.4s102.3-7 111.9-15.2l.7-19.6s4.1 4.4-111.9 14.9zM125.7 224c.1-.9 60.7-10.2 62.8-17.9L187 187c-6.5 5.8-58.8 14.6-61.1 17.5 0 0-.4 15-.2 19.5z" fill="#eee"/>
  <path fill="#f1b70e" d="M57.8 234.4h42v9.6h-42zM64 312.7l32-27.4 6.2 7.3L70.3 320zM92.8 159l29.4 30-6.8 6.7-29.5-30zM177.7 131.7l.9 42-9.6.2-.8-42zM256.5 175.7l-30.3 29.1-6.6-7 30.2-29zM278.6 244.3l-42 .3-.1-9.6 42-.3zM259.1 321.9l-29.3-30.1 7-6.7 29.2 30.1z"/>
  <path d="M138 376a6933 6933 0 0166.8-1.4c2.7 0 2.9 8.1-3 10.5-8.7 3.5 9.8 5.3.3 8.4s9.4 5.2.5 8.4c-10.9 3.8 9.8 5-.5 8.4-7.9 2.6 3.6 2.9.3 8.4 0 0-7.3 5.5-21.3 8.6 0 0-8.7 9.8-17 .2a41.7 41.7 0 01-19.2-4.7s-9.3-5.2-2.9-7.8c9.1-3.7-11.2-4.9.1-9.1s-11-4.4-.9-7.4-9.7-5.5.3-8.1-13.9-14.1-3.5-14.4z" fill="#1C5A5E"/>
</svg>
