<svg version="1.1" id="Layer_1" xmlns="http://www.w3.org/2000/svg" x="0" y="0" viewBox="0 0 1294.7 1294.6" xml:space="preserve">
  <style>
    .st1{fill:#fdfdfd}.st2{fill:#212222}.st3{fill:#262425}.st4{fill:#3b2b21}.st5{fill:#c27932}.st6{fill:#e3b033}.st7{fill:#ab3c2d}.st8{fill:#1d2734}.st9{fill:#a46832}.st10{fill:#3a4926}.st11{fill:#dc9530}.st12{fill:#c8482c}.st13{fill:#263751}.st15{fill:#4f4137}
  </style>
  <path d="M-17.1-22h1330.7v1338.6H-17.1V-22z" fill="#338488"/>
  <path class="st1" d="M467.7 972v-17.7l-.1-2.7c-.2-2-.5-2.3-2.3-2.5l-2.2-.1a37 37 0 01-13.8-4.2 26.8 26.8 0 01-9.9-9.3 20.6 20.6 0 01.8-24.4c2.7-3.7 6.2-6.7 10.3-8.9a40.4 40.4 0 0119.8-5.5l3.1-.1c.6 0 1.1-.4 1.4-1l1.3-3.3a39 39 0 0123.9-22.1 38 38 0 0145.9 18.7l1 2c1.5 3.5 4.3 5.5 8 6.3l7.4 1.3a32 32 0 0119 10.5 20.6 20.6 0 015.9 17c-.6 5.1-2.9 9.6-6.5 13.3a32 32 0 01-20.3 9.7l-3.5.2c-.8.1-1.3.7-1.4 1.5l-.2 3.1c-.7 11.8-.7 23.6-.7 35.4 0 1.4.6 3.2-.5 4.3-1.1 1.2-2.8.1-4.2-.1a412.2 412.2 0 00-31.2-3.2 173 173 0 00-21.6.1 277 277 0 00-27.2 3.5c-1.7.3-2.1 0-2.1-1.8l-.1-20z"/>
  <path class="st2" d="M708.4 413.2c-10.2.1-19.6-1.5-28.9-4a162 162 0 01-41.6-18.1l-2.2-1.5c-.7-.5-.8-1.3-.2-1.9a36 36 0 013.5-3.3c3.3-2.7 6.5-5.5 9.9-8.1a16 16 0 006.1-9.5c1.1-4.6 2-9.2 2.9-13.8l5.3-30.4c1-5.4 2.3-10.6 4.1-15.8 4-11.6 12-19.4 22.9-24.4l4.5-1.8c.8-.3 1.7-.6 2.2-1.3 2.1-3 5.4-3.3 8.6-3.8 3.2-.5 6.5-.1 9.6.9 1.1.3 2.4.7 3.1 1.7 1.3 1.9 3.2 2.4 5.1 3.2a42.8 42.8 0 0120.8 16.5c3.2 5 5 10.6 6.5 16.4 2.3 8.8 3.9 17.8 5.4 26.8 1.3 7.8 2.7 15.7 4.4 23.4 1.2 5.5 4 9.7 8.3 13.1l11.1 8.8 1.3 1.2c.4.5.4 1.1-.1 1.5l-2.5 1.8a160.3 160.3 0 01-48.8 20.1 93.1 93.1 0 01-21.3 2.3zm20.4-67.9l-1.6-2.9-4-6.9c-.9-1.4-.8-2.7.1-4 1-1.5 1.8-3 2.7-4.6l2.4-4.5c-.8-.8-1.5-.7-2.2-.7l-8.4.1c-1.6 0-2.7-.4-3.5-2-1.4-2.7-3-5.4-4.6-8-.3-.6-.5-1.5-1.4-1.4-.8.3-1 1.1-1.4 1.7-1.4 2.3-2.8 4.5-3.9 6.9-1.1 2.2-2.5 3.3-5.2 3.1-2.5-.3-5-.1-7.5 0-.7 0-1.5-.2-2.2.8l.9 1.7 4 6.8c1 1.5 1.1 2.8.1 4.4-1.5 2.3-2.9 4.8-4.2 7.2-.3.6-.9 1.2-.6 2 .8.5 1.7.3 2.5.3h8.4c1.3 0 2.2.4 2.8 1.6l1.1 1.9 4.2 7.2c.6 1 1.3 1 1.9-.1l4.8-8.4c.9-1.6 1.9-2.4 3.8-2.3 3.5.2 6.9.1 11 .1z"/>
  <path class="st3" d="M949.8 642.3c-9.3-1.5-18.5-3.6-27.3-6.9a71.5 71.5 0 01-18.3-9.7 37.8 37.8 0 01-8.6-8.8 21.7 21.7 0 01-3-6.8c-.7-2.7-.3-5.3 1-7.7 1.4-2.5 3.5-4 6.3-4.2 2.6-.3 5.3-.2 7.9.4 2.9.7 5.7 1.3 8.7 1.4 8.4.3 15.5-2.6 21.7-8.3 5.7-5.3 10-11.6 13.7-18.3a65 65 0 0113.6-17.3c6.8-6 14.6-9.8 23.5-11.6 2.9-.6 5.9-.5 8.8.1a51.4 51.4 0 0132.6 21.8c1.9 2.6 3.5 5.5 5.1 8.3a74.7 74.7 0 0012.8 16.8c7.7 7.3 16.8 10 27.2 7.9 3.2-.6 6.3-1.3 9.6-1.4 7.7-.1 10.5 7.1 9.2 12.1a24.8 24.8 0 01-6.3 11c-4.4 4.7-9.8 8-15.5 10.8-9.6 4.8-19.8 7.5-30.2 9.5l-5.2.9c-5-.4-9.9 1.2-14.9 1l-1.3.2c-1.8.7-3.8.6-5.7.6h-37c-4.5 0-9.1.5-13.6-.8-1-.3-2-.1-3.1-.1-.9 0-1.8.1-2.6-.1-3-1.1-6.1-.7-9.1-.8zm43.2-42.4c1.8 0 3.3.1 4.5-1.1 1.4-1.4 2.7-2.8 3.3-4.6.7-2.1.4-4.6 2.6-6.1.2-.1.2-.6.1-.8-.4-1.9.5-3.3 1.5-4.8 3.3-5 2.2-10.7-2.5-14.5a15 15 0 00-17.7-.4c-4.2 3-7 9.1-2.9 15.1l.8 1.1c.5.6.8 1.3.6 2-.4 1.8.3 3.1 1.7 4.2.5.4.7 1 .6 1.6-.4 2.5 1.3 4.1 2.5 5.9 1.3 1.6 2.9 2.9 4.9 2.4zm-3.4 9.3l-2.5 1.4c-1.6 1-3.1 1.5-5 .7-.6-.3-1.4-.2-2.2-.2-1.1.1-1.9 1.5-1.2 2.2a4.9 4.9 0 011.6 3.7c0 .8 1.4 1.3 2.1.9.4-.2.9-.4 1.1-.7 2-3.3 5.6-4.1 8.6-5.8.8-.5 1.7-.5 2.5 0 3 1.7 6.6 2.6 8.6 5.9.1.2.5.3.7.5 1.1.8 2.7.2 2.5-1.2-.1-1.4.4-2.2 1.4-2.9.5-.4.5-1 .3-1.6-.3-.8-1-1-1.8-1-.7 0-1.5 0-2.2.3-1.6.7-2.8.1-4.2-.6-.9-.5-1.9-.8-2.7-1.8 2.5-1.5 4.8-3.4 8-3.2.6 0 1.2-.2 1.7-.4 1.3-.4 1.7-2.1.6-2.7-1.2-.6-1.9-1.2-2-2.6-.1-.8-.8-1.2-1.6-1.3a2 2 0 00-1.8 1.1c-.2.4-.5.8-.5 1.2-.3 1.8-1.5 2.7-3 3.5-6.6 3.1-4.1 3.2-10.8 0-1.6-.8-2.7-1.7-3-3.5-.1-.5-.5-1.1-.8-1.5-.8-1-2.3-.9-2.9.3-.5.8-.1 2.1-1.4 2.5-1 .3-1.5.9-1.3 2 .3 1 1.2 1.2 2.1 1.4l.9.1c3.3-.2 5.6 1.5 8.2 3.3zM704 1080.4v-21.2a52 52 0 01.8-10.5 24 24 0 0112.3-16.9 41.7 41.7 0 0115.9-5c8.2-1 16.5-.7 24.7-.5 7.1.2 14 1.4 20.4 4.9a24.5 24.5 0 0113.4 20c.3 3.2.5 6.5.5 9.7v44.2c0 4.4.3 4.6 3.9 2.3 4.5-2.9 8.8-5.9 13.2-8.9 1.3-.9 2.6-1.9 4.2-2.4 2-.6 3.5.4 3.6 2.6a17 17 0 01-1.7 7.7 53.4 53.4 0 01-9.3 14.9c-3 3.4-6.7 5.8-10.6 7.9-7.7 4.1-16 6.6-24.6 8.3a115.8 115.8 0 01-54.2-1.9 60.2 60.2 0 01-23.3-11.3 42.5 42.5 0 01-13.9-22c-.3-1.2-.3-2.6-.3-3.9.1-1.7 1.4-2.6 3.1-2.2 1.8.4 3.2 1.5 4.6 2.5l12 8.2 3.4 2c.7.4 1.5-.1 1.5-.9l.1-3.5c.3-8.2.3-16.1.3-24.1zM804.1 728.2h13.3c7.4.3 14.7.6 21.9 2.5 3.9 1 7.5 2.4 10.9 4.6 3.6 2.3 6.2 5.4 8.4 9a9.3 9.3 0 011.5 4.1c.4 3.5.8 7 .8 10.5.1 3.2-.3 6.5-.5 9.7-.1 2.1-.2 4.1-.6 6.1-.3 1.6-.4 3.2-.3 4.8 0 2 1.2 2.8 3.2 2.6 1.7-.2 3.1-1 4.3-2l5.1-4.2 6.5-4.6c1.4-.9 2.9-1.5 4.5-1.7 1.4-.2 2.6.8 2.7 2.3 0 1.9-.5 3.8-1.3 5.6a86.4 86.4 0 01-11.1 20.5 48.4 48.4 0 01-25.5 17.3 87.4 87.4 0 01-24.4 3.7c-7.1.1-14.2.2-21.2-.1-11.8-.6-23.5-1.6-34.7-5.8-7-2.6-13.3-6.2-18.8-11.4-3-2.8-5.6-6.1-7.6-9.7-3.4-6-6.3-12.3-8.4-18.9-.6-1.8-1-3.7-.7-5.6.2-1.8 1.5-2.7 3.1-2 1.5.6 3 1.3 4.3 2.2 3 1.9 5.6 4.3 8.2 6.7 1.2 1.1 2.3 2.3 3.6 3.2.9.7 2 1.2 3.1 1.6 1.6.5 3-.4 3.2-2.1l.1-3.5v-19.9c0-1.5.1-2.9.3-4.4 1.1-8.4 6.2-13.8 13.5-17.4a39.6 39.6 0 0116.6-3.9H804l.1.2zM550.4 1146.5c-15.5.3-30-2-44-6.9a73.2 73.2 0 01-15.5-7.3 48 48 0 01-19.9-25.1c-.6-1.8-.8-3.7-.7-5.7.2-2.4 1.7-3.4 4-2.5 1.6.6 3.2 1.5 4.7 2.5l13.8 8.7 1.1.7c4.8 2.7 5.4 3.4 6.9-2.7 2.7-11.3 5.7-22.5 8.5-33.8a57.3 57.3 0 017.8-17.7c1.7-2.6 3.9-4.8 6.2-6.9a14 14 0 0112.4-3.1c2.9.5 5 2.3 6.3 5.1l1.1 2.9c1 2.2 2.7 3.4 5.2 3.5h4.4a5.8 5.8 0 005.3-4l.7-2.1c1.5-3.4 4-5.2 7.8-5.6 5.1-.5 9.2 1.1 12.7 4.7a47 47 0 0111.6 21c2.9 10.5 5.4 21.1 8 31.7a110 110 0 002.1 7.7c.3 1.2 1.3 1.6 2.4 1.2 1.1-.5 2.1-1 3.1-1.7l15.3-9.7c1.5-.9 2.9-2 4.6-2.5 2.5-.7 4.1.3 4.2 2.9.1 1.5-.2 2.9-.6 4.4a47.5 47.5 0 01-23.4 28.1c-10.2 5.3-21 8.5-32.2 10.5-8.1 1.3-16.3 1.9-23.9 1.7z"/>
  <path class="st4" d="M576.6 855c-.2-1 .7-1.3 1.2-1.7 3.6-2.9 7.1-5.7 10.3-9 1.8-1.9 3-3.9 3.6-6.4 1.2-5 1.8-10.1 2.5-15.2 1.6-12.8 2.7-25.7 5.3-38.4l1.2-5.2a35.2 35.2 0 0118.4-23.6 37 37 0 0120.2-5.4h1.8c6.9-1.4 13.1.7 19.2 3.3a39 39 0 0116 12.1c2 2.6 3.5 5.4 4.6 8.5a92.3 92.3 0 014.2 18c1.4 10 2.5 20.1 3.8 30.2.5 4.2 1.3 8.4 1.9 12.7.7 4.9 3.1 8.8 6.9 11.9l6.9 5.6 1.4 1.1c.4.4 1 .8.6 1.4-.2.3-.7.3-1.1.4H580c-1.2 0-2.3.3-3.4-.3z"/>
  <path class="st3" d="M692.1 465.4c.1.4.2.9.1 1.3l-1.2 17.5-.2 1.7-1.1 19.3c-.4 6.6-1 13.1-1.5 19.7l-1.1 18.9c-.7.2-1.4.4-2.1.8a111 111 0 01-40.6 10.8c-5 .4-10-.4-14.9-1.1-9-1.4-17.8-4-26.1-7.8-2.3-1-4.6-1.8-7-2.7-.1-.6-.3-1.1-.3-1.7-.4-6.7-.7-13.5-1.2-20.2l-1.4-18-.1-1.3c-.4-6.4-.5-12.9-1.2-19.3-.7-5.8-.3-11.7-1.3-17.6-.1-.4.1-.9.1-1.3l.4.1a58.8 58.8 0 0024.1 7.7c4 .6 8.1 1.5 12.2 1.1.7-.1 1.5.1 2.2.3 1.7.6 3.5.6 5.2.5 6.9-.2 13.8.5 20.7-.8 3.3-.6 6.7-.3 10-.8a95.6 95.6 0 0026.3-7.1z"/>
  <path class="st5" d="M663.3 666.1l11 3.2 44.8 13.7c6.3 1.9 12.6 4 18.9 6.1 2.1.7 4.1 1.7 6.1 2.6 1.4.6 2.5 1.6 3.3 2.8.5.8.3 1.8-.5 2.3-1.6 1-3.4 1.6-5.3 2.2-6.1 1.9-12.3 3.2-18.5 4.3-10 1.8-20 3.5-30.1 4.6-8.8 1-17.5 1.9-26.3 2.7-24.7 2.3-49.4 1.8-74.2 1.5a293 293 0 01-22.9-1.4c-4.4-.4-8.8-.6-13.2-1.1-8-.8-16.1-1.7-24.1-3.1l-11.7-2.3c-2.2-.5-4.3-1.1-6.3-2.1-1.9-1-2.1-2.3-.6-3.9 1.5-1.7 3.5-2.7 5.5-3.6a128 128 0 018.6-3.4l37.5-13.2 29.6-10.4c1-.3 2-.5 2.8-1.3 1.3.1 2.7-.1 3.9.3 2.6.7 5.2.7 7.8.7h40c1.3 0 2.7.2 3.9-.1 3.6-1.2 6.8-.9 10-1.1z"/>
  <path class="st6" d="M443 412.7c3.1-1.4 6.5-1.9 9.8-2.5a74.6 74.6 0 0131.9 1.5c1 .2 1.8.9 2.8 1.3-1.3.9-1.6 2.5-2 3.8-1.8 6-2.9 12.3-3.6 18.5-.5 4.2-1.4 8.4-1 12.7.1.7-.1 1.5-.4 2.2-.4 1.3-.4 2.6-.5 3.9-.2 6.7.3 13.5-.8 20.2-.6 3.7-.1 7.6-.1 11.5 0 .4 0 .9.2 1.3l.6.5c.3.2.6 0 .7-.4l.3-2.6c.1-1.8-.3-3.6.2-5.3.8-3.1.7-6.1.8-9.2 0-1 .3-2 .4-3 .2-1.2.5-2.3.4-3.5-.2-3.8 1-7.5 1.2-11.4.2-3.5.9-7 1.6-10.4 1.2-6.2 2.1-12.4 4.3-18.4l2-5.4a51.2 51.2 0 0121.5 24.9 108.4 108.4 0 019.3 43.6c-.4 3.4-.4 3.4-3.6 3.5-2.1.1-4.2-.2-6.1.3-2.3.5-4.6.6-7 .6h-11c-1.2 0-2.4 0-3.5.3-2 .6-4.1.6-6.1.6h-37.9c-3.1 0-6.2.2-9.2-.7-.8-.3-1.8-.2-2.6-.1-8.7.5-17.3-.7-25.9-.9-2.2-.1-2.2-.1-2.9-2.9.9-1.3.8-2.8.8-4.2.4-13.2 3.3-25.9 8.4-38a54.3 54.3 0 0122.6-26.8l.2.9c2.5 7.1 4.7 14.2 5.8 21.7 1.2 8.3 2.8 16.5 3.1 24.9 0 1 .1 2.1.4 3 .5 1.6.5 3.2.5 4.8 0 1.3-.2 2.7.2 4 .8 2.8.6 5.5.7 8.3 0 .9.1 1.8.4 2.6.2.6.8.8 1.4.8.9-.1.8-.6.5-1.2-.8-1.4-.4-2.9-.5-4.3-.1-2.2.1-4.4-.6-6.6-.3-1.1-.2-2.3-.3-3.5-.3-8.4.3-16.7-.7-25.1-.7-5.8-1-11.7-1.8-17.5a112 112 0 00-4.9-18.3zm34.6 76.3v-.3l-.4.1.4.2z"/>
  <path class="st1" d="M771.1 504.4c-3.4.2-6.4-1-9.3-2.5a13.9 13.9 0 01-8.1-14c.2-4 1.1-7.9 2.6-11.6a56.5 56.5 0 018.7-14.8 83.2 83.2 0 0134.6-26 69 69 0 0157.4 2 84 84 0 0130.1 24.1c3.4 4.3 6.2 9 8.3 14a34 34 0 012.9 13.7c-.1 5-2.2 8.8-6.3 11.5-3.4 2.1-7 3.8-11.2 3.4l-.2-2.3c.4-.9.5-1.9.2-2.9.5-1.6.3-2.9-1.5-3.5l-2.9-1.1a123.4 123.4 0 00-33.9-7.6c-16.5-1.6-32.9-.9-49.2 2.5-7.1 1.5-13.9 3.5-20.6 6.4-1.7.7-2.1 1.9-1.6 3.5-.3 1.1-.2 2.3.1 3.4.1.6 0 1.2-.1 1.8zm45.2-39.9c-1.9 1.3-3.1.9-4.3 1-.9.1-1.8 0-2.6.2s-1.3.7-1.2 1.6c0 .9.6 1.5 1.3 1.5l13.2.1c.7 0 1.4-.5 1.5-1.3s-.2-1.5-1-1.7c-3.8-1-6-3.6-6.9-7.2-.3-1.3-1.2-1.5-2.3-1.5h-18.1c-1.7 0-2.7.9-2.5 1.8.3 1.3 1.4 1.3 2.4 1.3h13.7c1.1 0 2.3-.3 3.4.5-.8.6-1.7.5-2.5.5h-7.1c-.7 0-1.5 0-2.1.5-.5.4-.8.9-.7 1.5.1.4.5.9.8 1 .8.2 1.7.3 2.6.3l12.4-.1zm22-4.1c3-.4 5.4-.2 7.7-.2l11-.1c1.1 0 1.7-.7 1.6-1.6-.1-.9-.7-1.2-1.5-1.4l-1.3-.1h-17.7c-1.4 0-2.1.5-2.5 1.9a8.8 8.8 0 01-6.4 6.7l-.8.4c-.5.4-.8.9-.7 1.5s.6 1 1.1 1.2c.4.2.9.2 1.3.2h11.5c.4 0 .9 0 1.3-.2.5-.3.9-.7.9-1.4s-.4-1.3-.9-1.4c-1-.3-2-.2-3-.3-1-.1-2.2.3-3.5-1h10.7c1 0 2.1 0 3.1-.2.6-.1 1-.6 1.1-1.2.1-.8-.4-1.4-1.1-1.7-.5-.2-1.1-.3-1.7-.3h-4.9c-1.4-.2-3 .3-5.3-.8z"/>
  <path class="st3" d="M675.5 959.9l-23.4-9.3c-1-.4-1.9-.7-3-.5l-.2-24.4c3.4-2.6 7.2-4.5 10.9-6.7l58.8-34.2 7.6-4.4c1.8-1.1 3.4-1.2 5.3-.1 5.9 3.6 11.9 7 17.9 10.5l46.2 26.9 33.6 19.6c1.1.6 2.4 1.1 3.1 2.3-.3.9-1.1 1-1.7 1.2l-43.1 17c-1.2.5-2.5.7-3.8 1.1-1.1-.8-1.1-2-1.1-3.2v-8.4c-.1-6.9 1-5.8-6.3-9.3-.5-.3-1.1-.3-1.7-.6l-6.1-2.5a77.6 77.6 0 00-20-5.2c-4.5-.6-9-1.5-13.6-1-.8.1-1.8-.2-2.6-.4-2.3-.6-4.7-.7-7 0a13 13 0 01-4.4.5c-4.2-.4-8.2.5-12.3 1.1a93.7 93.7 0 00-30.9 10.2c-1.4.8-2.2 1.8-2.2 3.5v16.3z"/>
  <path class="st1" d="M956.7 489.1c-1.1-.3-2.3-.4-3.4-.8-2-.6-3.9-1.3-5.8-2.2-5.9-3-8.5-7.9-8-14.4.3-3.8 1.2-7.6 2.6-11.1a64.2 64.2 0 0111.2-17.9 81.5 81.5 0 0146.4-27.1 68 68 0 0139.8 4.7 82.7 82.7 0 0133 25.2 54.8 54.8 0 019.5 16.8 33 33 0 012 11.2c-.1 5.3-2.5 9.3-7 12a21.5 21.5 0 01-10.4 3.2l-.1.1-.1-1.4a7 7 0 00.1-3.2c.1-.6.1-1.2.3-1.7.3-1.8-.5-2.7-2.1-3.3l-4.1-1.6a137.9 137.9 0 00-44.5-7.7 160 160 0 00-33.8 2.6c-8 1.5-15.7 3.6-23.2 6.8-1.8.8-2.6 1.8-2.2 3.7l.2 1.3c-.2 1-.2 1.9.2 2.9l-.4 2.2-.2-.3zm55.1-60s0 .1 0 0l-7.1.1c-1.5.1-2.9.3-4.4.6-3.9.9-5.2 2.4-5.6 6.3l-.3 5.3c-.3 4.8 1.3 9 4.2 12.7 3.2 4.1 7.1 7.4 11.4 10.4 1.4 1 2.4.7 3.6-.2 3-2.1 5.9-4.4 8.5-7.1 5.5-5.5 7.7-12 6.8-19.7-.7-5.9-2.3-7.6-8.2-8.3a43.5 43.5 0 00-8.9-.1z"/>
  <path class="st7" d="M237.4 492c-2-.5-2.9-1.8-3.4-3.7-.9-3.2-.8-6.5-.4-9.7.6-5.8 1.6-11.6 3.2-17.3a71.3 71.3 0 0118.7-31.6 51.7 51.7 0 0124.7-13.9c14.7-3.6 28-.5 40.2 8.1a62 62 0 0117.9 20.5 79.2 79.2 0 0110.8 36.5c.2 2.5 0 5-.6 7.5-.4 1.9-1.3 3.2-3.3 3.7-4.4-.3-8.8.1-13.2-.9-5.1-1.1-10.4-1.6-15.6-2.4-3.3-.5-6.7-1.2-10-1.2-12.2.2-24.4-1-36.6.8l-14.8 2.1c-4.3.6-8.7 1.6-13.1 1.4l-4.5.1zm53.9-19.5h11c7.3-.2 12.6-5.7 12.6-13v-1.8c-.3-3.9-2.1-7-5.4-9.1a16 16 0 00-8.8-2.6h-18.5a21 21 0 00-6.1 1c-4.9 1.5-9.3 7.5-8.8 12.5.8 8.5 6.6 13.1 13.4 13h10.6z"/>
  <path class="st8" d="M489.8 339.3a46.6 46.6 0 01-14.9-11.5c-.5-.5-.9-1.2-1.3-1.8-2.8-4.1-3-8.1-.1-12.3 2.6-3.7 5.1-7.6 7.6-11.4l8.2-12a7.8 7.8 0 014.4-3.4l27.8-8.9a1135 1135 0 0019.7-6.4c2.2-.7 4.2-.8 6.4 0l30.6 10.2c5.9 1.9 11.7 3.9 17.6 5.7 2.1.6 3.6 1.8 4.8 3.6 4.8 7.1 9.8 14 14.2 21.3.9 1.5 2 3 2.3 4.7.6 3.1.3 6.2-1.7 8.8a31.7 31.7 0 01-6.6 7.1c-3 2.1-5.7 4.7-9.2 6.1-.6-.5-1-1.1-1-1.9.1-2-1.1-2.8-2.7-3.6a45 45 0 00-9.5-3.5 164 164 0 00-20.6-4.3c-3.6-.5-7.3-1.1-10.9-1-8.9.1-17.9-.9-26.8.8-3.6-.3-7 .6-10.5 1.1a118 118 0 00-24.6 6.7c-2.5 1-3.6 2.3-3.3 4.9.2.4.1.7.1 1zm40.9-48.6c-.5 2.8-.2 5.5-.3 8.3-.1 3.4 1 6.4 2.9 9.1 2.6 3.6 5.9 6.5 9.6 9 1 .7 1.9.6 2.8-.1 3.5-2.3 6.5-5 9.1-8.3 1.4-1.8 2.4-3.7 3-5.9.7-2.7.5-8.8-.4-12.3-.6.1-1.2 0-1.7.2-2.7 1-5.1.4-7.6-1.1-4.6-2.7-3.2-2.7-7.8 0a9.5 9.5 0 01-8 1.2l-1.6-.1z"/>
  <path class="st5" d="M282.8 326.2c-.1-2.8.6-5.6 1-8.3a2882 2882 0 015.2-28.7c1-5.6 3.2-10.7 5.9-15.6a33.4 33.4 0 0110.6-11.7c4.7-2.7 8.6-2.1 12.3 1.9 1.2 1.3 2.2 2.8 3.3 4.1 4 4.8 7.1 5.2 12.1 1.4a22 22 0 002.3-2l2.8-2.8c5.7-5.6 11.1-5.1 16.9-.4 3.2 2.6 5.7 5.9 7.7 9.6a56.7 56.7 0 016.5 18.2l4.6 28.3.9 5.7a51.1 51.1 0 01-18.4 10.1c-5.2 1.7-10.5 2.8-15.9 3.7l-1.3-2.3c-4.5-7.4-18.1-8-22 1.6-1.6.5-3.2.3-4.8 0a66.9 66.9 0 01-29.7-12.8z"/>
  <path class="st8" d="M814.3 341.7c-2.3-.9-3.4-2.5-3.8-4.9-.3-2.2-.5-4.4-.3-6.6a78.2 78.2 0 0114.6-41.9 57.2 57.2 0 0128.4-21.4c13.9-4.3 27-2.6 39.4 4.8 8.4 5 14.7 12.1 19.9 20.3 6.3 10 9.9 21 11.4 32.6.5 3.8.2 7.6.2 11.5 0 2.6-1.1 4.5-3.6 5.5-2.8 0-5.6-.4-8.3-.6-5.1-.4-10.1-1.6-15.2-2.1-5.1-.6-10.1-1.8-15.3-1.7l-1.3-.2c-1.8-.7-3.8-.6-5.7-.6-7.6.3-15.3-.8-22.9.8-5.9-.1-11.7 1.3-17.4 2.1-6.7 1-13.4 2.3-20.1 2.4zm53.4-45.2h-11.5a11 11 0 00-10.1 5.2c-2.3 3.2-3.4 6.9-2 10.8 1.4 4 3.7 7.3 8 8.7 1.6.5 3 1 4.7 1h21.1c5.7-.1 13.7-5.5 12.4-13.1v-1.3c.2-5.8-5.4-11.4-11.3-11.2l-11.3-.1z"/>
  <path class="st2" d="M675.5 959.9l.1-13.3v-3.1c0-1.7.7-2.7 2.2-3.5a93.7 93.7 0 0130.9-10.2c4-.6 8.1-1.5 12.3-1.1 1.5.1 2.9 0 4.4-.5 2.3-.7 4.6-.6 7 0 .8.2 1.8.5 2.6.4 4.6-.4 9.1.4 13.6 1 6.8.9 13.6 2.5 20 5.2l6.1 2.5 1.7.6c7.3 3.5 6.2 2.4 6.3 9.3v8.4c0 1.2 0 2.4 1.1 3.2-1.4 1.2-1.2 2.9-1.2 4.5V990.7c0 1.8-.3 2.7-2.7 1.5a107.2 107.2 0 00-45-11.4 107.1 107.1 0 00-53.7 10l-2.8 1.3c-2.2 1-2.6.8-2.7-1.5v-15c-.2-5.1-.2-10.4-.2-15.7z"/>
  <path class="st1" d="M513.2 609.8c4.2.2 8.2-.8 12.2-1.5a145 145 0 0125.5-2.5c1.6 0 3.3 0 4.8.3 6.7 1.1 10.4 6.5 9.4 13.1-.4 2.5-1.5 4.8-2.9 6.9a31.7 31.7 0 01-8.9 8.6 68.8 68.8 0 01-17.9 8.6c-9 3-18.2 4.9-27.5 6.2-19.9 2.7-40 2.9-60 1.6a169 169 0 01-42.9-7.8c-5.9-2-11.6-4.4-16.9-7.7a41.4 41.4 0 01-9.2-7.5c-2-2.2-3.6-4.7-4.6-7.5-2.6-7.5 1.5-13.9 9.3-14.6 5.6-.5 11.2-.2 16.8.6l17.5 2.7c2.3.4 4.6.8 7 .6.8 1.9.2 3.8.2 5.7 0 1.2.4 1.9 1.4 2.5 3.8 2.3 7.8 4.2 11.9 5.7a95.8 95.8 0 0059.1.9c5.1-1.6 9.9-3.7 14.4-6.5 1-.6 1.4-1.3 1.3-2.5-.1-2.1-.8-4 0-5.9z"/>
  <path class="st3" d="M1074.6 742.7c.2 5-2.1 8.7-5.4 11.8-3.1 3-6.8 5.2-10.7 6.9-2 .9-4.1 1.6-4.8 4.1-.2.7-1.1.9-1.9.6l-2-.9a98.8 98.8 0 00-30.1-8.1 190.3 190.3 0 00-60.2 3.2l-9.5 2c-2.6.5-3.1 0-2.7-2.8l.3-1.3c.4-2.4.3-2.6-2-2.8-5.5-.4-9.5-2.9-11.7-8a15 15 0 014.8-17.8c3.6-2.6 7.6-4.5 11.8-6 8-2.9 16.4-4.8 24.8-6.2a148 148 0 0114.9-1.9l2.6-.5c.8-.2 1.2-.9 1.1-1.7l-.5-3.5c0-.9.1-1.8.3-2.6.3-1.2 1.8-1.7 2.9-1 1.2.9 2.1 2.1 2.7 3.4l1.6 3.6c.4.9 1.1 1.4 2.1 1.3 1.8-.1 3.5 0 5.3-.3 2.2-.3 4.4-.4 6.6-.1 2.8.4 5.6.4 8.4.5 8.9.2 17.6 1.5 26.2 3.7a49 49 0 0113.8 5.7 27 27 0 019.9 11c1 2.6 1.5 5.2 1.4 7.7z"/>
  <path class="st9" d="M376.6 336.9a198 198 0 0025.6-4.2l18.1-3.9c1-.2 2-.3 3.1-.3 5.3-.1 8.1 3.5 6.8 8.7-1 4.1-3 7.6-5.6 10.9a73.5 73.5 0 01-22.9 19 132.5 132.5 0 01-46.2 15.3c-13.5 2.1-27 2.3-40.5 1.4a140.9 140.9 0 01-56.7-15.2 95.5 95.5 0 01-21.1-15.1 40 40 0 01-9-12.5c-.6-1.5-1.3-3-1.6-4.6-.9-4.2 1.7-7.6 6.1-8 1.6-.1 3.2 0 4.8.3l20.7 4.5c6 1.3 12.1 2.4 18.2 3.1 1.3.1 2.6.5 3.9.7-.1 2.8-.8 5.5-1.5 8.2-.3 1.5.1 2.6 1.2 3.5l1.8 1.2c2.4 1.8 5.2 2.7 7.7 4.3a96 96 0 0024.1 10.6 49.2 49.2 0 0021.7 1.6c6.5-.8 12.7-2.8 18.5-5.4 7.1-3.2 14.1-6.6 20.8-10.7 1-.6 1.8-1.4 2.7-2.2.6-.5 1-1.3.7-2-.6-2-.6-4.1-.8-6.1-.1-1.1-1-1.8-1.9-2.3.6-.2 1-.5 1.3-.8z"/>
  <path class="st3" d="M423.3 802.2c1.4-3 1.8-6.2 2.6-9.3 2.2-8.7 4.8-17.3 8-25.6a47 47 0 0139.1-30.9c3-.5 5.9.3 8.7 1a46.5 46.5 0 0133.5 29.2c4.6 11.5 7.9 23.4 10.4 35.5-2.9.7-5.8 1-8.7 1.4-3.9.5-7.8 1.5-11.8 1.5-.7 0-1.5 0-2.2.2-2.1.8-4.4.6-6.6.7-1.2 0-2.4-.2-3.5.2-3 .9-6.1.7-9.2.7h-16.3c-3.7 0-7.4.4-11-.8-.8-.3-1.8-.2-2.6-.1-4.4.4-8.7-1-13.1-1.1-3.8-.1-7.5-1-11.3-1.6l-6-1z"/>
  <path class="st7" d="M1000.2 1107.3c5 .7 10 .9 15 1.1 6.9.3 13.8.9 20.7 1.5l14.1 1.1c7.3.7 14.6 1.6 21.8 3.5 2.6.7 5.1 1.5 7.3 3.1a11 11 0 012.2 2.1c1.3 1.6 1 3.1-.8 4.1-1.1.6-2.4 1.1-3.6 1.6a106 106 0 01-19.2 4.9 629 629 0 01-27.5 4.3c-7.3 1-14.6 1.4-22 2.1-23.8 2.3-47.7 1.9-71.5 1.6-7.9-.1-15.9-.7-23.8-1.4-4.1-.4-8.2-.5-12.3-1l-18.9-2.1a312 312 0 01-23.5-4.1c-4.2-.9-8.3-2.1-12.3-3.5-1.4-.5-2.8-1-3.9-2-1-.9-1.3-1.9-.8-3.2a8.1 8.1 0 014.8-4.3c2.9-1.1 5.8-2.2 8.8-2.8 6.9-1.5 13.9-2.4 21-2.9l14.9-1.4 1.3-.1 21.6-1.1c2.8-.1 5.6-.4 8.3-1.2.3 1.2.7 2.3 1.9 2.8 2 .9 3.7 2.3 5.8 3.1a61 61 0 0012.7 3.4 107.3 107.3 0 0031.9.8c5.9-.7 11.6-1.8 17.1-3.9 3.4-1.3 7-2.6 8.9-6.1z"/>
  <path class="st3" d="M352.8 945.6c7.6 2.9 15.4 4.9 23.2 7.2 2 .6 3.9 1.3 5.8 2.2 2.4 1.1 3.3 3.1 3 5.8a11 11 0 01-1.9 4.9 26 26 0 01-11.7 9 98.6 98.6 0 01-24.9 7.2 203.3 203.3 0 01-31.1 2.9c-2.8 0-5.6.5-8.4.5-11 .1-22-.5-33-1.4a163 163 0 01-27.8-4.6 66.3 66.3 0 01-14.8-5.6c-3.1-1.7-6-3.8-8.4-6.4a13.4 13.4 0 01-3.1-6.3 5 5 0 012.1-5.4 57.6 57.6 0 019.5-3.5c7-1.7 13.8-4.1 20.6-6.4 2.7.6 5.4 1.4 8.2 1.6 6.3.5 12.4 2.1 18.8 2 .9 0 1.8 0 2.6.3 1.9.6 3.8.6 5.7.6h30.9c1 0 2.1.2 3.1-.1 4.4-1.4 9-.6 13.5-1.5 4.3-.8 8.7-1.1 13-1.9 1.6-.5 3.4-.8 5.1-1.1z"/>
  <path class="st1" d="M366.9 782.9l-8 38.4-.4 1.7c-.2 1.7-1.2 2.5-2.8 3a276.6 276.6 0 01-49.1 10.4c-7.4.8-14.7.3-22-.8-13.2-2-26.3-4.8-39.1-8.9-6.2-2-4.9-.9-6.4-7-2.7-11-5.2-22-7.8-33.1-.3-1.3-.6-2.6-.5-3.9 16.3 5.6 33 8.8 50.2 9.5 13.7.5 27.4.7 41.1-.4 13.4-1 26.5-3.5 39.4-7.4 1.8-.4 3.5-1.3 5.4-1.5zm-66.5 41.4a248 248 0 010-12.2c0-1.3.6-1.6 2.1-1.3.6.1 1.1.4 1.7.4 1.1 0 1.9-1 1.8-2.5 0-1.3-.7-2.2-1.7-2.1-.9 0-1.7.3-2.6.4-.9.1-1.5-.9-1.2-1.8.3-.9 1.2-1.3 1.6-2 .7-1.1 1.2-2.3.8-3.7-.6-1.8-2-3.1-3.8-3.2a4 4 0 00-4.1 2c-1 1.7-1 3.4.2 5l1.7 2c.5.8-.2 1.9-1.1 1.8l-2.6-.4c-.6-.1-1.2.2-1.5.8-.6.9-.7 1.9-.1 2.9.5.9 1.3 1.1 2.3.9l1.7-.5c.8-.1 1.5.2 1.5 1.1v11c0 1.1-.7 1.5-1.7 1.3-2.6-.6-4.6-2-5.7-4.4-.4-.8-.3-1.1.8-1.4l1.6-.3a65.4 65.4 0 00-5-6.1c-.8.2-1.1.7-1.3 1.3l-1.5 5.1c-.1.4-.3 1-.1 1.2.5.6 1-.1 1.4-.2.8-.3 1.2.2 1.4.7a10 10 0 003.1 4.2l4.3 3.1c1.5 1.1 2.8 2.4 4.4 3.8 2.2-2.6 4.6-4.4 7.2-6.1 1.6-1.1 2.9-2.5 3.7-4.3.6-1.3 1.2-1.9 2.6-1.1.6.4.7-.4.7-.7-.5-2.4-1.1-4.8-2.3-7.3-1.5 1.2-2.5 2.7-3.6 4-1.2 1.4-1.2 1.4.3 2.9.4.4.3.8.2 1.2-1.2 2.6-3.5 3.9-7.2 4.5z"/>
  <path class="st10" d="M759.8 630.7a13 13 0 01.2-5.2c.5-2.5.4-5 .1-7.5-.8-6.2-.9-12.3.3-18.4a26.8 26.8 0 0124.7-22c13.8-1.2 27.6-.6 41.5-.5 4.3 0 8.7.6 13 2a26.6 26.6 0 0118.1 24.3c.3 4.5.1 9.1 0 13.7a97 97 0 00.4 13.2c-1 .2-2 .5-3 .5-7.1-.1-14.1 1-21.1.9-20.1-.1-40.3.8-60.4-.6-4.7-.4-9.2-.3-13.8-.4zm89-26.4c-2.4 0-4.6 1.9-4.7 4.2-.1 2.2 2.1 4.5 4.4 4.5 2.6 0 4.6-1.8 4.6-4.2a4.3 4.3 0 00-4.3-4.5zM769 613c2.6 0 4.5-1.9 4.6-4.3 0-2.5-1.8-4.4-4.4-4.4-2.4 0-4.6 2-4.7 4.3-.1 2.3 2.1 4.4 4.5 4.4z"/>
  <path class="st6" d="M284.8 1102.1c.8-12.7 2.7-25.1 7.1-37.1a75.5 75.5 0 0111.4-21.3c2.8-3.5 5.9-6.6 9.6-9.1 4.1-2.8 8.7-4.4 13.6-4.7 4.2-.3 8.2.8 11.9 2.6 5.3 2.5 9.5 6.4 13.2 10.9a69.8 69.8 0 0110.9 19.6c3.9 10.1 6.3 20.5 7.2 31.3l.7 7.9-85.6-.1z"/>
  <path class="st1" d="M426.2 607.8c-.1-4 .7-7.9 1-11.9.7-7.9 1.6-15.8 2.5-23.7.6-5.1 2.7-9.6 5.9-13.6 1.3-1.6 2.9-3 4.7-4 3.8-2.1 7.6-2.2 11.3.1 1.9 1.2 3.6 2.6 5.4 3.9l6.4 4.7a8 8 0 009.1.3c2.2-1.3 4.3-2.5 6.4-3.9 2.2-1.4 4.3-3 6.6-4.4 5.7-3.4 10.9-2.9 15.7 1.7a25.7 25.7 0 017.8 16.8c1 9.5 1.8 19 2.7 28.6.2 1.8.2 3.5.2 5.3-6.7 5-14.3 8-22.4 9.9a88.8 88.8 0 01-32.9 1.5 64.1 64.1 0 01-30.4-11.3zm31.8-20.6c-.9-.2-1.6.1-1.8.9-.2.8.3 1.6 1.1 1.6 2.2.1 3.2 2 4.6 3.1 1.2 1 1.5 2.1 1.1 3.5-.6 1.9-.3 4.1-2.1 5.6-.5.4.1 1.5.7 1.8.7.3 1.3 0 1.5-.5.8-2.3 3-2.6 4.7-3.7 1.1-.7 2.1-.8 3.3-.1 1.8 1.1 4.1 1.6 5 4 .2.5 1 .6 1.5.2.6-.5 1-1.3.4-1.9-1.9-1.5-1.5-3.7-2.1-5.7-.4-1.2-.1-2.3.9-3.2 1.6-1.5 2.9-3.3 5.3-3.6.6-.1.8-.8.6-1.4-.2-.6-.8-1.2-1.3-.9-2.1 1.1-4.3.4-6.5.3-1.1-.1-2-.6-2.4-1.7-.8-2-2.5-3.7-1.9-6.1.2-.8-.7-1.4-1.5-1.2-.6.1-1 .5-1.1 1.1v.4c-.2 5.5-2 7.4-7.2 7.8-.9.3-1.9.2-2.8-.3z"/>
  <path class="st3" d="M253.7 931.4c.2-4.9 1.6-9.6 2.8-14.3a88 88 0 017-18.5c2.1-4.1 4.9-7.7 8-11.1 3.4-3.6 7.4-4.5 12-3.7l11.7 2c4.4.7 8.8.7 13.2 0l11.7-2 .9-.1c4.5-.8 8.3.4 11.5 3.9 3.8 4 6.8 8.5 9.2 13.4a103.5 103.5 0 019 31.2c-1.8.1-3.6-.1-5.3.2a118 118 0 01-20.9 2.5c-2.7 1-5.5.6-8.3.7-4.5.2-9.1-.6-13.6.7h-1.3c-4-1.3-8.2-.5-12.3-.7-2.5-.1-5.1.4-7.5-.2-4.2-1.1-8.4-.6-12.6-1.4-4.8-.8-10-1.4-15.2-2.6z"/>
  <path class="st6" d="M933.9 852.5l3.4-19.5c.6-2.9 1.5-5.7 2.3-8.5 1.6-5.6 5.4-9.3 10.3-12.1a62 62 0 0126.4-7.9c3.1-.4 6.2.3 9.2.7 6.4 1 12.6 2.8 18.6 5.5 2.3 1 4.5 2.3 6.5 3.8 3 2.3 5.3 5 6.6 8.6a88 88 0 013.8 14c.9 4.9 1.6 9.9 2.4 14.8-3.9 1.2-8 1.9-12 2.6-4.6.8-9.2 1.6-13.9 2-5.8.6-11.6 1.3-17.5 1.4-4.6.1-9.1-.3-13.6-.7a223 223 0 01-20-2.5c-4.1-.6-8.3-1.4-12.5-2.2z"/>
  <path class="st11" d="M284.8 1102.1h85.6l15.5.1h38.4c1.6.1 2.2.5 2.5 1.9a20 20 0 01-.5 13.4l-3.3-2.9-5.9-5.9c-1.4-1.3-1.9-1.3-3.3.1-3.1 3.1-6.3 6.2-9.3 9.4-1.6 1.7-2.9 3.6-4.4 5.4l.9.6c1.8.4 3.1-.4 4.3-1.6a224 224 0 018.4-8.5c1.5-1.5 2.1-1.5 3.7.1l7.3 7.7-.9 1.8-2.6-2.3-4-4.7c-1-1.1-1.8-1.2-3-.2-2.2 1.9-3.9 4.3-5.7 6.7-.1.1 0 .6.1.7.2.2.6.2.8.2.4-.1.8-.3 1.1-.6l3.5-3.4c1.4-1.3 1.9-1.3 3.3.1 1.8 1.7 3.5 3.5 5.6 5l-.8 1-6.2-.1H239l-5.7.1a7.4 7.4 0 01-2.4-3.6l3.6-3.3 5.3-5.3c1.2-1.2 1.9-1.2 3-.1a30 30 0 013 3.2c1.6 2.2 3.6 3.9 5.4 5.8.6.6 1.3 1.2 2.2 1.4.9.1 1.9.3 2.5-.4.7-.9-.3-1.6-.8-2.2l-1.2-1.3c-3.7-4-7.9-7.5-11.2-11.8-.7-1-1.7-1-2.6 0-3.5 3.6-7.2 6.9-10.4 10.8a21 21 0 01-1-15c.3-1.4 1-1.9 2.5-1.9h48.5c1.6-.3 3.4-.3 5.1-.4zm39.4 22.1h.4c.4-.1.9-.2 1.1-.5s.1-.9-.1-1.2l-1.8-2-8.3-8.5-3.2-3.7c-.7-.8-1.5-.8-2.3-.1l-1 .9-12.1 12.2-1.1 1.4c-.3.5 0 1.2.6 1.3a4 4 0 004-1.2c2.4-2.6 5.1-4.8 7.3-7.7.5-.7 1.1-1.4 1.8-1.9.7-.7 1.6-.7 2.4-.1 1.4 1.1 2.5 2.4 3.7 3.8 1.7 2 3.6 3.9 5.4 5.8.9 1.1 1.9 1.6 3.2 1.5zm36.6-.3c.2-.8-.3-1.2-.7-1.6l-4.7-5.3c-2.6-3-5.5-5.7-8.3-8.5-1-1-1.7-1-2.7-.1l-2.2 2.2-10.5 11.3c-.5.6-1.7 1.1-.9 2.1.6.7 1.7.4 2.5.2 1.1-.2 1.7-1.1 2.5-1.8 2.7-2.7 5.3-5.5 8.1-8.1 1.6-1.6 2.1-1.6 3.7-.1l2.5 2.5 6.2 6.3c1.3 1.2 2.8 1.7 4.5.9zm33.1.3c.7 0 1.3 0 1.7-.6.4-.6 0-1.2-.4-1.6l-11.4-11.6c-2.7-2.7-3.3-4.5-6.5.2-.7 1-1.6 1.8-2.4 2.6l-7.4 7.6-1.7 2c-.4.5 0 1.2.7 1.3 1.4.3 2.7.2 3.7-.9 1.6-1.7 3.3-3.3 4.8-5.2 1.4-1.7 2.9-3.3 4.6-4.8.8-.7 1.7-.6 2.4 0 1.4 1.1 2.5 2.4 3.7 3.8 1.7 2 3.6 3.9 5.4 5.8a3 3 0 002.8 1.4zm-133.3-.4c2 .8 3.5.3 4.8-1.1l5-5 4.4-4.3c.6-.6 1.4-.6 2-.1l2.2 2.1 7.1 7.2c1.1 1.1 2.3 1.7 3.9 1.5.3 0 .8-.2.8-.3 0-.4 0-.9-.2-1.2-4.3-4.6-8.3-9.5-12.9-13.8-1.7-1.6-2.1-1.6-3.7-.1l-1.9 1.9-11.1 11.9-.4 1.3zm84.9-4.7c.4.1.9.2 1.2.5l3.2 3c.6.6 1.2 1.3 2.1 1.5l.8-.2v-.7l-6.2-6.9c-.6-.6-1.4-.6-1.9 0l-6.2 6.9v.7c.2.2.6.3.8.2a7 7 0 001.8-1.2l3.2-3.1 1.2-.7zm-97.5 4.4l-.1-.8c-1.8-1.9-3.6-3.9-5.5-5.7-.9-.9-1.9-.9-2.8-.1l-5.6 5.7c-.3.3-.3.8 0 1.2.5.5 1.2.4 1.6 0l2-2.3c2.8-3.1 3.6-3.3 6.3-.4l2.2 2.2c.3.3.7.5 1.1.6.3 0 .6-.3.8-.4zm139.7.1c0-.3.1-.6 0-.8a41.1 41.1 0 00-5.8-6c-.7-.6-1.7-.6-2.4 0l-6.2 6.2c-.1.1-.2.6-.1.8.3.4.8.4 1.2.2l2-1.6 2.9-2.7c1-.8 1.9-.8 2.8-.1l3.2 3c.5.5 1.1.9 1.8 1.3l.6-.3zm-77.3-4.6c1.1-.1 1.7.3 2.2.8l4.2 3.9c.2.1.6.2.8.1.5-.2.5-.8.2-1.1l-5.5-5.7c-1-1-2-1-3.1.1l-5.2 5.3c-.2.2-.3.9-.2 1.2.5.6 1.1.3 1.5-.1l3.8-3.6c.4-.5 1-.7 1.3-.9zm-27.3 4.8c0-.1.1-.3 0-.4-1.8-2.5-4.1-4.5-6.4-6.6-.4-.4-1.1-.5-1.6-.1-2.3 2-4.5 4.1-6.4 6.5-.2.3-.1.6.2.7l.4.1c.8 0 1.3-.5 1.9-1l3.4-3.4c.7-.7 1.6-.8 2.3-.1l3.2 3c.6.6 1.2 1.3 2.2 1.4.3.2.5 0 .8-.1z"/>
  <path class="st12" d="M237.4 492l4.4-.1c4.4.2 8.7-.8 13.1-1.4l14.8-2.1c12.2-1.8 24.4-.6 36.6-.8 3.3-.1 6.7.7 10 1.2 5.2.7 10.5 1.3 15.6 2.4 4.4.9 8.8.6 13.2.9-.7 6.1-1.4 12.3-1.3 18.5 0 5.6-3.3 9.8-8.6 11.5-1.8.6-3.7.9-5.6.9-6.5.1-12.9.1-19.4-.7a155.5 155.5 0 00-38.7.2c-6.6.8-13.2.8-19.8.3a19 19 0 01-4.7-1.1c-5-2-7.8-5.7-7.9-11.1v-.9c0-6-.7-11.8-1.7-17.7z"/>
  <path class="st13" d="M814.3 341.7c6.8-.1 13.4-1.4 20.1-2.4 5.8-.9 11.5-2.2 17.4-2.1 7.6-1.6 15.3-.6 22.9-.8a14 14 0 015.7.6c.4.2.9.2 1.3.2 5.2-.1 10.2 1.2 15.3 1.7 5.1.6 10.1 1.7 15.2 2.1 2.8.2 5.5.6 8.3.6-1 5.5-.9 11.1-1 16.7 0 1.7-.4 3.5-.8 5.2-1 3.6-3.8 5.5-6.9 7-1.3.6-2.8.9-4.3 1.1-2.5.3-5 0-7.5.7-.1 0-.3.1-.4 0-4.6-1-9.4-.3-14.1-1.1-.6-.1-1.1-.3-1.7-.3-7.2-.3-14.4-1.7-21.6-.8-5.1.6-10.3.2-15.4 1.4-1.4.3-2.9.2-4.4.2l-6.2.4c-3.7 0-7.3-.3-11-.8-2.5-.3-4.6-1.9-6.5-3.6-1.2-1.1-2.1-2.5-2.5-4.1s-.9-3.2-.8-4.8c.2-5.7-.5-11.4-1.1-17.1z"/>
  <path class="st4" d="M232.3 618.7a81.6 81.6 0 0113.9-36.7 47.1 47.1 0 0130.1-18.5 47 47 0 0143.5 13.7 52 52 0 0111.2 17.3c3.1 7.3 5.2 15 6.6 22.8v1.3l-.4-.1c-4.4-.8-4.5-.8-4.7-5.1-.2-4-2.1-6.6-6-7.8a52 52 0 00-13-2.1c-3.5-.2-7 .2-10.6.6-5.5.7-10.3 2.3-13.9 6.7-1 1.2-2.4 1.6-3.9 1.6-2 .1-3.4-.8-4.6-2.2-3.4-4-7.9-5.4-12.9-6-.9-.1-1.8-.1-2.6-.3a49.6 49.6 0 00-18.8.9c-6.8 1.5-7.9 2.9-8.9 9.6-.5 3.3-.5 3.3-3.6 3.9-.5.3-.9.3-1.4.4z"/>
  <path class="st1" d="M231.7 780.3h1.3a135 135 0 0115.6-3.3 5 5 0 003.7-2.1c2.1-2.9 4.5-5.4 7.1-7.8a56.6 56.6 0 0185.5 7.4c1 1.6 2.5 2.2 4.4 2.5 4.1.6 8.1 1.5 12.1 2.4 1.6.3 3.2.7 4.6 1.6a174.7 174.7 0 01-47.5 9.3c-6.8.4-13.5.3-20.3.4-10.3.2-20.6-.3-30.9-1.4a163.1 163.1 0 01-33.1-7.3c-1-.5-2-.7-2.5-1.7z"/>
  <path class="st6" d="M1024.9 856.1c12.9.5 25.8.6 38.7-.3 4.7-.4 9.4-.4 14.1-.4 3 0 5.8.6 8.3 2.5.3.7.9 1 1.6 1.1v3.5c-.1.7-.4 1.5-.8 2a11.2 11.2 0 01-4.8 3.8c-4.2 1.4-8.3 3.1-12.7 3.8-9.5 1.6-19 3.5-28.8 3.7-.6 0-1.2 0-1.7.2-2.1.8-4.4.6-6.6.6-2.4 0-4.8-.3-7 .2-2.9.6-5.8.6-8.8.7-6.5.2-12.9-.6-19.4.8-.7.2-1.5.1-2.2.1H963c-1.2 0-2.4.1-3.5-.2-2.5-.8-4.9-.6-7.4-.7h-12.8c-1.2 0-2.4.1-3.5-.2-2.7-.8-5.5-.6-8.3-.7-1.8 0-3.6.1-5.3-.3-2-.5-4.1-.6-6.1-.6-1.3 0-2.7 0-3.9-.3-1.6-.4-3.2-.5-4.8-.5-1 0-2.1-.1-3.1-.3l-14.3-2.3c-5.5-.8-11-2.1-16-4.6-2.9-1.4-5.5-3.5-5.7-7.2 0-.2.2-.4.4-.6.7-.1 1.2-.4 1.4-1.1 2.8-2.5 6.4-2.7 9.8-3.1 1.7-.2 3.5-.1 5.3.1 11.4 1.1 22.8.8 34.3.8l12.7-.1c0 2.1-.6 4-1 6.1-.4 2-.2 3.2 2.4 3.7 5.9 1.1 11.8 2.1 17.8 2.8 5.7.7 11.3 1.5 17.1 1.6l22.5-.1c1.2 0 2.4 0 3.5-.2 4.4-.5 8.7-.9 13.1-1.6 5.7-.8 11.3-1.8 16.9-2.8 1.7-.3 2.2-1.1 1.8-2.8-.5-2.5-1.3-4.7-1.4-7.1z"/>
  <path class="st4" d="M238.1 713.8l-1.2.6c-1.7.6-2.6.4-3.3-1.1-1.3-2.7-1.6-5.6-1.9-8.5-1-9.5-.8-19.1-.9-28.7l-.1-40.2.2-5.3 3.8-.9c4.7-1.2 4.8-1.2 7.1 2.9 2.3 4 5.7 6.4 10.2 6.8 6.3.7 12.3-.3 18.1-2.7.9-.4 1.8-1 2.6-1.6 2.2-1.7 3.4-4 4.4-6.5l2.7-6c.6-1.2 1.3-2.3 2.3-3.2 1.9-1.8 4.2-1.7 5.7.3a49.9 49.9 0 015.2 10.2c1.6 4.2 4.7 6.6 8.9 7.9 5 1.5 10 2.1 15.2 1.8 2.9-.2 5.4-1.4 7.5-3.3a20 20 0 004-5.2c1.2-2.2 1.8-2.4 4.3-1.9l5.6 1.2a9 9 0 01.7 4.3c0 18.7.2 37.3-.1 56-.1 6.3-.1 12.6-1.4 18.9l-.6 2.6c-.6 2.1-1.9 3.2-4.2 2.8a16.4 16.4 0 01-2.1-6.7c-.4-3.7-.8-7.3-.9-11l-.4-40.2c0-4.5.2-3.6-4-4.8l-1.3-.2a218.2 218.2 0 00-79 0c-1.6.3-3.1.6-4.6 1.3v5.1c-.1 12.2 0 24.5-.2 36.7-.2 6.2-.4 12.5-2.3 18.6z"/>
  <path class="st11" d="M868.2 860.4c.2 3.8 2.7 5.8 5.7 7.2 5 2.5 10.5 3.7 16 4.6l14.3 2.3c1 .2 2 .3 3.1.3 1.6 0 3.2.1 4.8.5 1.3.3 2.6.3 3.9.3 2.1.1 4.1.1 6.1.6 1.7.4 3.5.2 5.3.3 2.8.1 5.6-.2 8.3.7 1.1.3 2.3.2 3.5.2H952c2.5 0 5-.1 7.4.7 1.1.3 2.3.2 3.5.2h31.8c.7 0 1.5.1 2.2-.1 6.4-1.5 12.9-.6 19.4-.8 2.9-.1 5.8 0 8.8-.7 2.3-.5 4.7-.2 7-.2 2.2 0 4.4.2 6.6-.6.5-.2 1.2-.2 1.7-.2 9.7-.2 19.2-2.1 28.8-3.7 4.4-.7 8.5-2.3 12.7-3.8 2-.7 3.5-2.2 4.8-3.8.4-.5.7-1.3.8-2v-3.5c2.6 1.7 3 4.2 2.2 7-.5 1.9-1.6 3.4-2.9 4.9a37.6 37.6 0 01-11.9 8.3c-9.4 4.4-19.4 7-29.5 9a280.2 280.2 0 01-35.5 4.6c-12.6.8-25.3 1.9-38 1.3-8.8-.4-17.7-.6-26.5-1.3a295.5 295.5 0 01-39.8-5.6c-8.9-2-17.7-4.6-25.9-8.7-2.8-1.4-5.4-3-7.8-5a15 15 0 01-4.9-6.2c-.7-2.4-1-4.8 1.2-6.8z"/>
  <path class="st12" d="M1054.9 276.2c.5.9 1.2 1.7 1.6 2.6l19.9 38.9c2.3 4.5 2.3 4.6-.5 8.8a79.3 79.3 0 01-18.6 19.3 83.4 83.4 0 01-24.8 13.2l-2.5.8a18 18 0 01-12.1 0c-5.3-1.8-10.6-3.4-15.3-6.6.3-.7.4-1.6.8-2 1.9-1.5 2.9-3.6 4.3-5.5l8.6-11.2c2.2-2.8 4.2-5.6 6.6-8.3a229.7 229.7 0 0029.7-46.4c.6-1.2 1.1-2.6 2.3-3.6zm-36.3 78.8h1.8c.7 0 1.6.2 2-.5.6-1.1-.7-1.3-1.2-1.9l-.9-.9c-1.1-2.6-3.2-3.1-5.8-2.9-1.9.2-3.8.1-5.7.1-.4 0-.9.1-1 .7-.1.5.2.8.6.9.8.3 1.6.4 2.2 1.2 2 2 5.2 3.3 8 3.3zm10.9.2c2.3.7 4.5-2 7.2-2.6.6-1.5 2-2 3.3-2.5.3-.1.4-.5.1-.7-.2-.2-.4-.5-.6-.5l-8.8-.1c-.5 0-1.3.3-1.5.7-1.1 1.6-2.3 3-3.7 4.2-.3.3-.1.9.4 1l3.6.5z"/>
  <path class="st9" d="M967.3 967.3c2.1-1 4.4-1.4 6.8-1.4h7.4c2.5 0 4.9.3 7.2 1.4l-.1 2.6v63.5c.1 1.8.6 2.3 2.5 2.4h10.6c1.8 0 3.6.2 5.3-.2 2.8-.7 5.5-.6 8.3-.6 2.6 0 5.4.3 7.9-.2 3.2-.6 6.4-.7 9.6-.7.2.7.6 1.4.7 2.1a647.3 647.3 0 01.6 14.7c-3.9 0-7.9-.4-11.8.7-.8.2-1.8.1-2.6.1h-7.9c-2.1 0-4.1 0-6.1.6-1.2.4-2.6.3-3.9.3h-47.2c-1.3 0-2.7.1-3.9-.2-2.3-.7-4.6-.6-7-.6-3.2 0-6.5.4-9.7-.2-4.1-.7-8.2-.7-12.3-.7-.2-3.5-.4-7 .4-10.5.5-2.1-.2-4.4.9-6.4 2.4.1 4.8-.2 7 .3 2.8.6 5.5.6 8.3.7 3.8.1 7.6-.3 11.4.8.8.2 1.8.1 2.6.1h10.2c4.9 0 4.9 0 4.9-4.9v-2.6-52.1l-.1-9zm47.4 76.6c.1-2.1-2.1-4.3-4.2-4.2-1.8 0-3.9 2.2-3.9 4.1s2 3.9 4 4c1.9 0 4-1.9 4.1-3.9zm-57.1.8a4 4 0 003.7 4.1c2 .1 4.2-2.3 4.1-4.3-.1-1.9-2.1-3.8-4.2-3.8-2-.1-3.6 1.7-3.6 4zm73.4-1.3a3.8 3.8 0 00-3.7-4 3.9 3.9 0 00-4.2 4c0 2.2 1.7 3.8 3.9 3.8a4 4 0 004-3.8zm-82.1.4c0-2.3-1.9-4.3-4.1-4.2-1.8.1-3.8 2.3-3.8 4.2.1 1.9 2 3.8 4.1 3.9 2 .1 3.7-1.7 3.8-3.9zm32.7-32.7c0-2.3-1.9-4.3-4.1-4.2-1.8.1-3.8 2.3-3.8 4.2.1 1.9 2 3.8 4.1 3.9 2.1.1 3.8-1.7 3.8-3.9zm0 33.4c-.1-2.2-1.8-4-3.8-3.9s-4 2-4 3.9c0 2.1 2.2 4.1 4.3 4.1 2 0 3.6-1.8 3.5-4.1zm8.8 0c0 2.3 1.5 4.1 3.6 4.1 2.2.1 4.3-2 4.3-4.1-.1-1.9-2-3.8-4-3.9a3.8 3.8 0 00-3.9 3.9zm-8.8-66.3c0-2.3-1.6-4.1-3.6-4.1-2.1 0-4.2 2.2-4.2 4.2s1.8 3.6 4.1 3.6c2.4 0 3.7-1.3 3.7-3.7zm-48.9 65.2a4 4 0 00-3.8-4.1 4 4 0 00-4 3.8c-.1 2.3 1.5 4 3.7 4 2.1.2 4-1.5 4.1-3.7zm45.1-19.9a3.9 3.9 0 00-4 3.8c-.1 2 1.8 3.9 3.9 4 2.1.1 3.9-1.6 3.9-3.8 0-2.3-1.6-4-3.8-4zm.3-25c2.1-.1 3.7-2 3.5-4.2s-1.9-3.7-4.2-3.6a4 4 0 00-3.6 4.2c.2 2 2.2 3.7 4.3 3.6z"/>
  <path class="st3" d="M1065.6 496.4c-.1 2.7-1.8 4.6-3.4 6.4-3.7 4.2-8.4 7-13.3 9.2a87.6 87.6 0 01-29.8 7.4c-3.4.3-6.7.9-10.1.7-8.4-.4-16.7-1.3-24.8-3.6a56 56 0 01-20.3-10.4 26.6 26.6 0 01-5.1-6 6 6 0 01-1.2-3.7c5.1-1.5 10.1-3.2 15.2-4.4 10.3-2.3 20.6-4.7 31.3-4.5 1 0 2-.2 3-.4 2.9-.6 5.8-.7 8.7 0 1.3.3 2.6.5 3.9.4 4.5-.4 8.8.5 13.1 1.1 6.1.8 12.1 2.3 18.1 3.7 5.1 1.2 9.9 2.7 14.7 4.1z"/>
  <path class="st8" d="M879.9 512.3c-.3 2.2-1.6 3.7-3 5.3a40.3 40.3 0 01-14 9.8c-8.6 3.9-17.7 6-27.1 7.2a89 89 0 01-44.6-5.3 49 49 0 01-12.8-7.7c-2.9-2.5-5.6-5.3-6.4-9.2 7.3-2 14.6-4.3 22.1-5.8 6.5-1.3 13-2 19.5-3 9.8.4 19.6-.7 29.4.8a231 231 0 0118.5 3.3c6.2 1.3 12.3 3 18.4 4.6z"/>
  <path class="st12" d="M1000.2 1107.3c-1.9 3.5-5.5 4.8-8.9 6.1-5.5 2-11.2 3.2-17.1 3.9-4.7.6-9.3.6-14 .8-6 .2-11.9-.7-17.9-1.6a70 70 0 01-12.7-3.4c-2.1-.8-3.8-2.2-5.8-3.1-1.2-.5-1.6-1.7-1.9-2.8.5-3.6 2.3-6.7 4-9.7A42.4 42.4 0 01944 1080c13-6.4 25.7-5.4 37.7 2.3a42.5 42.5 0 0118.5 25z"/>
  <path class="st2" d="M598.4 348.8c.3 1.9-.6 3.4-1.6 4.9a28.4 28.4 0 01-9.4 8.5 63.8 63.8 0 01-17.8 7.6 98.2 98.2 0 01-31.4 3.5 78.8 78.8 0 01-32.7-8 36 36 0 01-10.9-8.1c-2.1-2.4-4.3-4.9-4-8.5l3.5-.4c4.8-.7 9.5-1.7 14.3-2.2 4.8-.4 9.6-1.4 14.5-1.1.7.1 1.4-.2 2.2-.3 1.3-.2 2.6-.4 3.9-.4h30.5c1 0 2.1 0 3.1.3 2 .6 4.1.5 6.1.6 1.2 0 2.4-.1 3.5.1 5.8 1.1 11.6 1.2 17.4 2.4 2.9.5 5.8 1.3 8.8 1.1zM423.3 802.2l6.1 1c3.8.6 7.5 1.4 11.3 1.6 4.4.1 8.7 1.5 13.1 1.1.9-.1 1.8-.2 2.6.1 3.6 1.1 7.3.7 11 .8h16.3c3.1 0 6.2.2 9.2-.7 1.1-.3 2.3-.1 3.5-.2 2.2 0 4.4.1 6.6-.7.7-.2 1.5-.2 2.2-.2 4 0 7.8-1 11.8-1.5 2.9-.4 5.8-.7 8.7-1.4.9.1 1.8.2 2.1 1.3a79.8 79.8 0 012.8 16.1c.1 2.9-.1 3.2-3.1 3.8-4 .8-8.1 1.5-12.2 2l-19.7 2.4h-.4c-8.5.2-17 1.6-25.6.9-6-.5-12-.7-18-1.3-9.2-.9-18.4-2.2-27.5-3.8l-1.8-.2c-2.9-.6-3.2-1-3.2-3.8.1-5.5 1.3-10.8 2.7-16.1.1-.7.7-1.1 1.5-1.2zM687.1 560.5c5.5-2.7 10.2-6.4 15.2-9.8l4.5-2.8c.6-.4 1.4-.6 2.1-.7 1.3-.3 2.7.8 2.8 2.1.2 1.9 0 3.8-.5 5.7a41.2 41.2 0 01-20.7 25.8 85 85 0 01-24.6 8.3c-5.3 1.1-10.8 1.6-16.2 2.1-6.7.6-13.3.2-19.8-.3a93 93 0 01-37.9-10.8 40.8 40.8 0 01-19.3-24.3c-.7-2.1-.8-4.3-.6-6.6a2.3 2.3 0 012.8-2.1c1.9.4 3.5 1.5 5.1 2.6l13.5 9.2 3.5 2c.5 1.1.9 2.2.8 3.4-.1 2 1 3 2.6 3.6l8.6 3.5a87 87 0 0032.7 6.4c3.2-.1 6.5.1 9.7-.3 10.3-1.4 20.2-4.2 29.6-8.3 5.7-2.5 5.9-2.2 6.1-8.7z"/>
  <path class="st7" d="M1054.9 276.2c-1.2 1-1.6 2.4-2.3 3.8a226.2 226.2 0 01-29.7 46.4c-2.3 2.7-4.4 5.5-6.6 8.3l-8.6 11.2c-1.4 1.8-2.4 4-4.3 5.5-.5.4-.6 1.3-.8 2l-2.4-1a87.6 87.6 0 01-26.4-23.2c-1.1-1.4-2-2.9-3-4.4-1.2-1.8-1.2-3.5-.2-5.4l5.2-10.2 15.3-29.9c.7-1.4 1.2-3 2.5-4.1.2.9.2 1.8.5 2.6a209.5 209.5 0 0025.2 42.2c2.9 3.8 2.9 3.5 5.9.4.5-.5 1.1-1 1.5-1.6l6.6-9.4c4.8-7.1 9.1-14.4 13.3-21.8 2.4-4.4 4.5-8.9 6.3-13.5 1.3.2 1.7 1.1 2 2.1z"/>
  <path class="st5" d="M967.3 967.3l.1 8.8v54.7c0 4.9 0 4.9-4.9 4.9h-10.2c-.9 0-1.8.1-2.6-.1-3.8-1.1-7.6-.7-11.4-.8-2.8 0-5.5 0-8.3-.7-2.3-.5-4.7-.2-7-.3 0-3.7.8-7.3 1.4-10.9l.9-5.6c.4-1.1 1-2.1 1.3-3.3a88.2 88.2 0 0110.4-24.7l.5-1.2c2.9-3.2 5.6-6.7 8.8-9.7a45.5 45.5 0 0121-11.1zM1032.8 1034c-3.2 0-6.4.1-9.6.7-2.5.5-5.3.1-7.9.2-2.8 0-5.5-.1-8.3.6-1.7.4-3.5.2-5.3.2h-10.6c-1.8 0-2.3-.6-2.5-2.4v-2.2-61.3l.1-2.6a40.3 40.3 0 0119.3 9.7c3.2 2.8 6.2 5.8 8.7 9.3.5.7 1.2 1.3 1.8 1.9.3.7.5 1.4.9 2 3.6 5.6 6 11.7 8 18l2.9 9.2 2 11.1c.4 1.9.6 3.7.5 5.6z"/>
  <path d="M687.1 560.5c-.2 6.5-.3 6.2-6.2 8.7-9.5 4.1-19.4 7-29.6 8.3-3.2.4-6.5.2-9.7.3a87.4 87.4 0 01-32.7-6.4l-8.6-3.5c-1.6-.7-2.8-1.6-2.6-3.6a6 6 0 00-.8-3.4c.2-4.9 0-9.9-.4-14.8v-2.2c2.3.9 4.7 1.6 7 2.7a99.4 99.4 0 0026.1 7.8c4.9.7 9.9 1.6 14.9 1.1 8.2-.7 16.3-1.9 24.2-4.5 5.6-1.9 11.1-3.7 16.4-6.3l2.1-.8c.7.9.6 1.9.5 2.9-.8 4.6-.6 9.2-.6 13.7z" fill="#7a2127"/>
  <path class="st2" d="M692.1 465.4l-6.9 2.8a90.6 90.6 0 01-19.2 4.4c-3.4.5-6.8.2-10 .8-6.9 1.3-13.8.5-20.7.8a13 13 0 01-5.2-.5c-.7-.2-1.5-.4-2.2-.3-4.2.4-8.2-.5-12.2-1.1a58.8 58.8 0 01-24.1-7.7l-.4-.1c-.5-2.2.4-4 1.9-5.6a16 16 0 014.7-3.3c4.4-2.2 9.1-3.4 13.9-4.3 5.2-1 10.5-1.5 15.7-2a162 162 0 0152.1 3.8 31 31 0 019.6 4.4c2.6 1.9 4 4.4 3 7.9z"/>
  <path class="st4" d="M937.5 988.2c-.2.4-.2.9-.5 1.2-4.9 7.6-8 16-10.4 24.7-.3 1.1-.9 2.2-1.3 3.3a72 72 0 01-46-57c-2.3-14-.3-27.5 5.4-40.5 1.1-2.6 2.5-5 3.8-7.5.3-.6.6-1.4 1.6-1.4.1.4.2.8.1 1.2-1 4.5-1.1 9.1-1.3 13.6a78.7 78.7 0 009.5 38.6c3.3 6 7.5 11.2 13 15.4 5 3.8 10.7 6.1 16.8 7.4 3.1.6 6.2.9 9.3 1z"/>
  <path class="st13" d="M598.4 348.8c-3 .2-5.9-.6-8.7-1.2-5.8-1.1-11.7-1.2-17.4-2.4-1.1-.2-2.3-.1-3.5-.1-2.1 0-4.1 0-6.1-.6-1-.3-2-.3-3.1-.3h-30.5c-1.3 0-2.6.3-3.9.4-.7.1-1.5.4-2.2.3-4.9-.3-9.7.6-14.5 1.1-4.8.4-9.6 1.4-14.3 2.2l-3.5.4c-.8-.8-.8-1.9-.8-2.9l-.1-6.5v-.9c-.3-2.6.8-3.9 3.3-4.9 7.9-3.3 16.2-5.3 24.6-6.7 3.4-.6 6.9-1.4 10.5-1.1 8.9-1.7 17.9-.7 26.8-.8 3.6-.1 7.3.5 10.9 1 7 .9 13.9 2.4 20.6 4.3a45 45 0 019.5 3.5c1.5.8 2.8 1.6 2.7 3.6 0 .8.4 1.4 1 1.9-1 1.2-.9 2.7-1 4.1l-.3 5.6z"/>
  <path class="st4" d="M1030.3 1017.3l-2.9-9.2c-2-6.3-4.4-12.4-8-18-.4-.6-.6-1.3-.9-2 5-.2 9.9-.9 14.7-2.6a41.9 41.9 0 0022.8-19.2 74.2 74.2 0 009.9-50.1c-.2-1.3-.2-2.6-.2-4 0-.2.3-.5.5-.5s.6.1.7.3c.9 1.4 1.8 2.7 2.5 4.2a71.3 71.3 0 017.5 40.2 71.8 71.8 0 01-14.8 37.2 71.2 71.2 0 01-31.8 23.7z"/>
  <path class="st12" d="M1053.1 273.8c-1.8 4.6-3.9 9.1-6.3 13.5a269.9 269.9 0 01-19.9 31.2c-.4.6-1 1.1-1.5 1.6-3.1 3.1-3 3.4-5.9-.4-3.8-4.9-7.4-9.9-10.6-15.1-3.3-5.4-6.5-10.8-9.5-16.4-1.9-3.5-3.5-7.1-5.1-10.7-.4-.8-.4-1.7-.5-2.6.4-1.3 1.5-1.8 2.6-2.1 7.7-1.8 15.4-3.7 23.2-5.4 2.9-.6 5.9-.6 8.8 0l23.6 5.6 1.1.8z"/>
  <path class="st11" d="M406.6 487.2c.7 2.8.7 2.9 2.9 2.9 8.6.2 17.3 1.4 25.9.9.9 0 1.8-.1 2.6.1 3 1 6.1.7 9.2.7h37.9c2.1 0 4.1.1 6.1-.6 1.1-.3 2.3-.3 3.5-.3h11c2.3 0 4.7-.1 7-.6 2-.5 4.1-.2 6.1-.3 3.2-.1 3.2-.1 3.6-3.5 1.6.6 3.4.9 4.9 1.9 2 1.3 2.2 3.1.7 4.9a17.7 17.7 0 01-5 3.6 65 65 0 01-14.9 5.5c-9.3 2.4-18.7 3.8-28.3 4.6-7.1.6-14.1.8-21.2.6-14-.5-27.9-2.3-41.3-6.3-4.5-1.3-9-2.9-12.9-5.6a13 13 0 01-3.3-2.9c-1.1-1.6-.8-3.1.7-4.2 1.6-.9 3.2-1.2 4.8-1.4z"/>
  <path class="st2" d="M253.7 931.4c5.1 1.2 10.4 1.8 15.5 2.8 4.2.8 8.5.3 12.6 1.4 2.3.6 5 .1 7.5.2 4.1.2 8.2-.6 12.3.7.4.1.9.2 1.3 0 4.5-1.3 9.1-.5 13.6-.7 2.8-.1 5.6.2 8.3-.7l1.3-.1c6.6-.2 13.1-1.2 19.6-2.4 1.7-.3 3.5-.2 5.3-.2 1.1 4.4 1.3 8.8 1.9 13.3l-5.2.9c-4.3.8-8.7 1.1-13 1.9-4.5.9-9.1.1-13.5 1.5-.9.3-2 .1-3.1.1h-30.9c-1.9 0-3.8 0-5.7-.6-.8-.3-1.7-.3-2.6-.3-6.3.1-12.5-1.5-18.8-2-2.8-.2-5.5-1.1-8.2-1.6l1.2-12.1c0-.7.4-1.4.6-2.1z"/>
  <path class="st5" d="M375.5 337.9c.9.5 1.7 1.2 1.9 2.3.2 2 .2 4.1.8 6.1.2.7-.2 1.5-.7 2-.9.8-1.7 1.6-2.7 2.2a157 157 0 01-20.8 10.7c-5.9 2.6-12 4.6-18.5 5.4-2.5.3-4.9.6-7.4.7-4.9 0-9.6-.9-14.3-2.3a96 96 0 01-24.1-10.6c-2.5-1.6-5.4-2.5-7.7-4.3l-1.8-1.2c-1.1-.9-1.6-2-1.2-3.5.6-2.7 1.4-5.4 1.5-8.2l.6-.3c3.7 2.6 7.6 4.9 11.8 6.7 7 3 14.4 4.8 21.9 6 1 .2 2.1.1 2.9.9 3.7 6.7 11 8.9 17.4 5.3 2.5-1.4 4.2-3.6 5.6-6 9.1-.8 17.8-3.1 26.1-7.1l8.7-4.8z"/>
  <path class="st12" d="M1024.9 856.1c0 2.4.9 4.6 1.4 6.9.4 1.7-.1 2.5-1.8 2.8a495.8 495.8 0 01-30 4.4l-3.5.2-22.5.1c-5.7 0-11.4-.9-17.1-1.6-6-.7-11.9-1.7-17.8-2.8-2.6-.5-2.8-1.7-2.4-3.7.4-2 1-4 1-6.1l1.7-3.8 12.5 2.3a223 223 0 0020 2.5c4.5.3 9 .8 13.6.7 5.9-.2 11.7-.8 17.5-1.4 4.7-.5 9.3-1.3 13.9-2 4-.7 8.1-1.4 12-2.6.6 1.3 1.1 2.7 1.5 4.1z"/>
  <path class="st11" d="M418.5 1129.7a19.8 19.8 0 01-11.1 5.9c-2.7.6-5.5.8-8.3.8h-64.9l-79 .1c-3.7 0-7.4-.5-10.8-1.8a17 17 0 01-7.7-4.9l5.3-.1h176.5z"/>
  <path class="st10" d="M873.4 650.9c1.3.5 2.4 1.2 3.3 2.2 1.6 1.7 1.4 3.1-.6 4.3a18.2 18.2 0 01-6.6 2.4c-5.4.7-10.7 1.5-16.1 2.1-4.5.5-9.1.3-13.6 1.3l-.9.1c-14.5.8-29.1 1.5-43.6.8-5.3-.3-10.6-.3-15.8-.8-7.3-.7-14.6-1-21.9-2.3-2.7-.5-5.6-.6-8.3-1.1-2.2-.4-4.3-1.1-6.3-1.9-.8-.3-1.5-.9-2.1-1.5-.7-.7-.7-1.6-.2-2.4 1-1.5 2.2-2.8 4.1-3.1 1.1.3 2.3.7 3.4.8 6.7.6 13.4 1.4 20.2 1.8 6.7.4 13.5-.1 20.3.9 15-.2 30 .6 45-.5 7.9-.6 15.9-.2 23.8-1 5.1-.7 10.6-1 15.9-2.1z"/>
  <path class="st9" d="M338.6 630.3l-5.6-1.2c-2.5-.5-3.1-.3-4.3 1.9-1 2-2.3 3.7-4 5.2a12.3 12.3 0 01-7.5 3.3 41 41 0 01-15.2-1.8 12.9 12.9 0 01-8.9-7.9c-.7-1.8-1.4-3.6-2.3-5.3s-1.8-3.4-2.9-4.9c-1.6-2.1-3.8-2.1-5.7-.3-1 .9-1.7 2-2.3 3.2l-2.7 6c-1 2.5-2.2 4.8-4.4 6.5-.8.6-1.7 1.3-2.6 1.6a36.3 36.3 0 01-18.1 2.7c-4.5-.5-7.9-2.8-10.2-6.8-2.4-4.1-2.4-4.1-7.1-2.9l-3.8.9c-.1-4.1.4-8.1 1.4-12l1.3-.2c3.1-.6 3.1-.6 3.6-3.9 1-6.7 2.2-8.1 8.9-9.6a47.7 47.7 0 0118.8-.9l2.6.3c5 .6 9.5 2 12.9 6 1.2 1.4 2.6 2.3 4.6 2.2 1.5-.1 2.9-.4 3.9-1.6 3.6-4.3 8.5-6 13.9-6.7 3.5-.4 7-.8 10.6-.6 4.4.2 8.8.7 13 2.1 3.9 1.3 5.7 3.9 6 7.8.3 4.4.3 4.4 4.7 5.1l.4.1c.9 3.9 1.3 7.8 1 11.7zm-27.7-22.5c0-.1 0-.1 0 0H303c-1.8 0-3.5.5-5.1 1.1a7.4 7.4 0 00-4.8 7.6c.3 3.1.9 6.1 1.8 9.1 1.2 4.2 3.8 6.9 8.1 7.9l7.3 1.4c3.3.7 6.4.3 9.6-.5a7.7 7.7 0 005-4c1.7-3.1 2.9-6.4 3.8-9.8.5-1.7.4-3.5.2-5.3-.5-3.3-2.2-5.7-5.6-6.6-1.6-.4-3.1-.9-4.8-.8l-7.6-.1zm-51.7-.1l-8.4.1c-1.7 0-3.3.3-4.7 1-2.9 1.3-4.7 3.3-4.8 6.7a27 27 0 002.7 12.8 11 11 0 0010.4 6.9h3.1c4-.5 7.8-1.2 11.6-2.5a7.7 7.7 0 004.5-4c1.9-3.6 2.9-7.4 3.2-11.4.5-5.4-2.4-8.2-7.8-9.4-.9-.2-1.8-.1-2.6-.1l-7.2-.1z"/>
  <path class="st4" d="M949.8 642.3c3.1.1 6.2-.2 9.2.8.8.3 1.7.1 2.6.1 1 0 2.1-.2 3.1.1 4.5 1.2 9.1.8 13.6.8h37c1.9 0 3.8.1 5.7-.6.4-.2.9-.2 1.3-.2 5 .2 9.9-1.4 14.9-1l-.1 10.1c-.1 2.3-.5 2.8-2.8 3.1a350 350 0 01-72 1.1l-10.1-1.1c-1.7-.2-2.3-.8-2.3-2.6l-.1-10.6z"/>
  <path class="st2" d="M648.9 925.8l.2 24.4v39.3c0 1.3.4 2.1 1.5 3 3.6 2.8 4 5.4 1.2 9-1.1 1.4-1.1 2.6-.8 4.1l3.2 12.4.5 2.6c0 .3-.4.8-.7 1-.4.2-.9.2-1.3.2h-12.8c-.6 0-1.1-.2-1.6-.3-.3-1.7.3-3.1.6-4.5l2.8-11.1a5 5 0 00-.8-4.5c-2.6-3.5-2.1-5.9 1.3-8.7 1-.8 1.5-1.7 1.5-3v-4-31.8-2.2c0-4.1 0-4.1-4-5.7l-10.3-4c-1.3-.5-2.8-.9-3.9-2.1.2-.4.4-.8.7-1l21-12.3c.6-.5 1.2-.6 1.7-.8z"/>
  <path class="st1" d="M238.1 713.8a66.4 66.4 0 002.3-18.8c.2-12.2.2-24.4.2-36.7v-5.1c1.5-.7 3.1-1 4.6-1.3a214 214 0 0179 0l1.3.2c4.2 1.2 4 .3 4 4.8l.4 40.2c.1 3.7.5 7.3.9 11 .3 2.3.8 4.6 2.1 6.7-2-.9-2.7-2.6-3.2-4.5-1.4-4.5-2-9.2-2.4-13.9-1.1-11.1-1.2-22.3-1.4-33.5-.1-4.8.6-4.8-4.8-6a171.7 171.7 0 00-35-3.5c-11.5-.1-22.9.7-34.2 2.9l-3.5.7c-4 .9-4.1.9-4.1 5.2-.2 10-.1 20-1.1 30-.4 4.1-1 8.2-1.6 12.2-.5 3.5-1.5 6.6-3.5 9.4z"/>
  <path class="st4" d="M426.2 607.8a65.2 65.2 0 0030.6 11.4c11 1.6 22 1 32.9-1.5a59.4 59.4 0 0022.4-9.9l1.2 2.1c-.8 1.9-.2 3.8 0 5.7.1 1.2-.3 1.9-1.3 2.5a60 60 0 01-14.4 6.5 95.8 95.8 0 01-59.1-.9 62 62 0 01-11.9-5.7c-1-.6-1.4-1.3-1.4-2.5 0-1.9.7-3.8-.2-5.7l1.2-2z"/>
  <path class="st12" d="M418.5 1129.7l-5.3-.2H242l-5.3.1a6.5 6.5 0 01-3.5-3.6l5.7-.1h176.9l6.2.1c-.7 1.8-1.8 3-3.5 3.7z"/>
  <path class="st10" d="M866.4 644.9c1.9 1 3.4 2.5 4.9 4.1-1.7 1-3.5 1.4-5.5 1.4-1.2 0-2.4-.1-3.5.2-5.9 1.3-12 .2-18 1.5-11.3.3-22.6-.1-33.9.8-4.6.4-9.1-.6-13.6-.6-6.3 0-12.6-.2-19-.1-6.3 0-12.6-.8-18.9-1.1-4.2-.2-8.5-.4-12.6-1.5 1.1-2.1 2.8-3.5 4.7-4.6 4.6 1.4 9.3 1.2 14 1.5 10.3.7 20.6.8 30.9 1.1H810c9.4-.2 18.8.1 28.2-.6 7.6-.5 15.3-.8 22.9-1.1 1.9-.2 3.6-.6 5.3-1z"/>
  <path class="st10" d="M861.3 638.6a7.6 7.6 0 013.7 4.7c-5.3 1.3-10.8.9-16.2 1.5-7.4.8-15 0-22.5 1-13.7-.2-27.4.5-41.1-.5-8.6-.7-17.4-.1-26-1.1-2.2-.2-4.4-.3-6.6-.8a9.8 9.8 0 013.6-4.7c1.9.3 3.8.7 5.7.7 5.7.3 11.5 0 17.1.9 21.6-.2 43.2.9 64.7-.6 5.8-.4 11.7 0 17.6-1.1z"/>
  <path class="st10" d="M757.1 637.1c0-1.9 1.1-3.3 1.8-4.9 9.3.2 18.5 1.3 27.7 1.2h41.5c10.2.1 20.3-.9 30.4-1.2 1.3 1.3 2 2.9 1.9 4.8-2.7-.2-5.2.8-7.9.7-10-.1-19.9 1.3-29.9 1h-4.4c-13.8-.2-27.6.5-41.4-.7-6.5-.4-13.2.1-19.7-.9z"/>
  <path class="st2" d="M1065.6 496.4c-4.8-1.4-9.6-2.9-14.4-4-6-1.4-12-3-18.1-3.7-4.3-.6-8.7-1.6-13.1-1.1a13 13 0 01-3.9-.4c-2.9-.7-5.8-.7-8.7 0-1 .2-2 .5-3 .4-10.7-.2-21 2.1-31.3 4.5-5.1 1.2-10.2 2.9-15.2 4.4a7 7 0 01-.5-4.5c1.7.3 3.1-.7 4.6-1.2a137 137 0 0135.3-7.4c11.1-.8 22.3-.9 33.5.5 10.8 1.3 21.5 3.4 31.8 7.1l3.8 1c-.1 1.5-.1 3-.8 4.4zM879.9 512.3c-6.1-1.6-12.2-3.3-18.3-4.7a231 231 0 00-18.5-3.3c-9.8-1.5-19.6-.4-29.4-.8-6.5 1-13 1.7-19.5 3-7.5 1.5-14.8 3.7-22.1 5.8a8.9 8.9 0 01-.6-3.9l2.1-.5a139 139 0 0141.7-8.6 155.6 155.6 0 0160 7.5c1.7.6 3.3 1.3 5.1 1.4a6 6 0 01-.5 4.1z"/>
  <path class="st4" d="M375.5 337.9c-3 1.6-5.9 3.3-8.9 4.8-8.3 3.9-17 6.2-26.1 7.1l-1.2-1.4c.5-2.8.6-5.6-.3-8.3l1.7-.4c5.4-.9 10.7-2 15.9-3.7a49.5 49.5 0 0018.4-10.1c1.2 2.5 1.1 5.3 1.5 8l.1 3-1.1 1zM317.5 350.4c-.8-.8-1.9-.7-2.9-.9-7.5-1.2-14.9-3-21.9-6a65.3 65.3 0 01-11.8-6.7l.3-5.7c.1-1.8.4-3.5 1.5-5 8.7 7.2 19 10.6 29.9 12.7 1.6.3 3.2.5 4.8 0l.9 1c-1 3.2-1 6.3.1 9.4-.2.5-.6.8-.9 1.2z"/>
  <path class="st5" d="M603.1 660.2c2-2.2 4.7-3.4 7.4-4.5a51.8 51.8 0 0119.3-4.1c9 .1 17.8 2 25.5 7l1.6 1.4c-1 .9-2.2.8-3.3.8-2.2 0-4.5-.3-6.6.2-3.5.8-7 .7-10.5.7h-18.1c-1.2 0-2.4.1-3.5-.2-2.6-.7-5.2-.6-7.9-.7-1.3 0-2.7.3-3.9-.6z"/>
  <path class="st12" d="M603.1 660.2c1.2.9 2.5.6 3.8.7 2.6.1 5.3-.1 7.9.7 1.1.3 2.3.2 3.5.2h18.1c3.5 0 7 .1 10.5-.7 2.1-.5 4.4-.2 6.6-.2 1.2 0 2.4.1 3.3-.8l3.4.1c2 .1 2.6.6 2.8 2.5l.2 3.4c-3.2.2-6.4-.1-9.6.8-1.2.4-2.6.1-3.9.1h-40c-2.6 0-5.3.1-7.8-.7-1.2-.4-2.6-.2-3.9-.3-.7-5 0-5.7 5.1-5.8z"/>
  <path class="st9" d="M880.5 508c-1.8-.1-3.4-.8-5.1-1.4a151.2 151.2 0 00-60-7.5c-14.3 1-28.3 3.5-41.7 8.6a8 8 0 01-2.1.5 7 7 0 010-3.2l4.6-1.4a154.6 154.6 0 0162.2-7.5c11.4.8 22.5 2.8 33.3 6.1l8.8 2.8v3zM1066.1 491.9l-3.8-1a143.6 143.6 0 00-31.8-7.1 178.6 178.6 0 00-33.5-.5c-12 .9-23.8 3.4-35.3 7.4-1.5.5-2.9 1.4-4.6 1.2l-.5-2.8.1.2 3.4-1a148.8 148.8 0 0148.4-8.6 151.8 151.8 0 0153.3 7.9c1.5.5 3.1.8 4.7 1.2l.1-.1-.5 3.2z"/>
  <path class="st13" d="M231.7 780.3c.5 1 1.6 1.3 2.5 1.6 10.8 3.5 21.8 6.1 33.1 7.3a245 245 0 0030.9 1.4c6.8-.1 13.5 0 20.3-.4 16.3-.9 32.1-4 47.5-9.3.7.5.9 1.3 1 2.1-1.9.1-3.7 1-5.5 1.6-12.9 3.9-26 6.4-39.4 7.4-13.7 1-27.4.9-41.1.4-17.2-.7-33.9-3.8-50.2-9.5-.7-1.7-.7-1.7.9-2.6z"/>
  <path class="st2" d="M880.5 505.1l-8.8-2.8c-10.9-3.4-22-5.3-33.3-6.1a154.6 154.6 0 00-62.2 7.5l-4.6 1.4c0-.3-.1-.5-.4-.7l.2-1.9c13.9-5.8 28.4-8.6 43.3-9.6a162 162 0 0152.5 4.9c4.5 1.2 9 2.8 13.5 4.1l.2 2.3c-.3.3-.4.6-.4.9z"/>
  <path class="st5" d="M921.6 1050.9c4.1 0 8.2 0 12.3.7 3.1.6 6.4.1 9.7.2 2.3 0 4.7-.1 7 .6 1.2.4 2.6.2 3.9.2h47.2c1.3 0 2.7.1 3.9-.3 2-.6 4.1-.6 6.1-.6h7.9c.9 0 1.8.1 2.6-.1 3.9-1.1 7.9-.7 11.8-.7.3 1 0 1.8-.9 2.2-.4.2-.9.2-1.3.3l-11.9.9a824.7 824.7 0 01-60.9.9c-9.8-.2-19.7-.5-29.5-1.5-2-.2-4.1-.1-6.2-.3-1.3-.2-1.4-.4-1.7-2.5z"/>
  <path class="st11" d="M443 412.7a83 83 0 014.5 18.3c.8 5.8 1.1 11.7 1.8 17.5 1.1 8.4.4 16.8.7 25.1 0 1.2-.1 2.4.3 3.5.7 2.2.5 4.4.6 6.6.1 1.4-.3 3 .5 4.3.3.6.5 1.1-.5 1.2-.6 0-1.3-.2-1.4-.8l-.4-2.6c-.1-2.8.1-5.6-.7-8.3-.4-1.2-.2-2.6-.2-4 0-1.6 0-3.2-.5-4.8-.3-1-.3-2-.4-3-.3-8.4-1.9-16.6-3.1-24.9-1.1-7.5-3.3-14.6-5.8-21.7l-.2-.9c1.1-2.4 2.2-4.6 4.8-5.5zM491.8 418.2l-2 5.4c-2.2 5.9-3.1 12.2-4.3 18.4-.7 3.4-1.4 6.9-1.6 10.4-.2 3.8-1.4 7.5-1.2 11.4.1 1.2-.2 2.3-.4 3.5-.1 1-.4 2-.4 3-.1 3.1 0 6.1-.8 9.2-.4 1.7-.1 3.5-.2 5.3 0 .9-.2 1.7-.3 2.6-.1.4-.4.5-.7.4l-.6-.5-.2-1.3c0-3.8-.5-7.7.1-11.5 1.1-6.7.6-13.5.8-20.2 0-1.3.1-2.6.5-3.9.2-.7.4-1.5.4-2.2-.4-4.3.5-8.5 1-12.7.7-6.3 1.8-12.5 3.6-18.5.4-1.4.6-2.9 2-3.8 2.5.7 3.5 2.8 4.3 5z"/>
  <path class="st9" d="M746.3 649.5c4.1 1.1 8.4 1.4 12.6 1.5 6.3.2 12.6 1.1 18.9 1.1l19 .1c4.6 0 9.1 1 13.6.6 11.3-1 22.6-.6 33.9-.8 5.9-1.3 12-.2 18-1.5 1.1-.3 2.3-.2 3.5-.2 2 0 3.8-.4 5.5-1.4.9.4 1.6 1.1 2.1 2-5.3 1.1-10.8 1.4-16.2 2-7.9.8-15.9.4-23.8 1-15 1.2-30 .3-45 .5-6.7-1-13.5-.5-20.3-.9-6.7-.4-13.5-1.1-20.2-1.8-1.2-.1-2.3-.5-3.4-.8.5-.6 1.1-1.1 1.8-1.4zM752.6 643.4c2.2.6 4.4.6 6.6.8 8.7.9 17.4.4 26 1.1 13.7 1 27.4.3 41.1.5 7.5-1 15-.2 22.5-1 5.4-.6 10.9-.1 16.2-1.5.7.3 1.2.8 1.5 1.5-1.7.4-3.4.8-5.2.8-7.6.4-15.3.6-22.9 1.1-9.4.7-18.8.4-28.2.6h-14.1c-10.3-.3-20.6-.3-30.9-1.1-4.7-.3-9.4-.1-14-1.5.1-.6.7-1 1.4-1.3zM757.1 637.1c6.6 1 13.2.5 19.8 1 13.8 1.2 27.6.4 41.4.7h4.4c10 .3 19.9-1.1 29.9-1 2.6 0 5.2-.9 7.9-.7.6.4.7.9.8 1.6-5.8 1-11.7.6-17.6 1.1-21.6 1.5-43.2.5-64.7.6-5.7-.9-11.4-.6-17.1-.9-1.9-.1-3.8-.5-5.7-.7 0-.8.3-1.3.9-1.7zM858.5 632.3c-10.1.3-20.2 1.3-30.4 1.2-13.8-.2-27.7-.2-41.5 0-9.3.1-18.5-.9-27.7-1.2 0-.7.4-1.2.9-1.5 4.6.1 9.1 0 13.7.3 20.1 1.5 40.3.6 60.4.6 7.1 0 14.1-1.1 21.1-.9 1 0 2-.3 3-.5.5.5.5 1.3.5 2z"/>
  <path class="st12" d="M229.5 1119.3c3.1-3.9 6.9-7.2 10.4-10.8 1-1 1.9-1 2.6 0 3.3 4.3 7.5 7.8 11.2 11.8l1.2 1.3c.6.6 1.5 1.3.8 2.2-.6.7-1.6.5-2.5.4s-1.6-.7-2.2-1.4c-1.8-1.9-3.8-3.6-5.4-5.8-.9-1.2-1.9-2.2-3-3.2-1.1-1.1-1.8-1.1-3 .1l-5.3 5.3-3.6 3.3c-.6-.9-1-2.1-1.2-3.2zM424.7 1121.8l-7.3-7.7c-1.6-1.6-2.1-1.6-3.7-.1l-8.4 8.5c-1.2 1.3-2.5 2-4.3 1.6-.2 0-.5-.3-.9-.6 1.5-1.8 2.8-3.7 4.4-5.4 3-3.2 6.2-6.3 9.3-9.4 1.4-1.4 2-1.4 3.3-.1l5.9 5.9 3.3 2.9c0 1.7-.4 3.2-1.6 4.4z"/>
  <path class="st9" d="M422.9 1125.1c-2.1-1.4-3.8-3.2-5.6-5-1.4-1.4-2-1.4-3.3-.1l-3.5 3.4c-.3.3-.7.5-1.1.6-.2.1-.6 0-.8-.2-.1-.1-.2-.6-.1-.7 1.8-2.3 3.5-4.7 5.7-6.7 1.2-1 2-1 3 .2l4 4.7c.8.9 1.8 1.6 2.6 2.3-.2.6-.4 1.2-.9 1.5z"/>
  <path class="st11" d="M870.1 858.7c-.2.7-.7 1-1.4 1.1.2-.6.7-.9 1.4-1.1zM1087.6 859c-.7-.1-1.3-.4-1.6-1.1.6.1 1.3.4 1.6 1.1z"/>
  <path class="st1" d="M728.8 345.3H718c-1.9-.1-3 .7-3.8 2.3-1.5 2.9-3.2 5.6-4.8 8.4-.6 1.1-1.3 1.1-1.9.1l-4.2-7.2-1.1-1.9c-.6-1.2-1.5-1.7-2.8-1.6H691c-.8 0-1.7.2-2.5-.3-.3-.8.2-1.4.6-2 1.4-2.4 2.7-4.9 4.2-7.2 1-1.6.9-2.9-.1-4.4-1.5-2.2-2.7-4.5-4-6.8l-.9-1.7c.7-1 1.5-.8 2.2-.8 2.5 0 5-.2 7.5 0 2.6.3 4.1-.8 5.2-3.1 1.2-2.4 2.6-4.6 3.9-6.9.4-.6.6-1.4 1.4-1.7.9-.1 1.1.9 1.4 1.4 1.6 2.6 3.2 5.3 4.6 8 .8 1.6 1.9 2.1 3.5 2l8.4-.1c.7 0 1.5-.1 2.2.7l-2.4 4.5c-.9 1.5-1.7 3.1-2.7 4.6-.9 1.4-1 2.6-.1 4 1.4 2.2 2.7 4.6 4 6.9l1.4 2.8zM993 599.9c-2 .4-3.6-.8-4.8-2.6s-2.9-3.4-2.5-5.9c.1-.6-.1-1.2-.6-1.6-1.4-1.1-2.1-2.4-1.7-4.2.1-.7-.1-1.4-.6-2l-.8-1.1c-4.1-6-1.3-12.1 2.9-15.1a15 15 0 0117.7.4c4.7 3.8 5.8 9.5 2.5 14.5-1 1.5-1.9 2.9-1.5 4.8.1.3 0 .7-.1.8-2.2 1.5-1.9 4-2.6 6.1-.6 1.8-1.9 3.3-3.3 4.6-1.3 1.4-2.8 1.3-4.6 1.3zm5.7-13.4l1.4-.4c.9-.4 1.4-1.1 1.2-2.1s-.9-1.5-1.8-1.6c-.6-.1-1.2.1-1.7.2-1.9.4-3.1 1.5-2.7 2.3.6 1.5 1.9 1.6 3.6 1.6zm-10.6 0c1.6.1 2.6-.2 3.4-.9.5-.4.6-1.1.2-1.5-1.3-1.4-2.9-1.8-4.7-1.4-.7.2-1.2.8-1.3 1.6s.2 1.5 1 1.8l1.4.4zm5.3 4.3c.7 0 1.5.3 1.9-.5.3-.7-.3-2.1-1.2-2.6-.3-.2-.9-.3-1.2-.1-1 .4-1.6 1.3-1.5 2.4 0 .2.2.6.4.7l1.6.1z"/>
  <path class="st1" d="M989.6 609.2c-2.6-1.7-4.9-3.5-8.1-3.3l-.9-.1c-.9-.2-1.8-.5-2.1-1.4-.3-1 .3-1.7 1.3-2 1.4-.4 1-1.7 1.4-2.5.6-1.1 2.2-1.3 2.9-.3.3.5.8 1 .8 1.5.3 1.8 1.4 2.7 3 3.5 6.7 3.2 4.2 3.2 10.8 0 1.6-.7 2.8-1.6 3-3.5l.5-1.2c.4-.7 1-1.1 1.8-1.1s1.5.4 1.6 1.3c.2 1.3.8 2 2 2.6 1.1.6.7 2.3-.6 2.7-.6.2-1.1.4-1.7.4-3.2-.2-5.5 1.7-8 3.2.8 1 1.8 1.3 2.7 1.8 1.3.7 2.6 1.3 4.2.6.7-.3 1.4-.3 2.2-.3s1.5.2 1.8 1c.2.6.2 1.2-.3 1.6-1 .8-1.5 1.5-1.4 2.9.1 1.3-1.5 1.9-2.5 1.2-.2-.2-.6-.3-.7-.5-2-3.3-5.6-4.1-8.6-5.9-.8-.5-1.7-.5-2.5 0-3 1.7-6.6 2.6-8.6 5.8-.2.3-.7.5-1.1.7-.7.4-2.1-.1-2.1-.9 0-1.5-.5-2.7-1.6-3.7-.8-.7 0-2.2 1.2-2.2.7 0 1.5-.1 2.2.2 1.8.8 3.4.3 5-.7.6-.5 1.4-.9 2.4-1.4z"/>
  <path class="st11" d="M477.6 489l-.4-.2.4-.1z"/>
  <path class="st3" d="M771.2 499.1c-.5-1.6-.1-2.8 1.6-3.5 6.7-2.8 13.5-4.9 20.6-6.4 16.3-3.4 32.7-4.1 49.2-2.5 11.6 1.1 23 3.3 33.9 7.6l2.9 1.1c1.8.6 2 1.9 1.5 3.5l-2.9-.9a156 156 0 00-103.3-.1c-1.2.7-2.4.9-3.5 1.2z"/>
  <path class="st9" d="M771.2 499.1l3.4-1a155.6 155.6 0 01103.3.1l2.9.9c.3 1 .2 1.9-.2 2.9-4.5-1.4-9-2.9-13.5-4.1a160.8 160.8 0 00-52.5-4.9c-14.9 1-29.4 3.8-43.3 9.6a7 7 0 01-.1-3.5z"/>
  <path class="st5" d="M816.3 464.5H804c-.9 0-1.7-.1-2.6-.3-.3-.1-.7-.6-.8-1-.1-.6.2-1.1.7-1.5.6-.5 1.3-.5 2.1-.5h7.1c.9 0 1.8.2 2.5-.5-1.1-.8-2.3-.4-3.4-.5h-13.7c-1.1 0-2.1-.1-2.4-1.3-.2-1 .8-1.8 2.5-1.8h18.1c1.1 0 2 .2 2.3 1.5 1 3.7 3.1 6.3 6.9 7.2.8.2 1.1.9 1 1.7-.1.9-.8 1.3-1.5 1.3l-13.2-.1c-.8 0-1.3-.6-1.3-1.5s.5-1.4 1.2-1.6c.9-.2 1.8-.1 2.6-.2 1 0 2.2.4 4.2-.9zM838.3 460.4c2.3 1.1 3.9.6 5.5.7h4.9c.6 0 1.2.1 1.7.3.7.3 1.2.9 1.1 1.7-.1.6-.5 1.1-1.1 1.2l-3.1.2h-10.7c1.3 1.3 2.5.9 3.5 1s2.1.1 3 .3c.5.1.9.7.9 1.4s-.4 1.1-.9 1.4c-.4.2-.9.2-1.3.2h-11.5c-.4 0-.9 0-1.3-.2-.5-.2-1-.6-1.1-1.2-.1-.7.2-1.1.7-1.5l.8-.4a9 9 0 006.4-6.7c.4-1.4 1.1-1.9 2.5-1.9H856l1.3.1c.8.1 1.3.5 1.5 1.4.1.9-.5 1.6-1.6 1.6l-11 .1c-2.6.1-4.9-.1-7.9.3z"/>
  <path class="st3" d="M1011.8 429.1h5.3l3.5.2c6 .7 7.5 2.4 8.2 8.3a23 23 0 01-6.8 19.7 72.7 72.7 0 01-8.5 7.1c-1.2.8-2.2 1.1-3.6.2-4.2-3-8.2-6.2-11.4-10.4a18.4 18.4 0 01-4.2-12.7l.3-5.3c.4-3.9 1.7-5.4 5.6-6.3 1.4-.3 2.9-.6 4.4-.6 2.5-.2 4.8-.1 7.2-.2 0 .1 0 0 0 0zm-1.2 20.3l-.1 2.5c-.1.7-.9 1.2-1.7 1l-.4-.1c-1.8-1.1-4.5-1.6-2.5-4.7.1-.2 0-.6-.2-.8-.8-.9-1.5-1.8-2.4-2.6-.3-.3-.9-.2-1.1.2l-1 2.4c-.2.9-.3 1.7.8 2.2 1.3.6 1.6 2.1 2.6 2.9l6.9 5.4c2.5-1.2 4.4-3.3 6.7-4.8 1.4-1 1.9-3 3.6-3.8.5-.3.6-1 .4-1.6l-.8-2.5c-.3-.6-.9-.9-1.4-.4-1.2 1.3-3.4 2.2-1.6 4.6.1.2.1.6-.1.8a4.6 4.6 0 01-3.8 2.6c-.4 0-.9-.2-1-.7-.4-2.6-.4-5.3 0-7.9 0-.3.6-.7.9-.8l1.7-.4c.6-.2.8-.8.8-1.4s-.2-1.2-.8-1.5c-.8-.4-1.9 0-2.4-.8-.6-1.1.6-1.8.9-2.7l.2-.4c.4-1.3-.1-2.6-1.2-3.5a3 3 0 00-3.7-.1 3.5 3.5 0 00-1.4 3.5c.2.7.7 1.3.9 2 .5 1.1.3 1.4-1 1.8-.5.2-1.2.2-1.6.5-.8.5-.7 2.2.2 2.6l.8.2c.7 0 1.5-.1 2.1.4.7.7.6 1.6.6 2.5l.1 3.4zM956.9 484.2l-.2-1.3c-.3-1.9.4-2.9 2.2-3.7 7.5-3.2 15.2-5.3 23.2-6.8a159.5 159.5 0 0178.3 5.1c1.4.5 2.7 1.2 4.1 1.6 1.6.5 2.5 1.5 2.1 3.3a57 57 0 01-.3 1.7l-6.2-2.2a153.3 153.3 0 00-69.1-6.1c-11 1.4-21.7 3.7-32 7.8-.6.4-1.4.5-2.1.6z"/>
  <path class="st9" d="M956.9 484.2l2.1-.5c10.3-4.1 21-6.4 32-7.8a150 150 0 0175.3 8.3 7 7 0 01-.1 3.2c-14-5.9-28.7-8.6-43.7-9.5a156.2 156.2 0 00-50.7 4.7c-5 1.4-9.8 3-14.7 4.5-.4-.9-.4-1.9-.2-2.9z"/>
  <path class="st3" d="M957.1 487.1c4.9-1.5 9.8-3.2 14.7-4.5a156.2 156.2 0 0150.7-4.7c15 .9 29.8 3.6 43.7 9.5l.1 1.4c-1.6-.4-3.2-.7-4.7-1.2a151.8 151.8 0 00-53.3-7.9 148.8 148.8 0 00-48.4 8.6l-3.4 1a8 8 0 00.6-2.2z"/>
  <path class="st11" d="M291.3 472.5h-10.6c-6.8.1-12.7-4.5-13.4-13-.4-5 4-11.1 8.8-12.5 2-.6 4-1 6.1-1h18.5c3.2 0 6.1.9 8.8 2.6 3.3 2.1 5.1 5.2 5.4 9.1v1.8c0 7.3-5.3 12.8-12.6 13h-11z"/>
  <path class="st6" d="M530.7 290.7l1.7.1c2.9.9 5.4.3 8-1.2 4.7-2.7 3.2-2.7 7.8 0 2.4 1.4 4.8 2.1 7.6 1.1.5-.2 1.1-.2 1.7-.2.9 3.5 1.1 9.7.4 12.3-.6 2.2-1.6 4.1-3 5.9a36 36 0 01-9.1 8.3c-1 .6-1.8.8-2.8.1-3.7-2.5-7-5.4-9.6-9a14.2 14.2 0 01-2.9-9.1c0-2.8-.2-5.5.2-8.3z"/>
  <path class="st15" d="M318.4 339.9l-.9-1c3.8-9.6 17.5-9 22-1.6l1.3 2.3-1.7.4-1-1.4a11 11 0 00-18.3-.4l-1.4 1.7z"/>
  <path class="st13" d="M867.7 296.5h11.5c5.8-.1 11.4 5.4 11.3 11.2v1.3c1.2 7.6-6.7 13-12.4 13.1H857c-1.7 0-3.1-.4-4.7-1-4.3-1.4-6.6-4.7-8-8.7-1.4-3.9-.3-7.6 2-10.8 2.4-3.4 5.7-5.3 10.1-5.2 3.7.2 7.5.1 11.3.1zM300.4 824.3c3.7-.5 6-1.9 7.3-4.7.2-.4.2-.8-.2-1.2-1.5-1.4-1.5-1.5-.3-2.9 1.1-1.3 2-2.9 3.6-4 1.2 2.5 1.8 4.9 2.3 7.3.1.3 0 1.1-.7.7-1.4-.9-2.1-.2-2.6 1.1a9.7 9.7 0 01-3.7 4.3c-2.6 1.7-5 3.5-7.2 6.1l-4.4-3.8-4.3-3.1a10.7 10.7 0 01-3.1-4.2c-.2-.5-.7-.9-1.4-.7-.5.2-1 .9-1.4.2-.2-.3 0-.8.1-1.2l1.5-5.1c.2-.6.4-1.1 1.3-1.3 1.7 1.8 3.3 3.9 5 6.1l-1.6.3c-1.1.3-1.3.5-.8 1.4a8.2 8.2 0 005.7 4.4c1 .2 1.7-.2 1.7-1.3v-11c0-.9-.6-1.3-1.5-1.1l-1.7.5c-.9.2-1.7 0-2.3-.9-.6-1-.5-2 .1-2.9.3-.5.9-.8 1.5-.8l2.6.4c.9.1 1.6-1 1.1-1.8l-1.7-2c-1.2-1.6-1.2-3.3-.2-5a4 4 0 014.1-2c1.8.2 3.2 1.4 3.8 3.2.4 1.4 0 2.6-.8 3.7-.5.7-1.3 1.1-1.6 2-.3.9.3 1.9 1.2 1.8.9-.1 1.7-.4 2.6-.4 1.1 0 1.7.8 1.7 2.1 0 1.5-.7 2.6-1.8 2.5-.6 0-1.1-.3-1.7-.4-1.5-.3-2.1 0-2.1 1.3-.2 4.1-.2 8-.1 12.4zm-1.7-22.3c.8 0 1.7-1 1.6-1.8s-1-1.6-1.9-1.5c-.8.1-1.3.6-1.3 1.5-.1 1 .7 1.9 1.6 1.8z"/>
  <path class="st9" d="M848.8 604.3c2.5 0 4.4 2 4.3 4.5a4.4 4.4 0 01-4.6 4.2c-2.3 0-4.5-2.3-4.4-4.5.1-2.3 2.3-4.2 4.7-4.2zm1.8 4.3c0-1.1-.9-1.8-2-1.8-1.1.1-2 .9-2 1.8 0 1 .9 1.7 2.1 1.8 1.1.1 1.9-.7 1.9-1.8zM769 613c-2.3 0-4.5-2.2-4.5-4.4.1-2.3 2.2-4.3 4.7-4.3s4.4 1.9 4.4 4.4a4.5 4.5 0 01-4.6 4.3zm2-4.3c0-1.1-.8-1.9-1.9-1.8-1.2 0-2 .8-2.1 1.8 0 .9.9 1.8 2 1.8s2-.7 2-1.8zM458 587.2c.9.4 1.9.5 2.9.4 5.2-.4 6.9-2.3 7.2-7.8v-.4c.1-.6.5-1 1.1-1.1.7-.1 1.6.5 1.5 1.2-.6 2.5 1.1 4.2 1.9 6.1.4 1 1.3 1.6 2.4 1.7 2.2.2 4.3.8 6.5-.3.5-.3 1.1.3 1.3.9.2.6 0 1.4-.6 1.4-2.4.3-3.7 2.2-5.3 3.6-1 .9-1.3 2-.9 3.2.6 1.9.2 4.2 2.1 5.7.7.5.3 1.4-.4 1.9-.5.4-1.3.3-1.5-.2-.9-2.4-3.2-2.9-5-4-1.2-.7-2.2-.6-3.3.1-1.7 1.1-3.9 1.4-4.7 3.7-.2.5-.8.8-1.5.5s-1.2-1.4-.7-1.8c1.9-1.5 1.6-3.7 2.1-5.6.4-1.4.1-2.6-1.1-3.5-1.5-1.2-2.4-3-4.6-3.1-.8 0-1.3-.8-1.1-1.6.1-.9.8-1.1 1.7-1z"/>
  <path class="st12" d="M324.2 1124.2c-1.4.1-2.4-.4-3.2-1.3-1.8-1.9-3.7-3.8-5.4-5.8a22.2 22.2 0 00-3.7-3.8c-.8-.6-1.7-.6-2.4.1-.7.6-1.3 1.2-1.8 1.9-2.1 2.8-4.9 5.1-7.3 7.7-1.1 1.2-2.5 1.5-4 1.2-.6-.1-1-.9-.6-1.3l1.1-1.4 12.1-12.2 1-.9c.8-.7 1.6-.7 2.3.1 1.1 1.2 2 2.5 3.2 3.7l8.3 8.5 1.8 2c.2.3.3.9.1 1.2-.2.3-.7.4-1.1.5-.1-.2-.3-.2-.4-.2zM360.8 1123.9c-1.8.9-3.3.3-4.6-1l-6.2-6.3-2.5-2.5c-1.6-1.5-2-1.5-3.7.1l-8.1 8.1c-.7.7-1.4 1.6-2.5 1.8-.9.2-2 .5-2.5-.2-.8-.9.4-1.5.9-2.1l10.5-11.3 2.2-2.2c1-.9 1.7-.9 2.7.1 2.8 2.8 5.7 5.5 8.3 8.5 1.6 1.8 3 3.6 4.7 5.3.5.4 1 .8.8 1.7zM393.9 1124.2c-1.2.1-2.2-.4-3-1.3-1.8-1.9-3.7-3.8-5.4-5.8a22.2 22.2 0 00-3.7-3.8c-.8-.6-1.7-.6-2.4 0a30 30 0 00-4.6 4.8c-1.5 1.8-3.2 3.5-4.8 5.2-1 1.1-2.3 1.2-3.7.9-.6-.1-1-.9-.7-1.3l1.7-2 7.4-7.6c.8-.8 1.7-1.6 2.4-2.6 3.2-4.7 3.8-2.9 6.5-.2l11.4 11.6c.4.4.8 1 .4 1.6-.1.5-.8.5-1.5.5zM260.6 1123.8l.5-1.2 11.1-11.9 1.9-1.9c1.6-1.5 2-1.5 3.7.1 4.6 4.3 8.7 9.2 12.9 13.8.2.2.2.8.2 1.2 0 .1-.5.3-.8.3-1.6.2-2.8-.4-3.9-1.5l-7.1-7.2-2.2-2.1c-.6-.5-1.4-.5-2 .1l-4.4 4.3-5 5c-1.4 1.4-2.9 1.9-4.9 1z"/>
  <path class="st9" d="M345.5 1119.1c-.4.3-.9.4-1.2.7l-3.2 3.1a7 7 0 01-1.8 1.2c-.2.1-.6 0-.8-.2-.1-.1-.2-.6 0-.7l6.2-6.9c.6-.6 1.4-.6 1.9 0l6.2 6.9v.7c-.2.2-.5.3-.8.2-.9-.2-1.5-.9-2.1-1.5l-3.2-3c-.3-.3-.8-.4-1.2-.5zM248 1123.5c-.2.1-.5.4-.7.3-.4-.1-.8-.3-1.1-.6l-2.2-2.2c-2.7-2.9-3.5-2.7-6.3.4l-2 2.3c-.4.4-1.1.5-1.6 0a1 1 0 010-1.2l5.6-5.7c.9-.8 1.9-.8 2.8.1 1.9 1.8 3.7 3.8 5.5 5.7v.9zM387.7 1123.6c-.2.1-.6.4-.7.3l-1.8-1.3-3.2-3c-.9-.8-1.8-.8-2.8.1l-2.9 2.7a10 10 0 01-2 1.6c-.4.2-.9.2-1.2-.2-.1-.2-.1-.6.1-.8l6.2-6.2c.7-.7 1.7-.7 2.4 0 2.1 1.8 4.1 3.7 5.8 6 .2.1.1.5.1.8zM310.4 1119c-.3.2-.8.4-1.2.8l-3.8 3.6c-.4.4-1 .8-1.5.1-.2-.2-.1-.9.2-1.2a130 130 0 015.2-5.3c1.1-1 2.1-1.1 3.1-.1 1.9 1.8 3.7 3.7 5.5 5.7.3.3.3.9-.2 1.1-.2.1-.6.1-.8-.1l-4.2-3.9c-.7-.3-1.3-.7-2.3-.7zM283.1 1123.8c-.3.1-.5.3-.8.3-.9-.1-1.5-.8-2.2-1.4l-3.2-3c-.8-.7-1.6-.6-2.3.1l-3.4 3.4c-.5.5-1.1 1-1.9 1l-.4-.1c-.4-.1-.5-.4-.2-.7 1.9-2.4 4.1-4.6 6.4-6.5.5-.4 1.2-.3 1.6.1 2.3 2.1 4.6 4.1 6.4 6.6.1-.1 0 .1 0 .2z"/>
  <path class="st11" d="M1018.6 355c-2.8 0-6-1.3-8-3.4-.7-.7-1.4-.9-2.2-1.2-.4-.2-.8-.4-.6-.9.1-.5.6-.6 1-.7l5.7-.1c2.5-.2 4.6.3 5.8 2.9.2.4.6.6.9.9.5.6 1.8.8 1.2 1.9-.4.7-1.3.5-2 .5l-1.8.1zM1029.5 355.2l-3.5-.4c-.5-.1-.7-.7-.4-1 1.4-1.3 2.7-2.7 3.7-4.2.3-.4 1-.7 1.5-.7l8.8.1c.2 0 .5.3.6.5.2.3.2.6-.1.7-1.4.5-2.7 1-3.3 2.5-2.9.5-5 3.2-7.3 2.5z"/>
  <path class="st4" d="M1014.7 1043.9c-.1 2-2.1 4-4.1 3.9s-4-2.1-4-4 2.1-4.1 3.9-4.1c2.1-.1 4.3 2.1 4.2 4.2zM957.6 1044.7c0-2.3 1.6-4.1 3.7-4 2 0 4 1.9 4.2 3.8.1 2-2.1 4.4-4.1 4.3a4 4 0 01-3.8-4.1zM1031 1043.4a3.8 3.8 0 01-3.9 3.8 3.8 3.8 0 01-3.9-3.8c0-2.4 1.8-4.1 4.2-4 2.1.1 3.6 1.8 3.6 4zM948.9 1043.8c0 2.3-1.7 4-3.8 3.9s-4-2-4.1-3.9 1.9-4.1 3.8-4.2c2.2-.1 4.1 1.8 4.1 4.2zM981.6 1011.1c0 2.3-1.7 4-3.8 3.9-2-.1-4-2-4.1-3.9 0-1.9 1.9-4.1 3.8-4.2 2.2-.1 4.1 1.8 4.1 4.2zM981.6 1044.5c.1 2.3-1.5 4.1-3.5 4.2-2.1.1-4.3-2-4.3-4.1 0-1.9 2-3.8 4-3.9 2-.2 3.7 1.6 3.8 3.8zM990.4 1044.5c0-2.2 1.8-4 3.8-3.9s4 2 4 3.9c.1 2.1-2.1 4.2-4.3 4.1-2 0-3.6-1.8-3.5-4.1zM981.6 978.2c0 2.4-1.3 3.8-3.7 3.8-2.3 0-4.1-1.6-4.1-3.6 0-2.1 2.1-4.2 4.2-4.2 2-.1 3.6 1.7 3.6 4zM932.7 1043.4a4 4 0 01-4.1 3.8c-2.2-.1-3.8-1.8-3.7-4s1.8-3.9 4-3.8c2 0 3.8 2 3.8 4zM977.8 1023.5c2.2.1 3.8 1.8 3.8 4s-1.9 4-3.9 3.8c-2.1-.1-4-2.1-3.9-4a3.9 3.9 0 014-3.8zM978.1 998.5a4.2 4.2 0 01-4.3-3.6 4 4 0 017.8-.6c.1 2.2-1.4 4.1-3.5 4.2z"/>
  <path class="st15" d="M317.5 350.4l.9-1.1 2.2 2.7a10.9 10.9 0 0016.6-.8l2-2.9 1.2 1.4a15.4 15.4 0 01-5.6 6c-6.3 3.6-13.6 1.4-17.3-5.3zM310.9 607.8h7.5c1.6 0 3.2.4 4.8.8 3.4.9 5.1 3.3 5.6 6.6a12 12 0 01-.2 5.3c-.9 3.4-2.1 6.7-3.8 9.8a7.7 7.7 0 01-5 4c-3.2.8-6.3 1.3-9.6.5l-7.3-1.4c-4.3-1-6.9-3.7-8.1-7.9-.8-3-1.4-6-1.8-9.1a7.2 7.2 0 014.8-7.6c1.6-.6 3.3-1.1 5.1-1.1l8 .1c0-.1 0-.1 0 0zM259.2 607.7h7.1l2.6.1c5.4 1.2 8.4 4 7.8 9.4-.4 4-1.4 7.8-3.2 11.4a7.7 7.7 0 01-4.5 4c-3.8 1.3-7.7 2-11.6 2.5h-3.1c-4.9-.2-8.2-2.4-10.4-6.9a27 27 0 01-2.7-12.8c.2-3.4 2-5.4 4.8-6.7a11 11 0 014.7-1h8.5z"/>
  <path class="st1" d="M339.3 348.3c-.6 1-1.2 2-2 2.9a10.9 10.9 0 01-16.6.8c-.8-.8-1.5-1.8-2.2-2.7a13.8 13.8 0 01-.1-9.4l1.3-1.7a11 11 0 0118.3.4l1 1.4c.9 2.7.8 5.5.3 8.3z"/>
  <path class="st15" d="M998.7 586.5c-1.6 0-3-.2-3.6-1.6-.4-.9.8-1.9 2.7-2.3.6-.1 1.2-.3 1.7-.2.9.1 1.6.6 1.8 1.6s-.3 1.7-1.2 2.1c-.6.3-1.1.4-1.4.4zM988.1 586.5l-1.5-.5c-.7-.3-1-1-1-1.8.1-.8.5-1.4 1.3-1.6 1.8-.4 3.5 0 4.7 1.4.4.5.3 1.1-.2 1.5-.7.8-1.6 1.1-3.3 1z"/>
  <path d="M993.4 590.8c-.6-.1-1.1 0-1.7-.2-.2 0-.4-.4-.4-.7 0-1.1.5-2 1.5-2.4.3-.1.9-.1 1.2.1.9.5 1.5 1.9 1.2 2.6-.3 1-1.1.7-1.8.6z" fill="#578386"/>
  <path class="st9" d="M1010.6 449.4v-3.2c0-.9.1-1.8-.6-2.5-.5-.6-1.4-.4-2.1-.4l-.8-.2c-.9-.4-1-2.1-.2-2.6.5-.3 1.1-.3 1.6-.5 1.3-.4 1.5-.7 1-1.8-.3-.7-.7-1.3-.9-2-.4-1.2.3-2.6 1.4-3.5 1.1-.8 2.5-.7 3.7.1 1.1.9 1.6 2.2 1.2 3.5l-.2.4c-.3.9-1.6 1.6-.9 2.7.5.8 1.7.3 2.4.8.5.3.8.9.8 1.5s-.3 1.2-.8 1.4l-1.7.4c-.4.1-.9.5-.9.8-.4 2.6-.5 5.2 0 7.9.1.5.6.7 1 .7a5 5 0 003.8-2.6c.1-.2.2-.7.1-.8-1.8-2.4.5-3.3 1.6-4.6.5-.5 1.1-.2 1.4.4l.8 2.5c.2.6.1 1.3-.4 1.6-1.7.9-2.1 2.8-3.6 3.8-2.2 1.6-4.2 3.6-6.7 4.8l-6.9-5.4c-1-.8-1.3-2.4-2.6-2.9-1.1-.5-1-1.3-.8-2.2.2-.8.6-1.7 1-2.4.2-.4.8-.5 1.1-.2l2.4 2.6c.2.2.3.6.2.8-2.1 3.1.7 3.6 2.5 4.7l.4.1c.7.2 1.6-.3 1.7-1v-2.7zm.3-13.9c.2.4.5.6.9.5.4-.2.5-.6.3-1-.1-.2-.4-.3-.6-.3-.4.1-.6.3-.6.8z"/>
  <path class="st1" d="M298.7 802c-.8 0-1.6-.8-1.6-1.7 0-.8.5-1.3 1.3-1.5.9-.1 1.8.6 1.9 1.5 0 .8-.8 1.7-1.6 1.7z"/>
  <path class="st10" d="M850.6 608.6c0 1.1-.8 1.9-1.9 1.9a2 2 0 01-2.1-1.8c0-.9.9-1.8 2-1.8 1.1-.1 2 .6 2 1.7zM771 608.7c0 1.1-.9 1.8-2 1.8-1.1-.1-2-.9-2-1.8 0-1 .9-1.7 2.1-1.8 1.1-.1 1.9.7 1.9 1.8z"/>
  <path class="st3" d="M1010.9 435.5c-.1-.5.2-.8.6-.8.2 0 .6.1.6.3.2.4.1.8-.3 1-.3.2-.7-.1-.9-.5z"/>
</svg>
