<svg xmlns="http://www.w3.org/2000/svg" viewBox="0 0 1000 500">
      <path fill="#788fab" d="M-16.7-12.1h1034.8v522H-16.7z"/>
      <path d="M600.8 194.9c-21.7-21.7-51.6-37.6-85.2-41.7l-16-16-.6-.6c-.2-.1-.3-.1-.5-.1-3.1 0-3.2 15.1-3.2 15.8-66.2 1.5-120.9 49.2-132.9 101.2l254.1 254.1 162.7-.7 131.6-1.9-310-310.1z" fill="#657d96"/>
      <path fill='#94927f' d="M502 246.8v93.6h-7.1v-93.6c1.2-.1 2.4-.1 3.6-.1 1.2 0 2.3 0 3.5.1zM498.5 136.5c3.1 0 3.2 15.1 3.2 15.8h-6.4c0-.7 0-15.8 3.2-15.8z"/>
      <path fill='#ffdd0' d="M533.2 363.2v7.2c0 7.3-4.7 19.5-19.9 19.5s-20.7-11.5-20.7-20v-26c0-2.2.5-3.6 2.4-3.6h7.1c.8 0 2.5.4 2.5 3.6v25.4c0 4.2 2.2 8.7 8.7 8.7s8.4-4.1 8.4-8.5v-6.4c0-1.1 1.3-4.8 5.9-4.8 4.6.2 5.6 3.1 5.6 4.9zM501.7 152.2c66.1 1.5 120.8 49.1 132.8 101-.7-1.7-8.5-6.3-17-5.1-6.9.9-15.9 7.1-19.1 12.4-5.3-5.1-15.9-12.3-30.4-11.5-11.6.6-23.6 7.6-29.2 13.3-4.6-5.1-19.1-14.3-36.8-15.5-1.2-.1-2.4-.1-3.6-.1s-2.4 0-3.6.1c-17.7 1.1-32.2 10.4-36.8 15.5-5.6-5.7-16.7-13.5-29.2-13.3-14.5.3-25.1 6.4-30.4 11.5-3.2-5.3-10.5-11.2-19.1-12.4-7.8-1.1-16.6 3.4-17.1 5.3 12-52 66.7-99.7 132.9-101.2h6.6z"/>
      <path fill='#f1b70f' d="M527.5 358.5v10.3c0 3.4-.2 15.6-14.3 15.6-14.1 0-14.8-13.4-14.8-17.2V340.4h3.6c.8 0 2.5.4 2.5 3.6v25.4c0 4.2 2.2 8.7 8.7 8.7 6.5 0 8.4-4.1 8.4-8.5v-6.4c0-1 1.3-4.7 5.9-4.7z"/>
      <path fill='#bebba1' d="M498.5 246.7v93.7h-3.6v-93.6c1.2-.1 2.4-.1 3.6-.1zM498.5 136.5v15.7h-3.2c0-.6 0-15.7 3.2-15.7z"/>
      <path fill='#fff350' d="M494.9 246.8c-17.6 1.1-32.2 10.4-36.8 15.5-.9-66.1 26.1-106 38.3-110h2.1v94.5c-1.2-.1-2.4-.1-3.6 0zM486.7 152.7c-4.8.5-82.1 8.6-107.2 95.4-7.8-1.1-16.6 3.4-17.1 5.3 11.4-49.7 62-95.5 124.3-100.7z"/>
      <path fill='#fff350' d="M495.3 152.2c0 .1 0 .1 0 0l-.1.1s-52.6 13.7-66.3 96.6c-14.5.3-25.1 6.4-30.4 11.5 11.7-90.7 87.9-107.2 92.2-108.1 1.5 0 3 0 4.6-.1z"/>
      <path fill='#f1b70f' d="M510.5 152.7c7.4.7 82.3 10.2 106.9 95.4-6.9.9-15.9 7.1-19.1 12.4-11.9-92.6-91.1-107.9-92.4-108.1l4.1.3h.5z"/>
      <path fill='#f1b70f' d="M501.7 152.3S554.4 166 568 249c-11.6.6-23.6 7.6-29.2 13.3.9-66.1-26.1-106.1-38.3-110 .4-.1.8-.1 1.2 0z"/>
      <path fill='#e39f15' d="M598.4 260.5c-5.3-5.1-15.9-12.3-30.4-11.5-13.6-83-66.3-96.7-66.3-96.7 1.4 0 2.9.1 4.3.2 1.2.1 80.4 15.4 92.4 108z"/>
      <path fill='#e39f15' d="M634.5 253.2c-.7-1.7-8.5-6.3-17-5.1-24.6-85.2-99.5-94.6-106.9-95.4 62 5.3 112.4 51 123.9 100.5z"/>
      <path fill='#ffdd0' d="M502 246.8c-1.2-.1-2.4-.1-3.6-.1v-94.5h2.1c12.2 3.9 39.2 43.9 38.3 110-4.6-5-19.1-14.3-36.8-15.4z"/>
      <path fill='#9ccce3' d="M509.9 98.7c0 .5-.6.9-1.4.9-.8 0-1.4-.4-1.4-.9V88.3c0-.5.6-.9 1.4-.9.8 0 1.4.4 1.4.9v10.4zM509.9 118.7c0 .5-.6.9-1.4.9-.8 0-1.4-.4-1.4-.9v-10.4c0-.5.6-.9 1.4-.9.8 0 1.4.4 1.4.9v10.4zM509.9 139c0 .5-.6.9-1.4.9-.8 0-1.4-.4-1.4-.9v-10.4c0-.5.6-.9 1.4-.9.8 0 1.4.4 1.4.9V139zM509.9 55.7c0 .5-.6.9-1.4.9-.8 0-1.4-.4-1.4-.9V45.3c0-.5.6-.9 1.4-.9.8 0 1.4.4 1.4.9v10.4zM509.9 76.1c0 .5-.6.9-1.4.9-.8 0-1.4-.4-1.4-.9V65.7c0-.5.6-.9 1.4-.9.8 0 1.4.4 1.4.9v10.4zM459.5 65.3c0 .5-.6.9-1.4.9-.8 0-1.4-.4-1.4-.9V54.9c0-.5.6-.9 1.4-.9.8 0 1.4.4 1.4.9v10.4zM459.5 45.3c0 .5-.6.9-1.4.9-.8 0-1.4-.4-1.4-.9V34.9c0-.5.6-.9 1.4-.9.8 0 1.4.4 1.4.9v10.4zM459.5 87.9c0 .5-.6.9-1.4.9-.8 0-1.4-.4-1.4-.9V77.5c0-.5.6-.9 1.4-.9.8 0 1.4.4 1.4.9v10.4zM459.5 110.5c0 .5-.6.9-1.4.9-.8 0-1.4-.4-1.4-.9v-10.4c0-.5.6-.9 1.4-.9.8 0 1.4.4 1.4.9v10.4zM459.5 133.1c0 .5-.6.9-1.4.9-.8 0-1.4-.4-1.4-.9v-10.4c0-.5.6-.9 1.4-.9.8 0 1.4.4 1.4.9v10.4zM459.5 155.7c0 .5-.6.9-1.4.9-.8 0-1.4-.4-1.4-.9v-10.4c0-.5.6-.9 1.4-.9.8 0 1.4.4 1.4.9v10.4zM563.7 73.1c0 .5-.6.9-1.4.9-.8 0-1.4-.4-1.4-.9V62.7c0-.5.6-.9 1.4-.9.8 0 1.4.4 1.4.9v10.4zM563.7 95.7c0 .5-.6.9-1.4.9-.8 0-1.4-.4-1.4-.9V85.3c0-.5.6-.9 1.4-.9.8 0 1.4.4 1.4.9v10.4zM563.7 118.3c0 .5-.6.9-1.4.9-.8 0-1.4-.4-1.4-.9v-10.4c0-.5.6-.9 1.4-.9.8 0 1.4.4 1.4.9v10.4zM563.7 140.9c0 .5-.6.9-1.4.9-.8 0-1.4-.4-1.4-.9v-10.4c0-.5.6-.9 1.4-.9.8 0 1.4.4 1.4.9v10.4zM563.7 163.5c0 .5-.6.9-1.4.9-.8 0-1.4-.4-1.4-.9v-10.4c0-.5.6-.9 1.4-.9.8 0 1.4.4 1.4.9v10.4zM563.7 50.5c0 .5-.6.9-1.4.9-.8 0-1.4-.4-1.4-.9V40.1c0-.5.6-.9 1.4-.9.8 0 1.4.4 1.4.9v10.4zM418.7 88.7c0 .5-.6.9-1.4.9-.8 0-1.4-.4-1.4-.9V78.3c0-.5.6-.9 1.4-.9.8 0 1.4.4 1.4.9v10.4zM418.7 110.1c0 .5-.6.9-1.4.9-.8 0-1.4-.4-1.4-.9V99.7c0-.5.6-.9 1.4-.9.8 0 1.4.4 1.4.9v10.4zM418.7 131.5c0 .5-.6.9-1.4.9-.8 0-1.4-.4-1.4-.9v-10.4c0-.5.6-.9 1.4-.9.8 0 1.4.4 1.4.9v10.4zM418.7 152.9c0 .5-.6.9-1.4.9-.8 0-1.4-.4-1.4-.9v-10.4c0-.5.6-.9 1.4-.9.8 0 1.4.4 1.4.9v10.4zM418.7 174.3c0 .5-.6.9-1.4.9-.8 0-1.4-.4-1.4-.9v-10.4c0-.5.6-.9 1.4-.9.8 0 1.4.4 1.4.9v10.4zM418.7 67.3c0 .5-.6.9-1.4.9-.8 0-1.4-.4-1.4-.9V56.9c0-.5.6-.9 1.4-.9.8 0 1.4.4 1.4.9v10.4zM418.7 45.9c0 .5-.6.9-1.4.9-.8 0-1.4-.4-1.4-.9V35.5c0-.5.6-.9 1.4-.9.8 0 1.4.4 1.4.9v10.4zM375 50.8c0 .5-.6.9-1.4.9-.8 0-1.4-.4-1.4-.9V40.4c0-.5.6-.9 1.4-.9.8 0 1.4.4 1.4.9v10.4zM375 92.8c0 .5-.6.9-1.4.9-.8 0-1.4-.4-1.4-.9V82.4c0-.5.6-.9 1.4-.9.8 0 1.4.4 1.4.9v10.4zM375 113.8c0 .5-.6.9-1.4.9-.8 0-1.4-.4-1.4-.9v-10.4c0-.5.6-.9 1.4-.9.8 0 1.4.4 1.4.9v10.4zM375 134.8c0 .5-.6.9-1.4.9-.8 0-1.4-.4-1.4-.9v-10.4c0-.5.6-.9 1.4-.9.8 0 1.4.4 1.4.9v10.4zM375 155.8c0 .5-.6.9-1.4.9-.8 0-1.4-.4-1.4-.9v-10.4c0-.5.6-.9 1.4-.9.8 0 1.4.4 1.4.9v10.4zM375 176.8c0 .5-.6.9-1.4.9-.8 0-1.4-.4-1.4-.9v-10.4c0-.5.6-.9 1.4-.9.8 0 1.4.4 1.4.9v10.4zM375 197.8c0 .5-.6.9-1.4.9-.8 0-1.4-.4-1.4-.9v-10.4c0-.5.6-.9 1.4-.9.8 0 1.4.4 1.4.9v10.4zM375 218.8c0 .5-.6.9-1.4.9-.8 0-1.4-.4-1.4-.9v-10.4c0-.5.6-.9 1.4-.9.8 0 1.4.4 1.4.9v10.4zM375 71.8c0 .5-.6.9-1.4.9-.8 0-1.4-.4-1.4-.9V61.4c0-.5.6-.9 1.4-.9.8 0 1.4.4 1.4.9v10.4zM599.7 63.5c0 .5-.6.9-1.4.9-.8 0-1.4-.4-1.4-.9V53.2c0-.5.6-.9 1.4-.9.8 0 1.4.4 1.4.9v10.3zM599.7 40.5c0 .5-.6.9-1.4.9-.8 0-1.4-.4-1.4-.9V30.1c0-.5.6-.9 1.4-.9.8 0 1.4.4 1.4.9v10.4zM599.7 84.6c0 .5-.6.9-1.4.9-.8 0-1.4-.4-1.4-.9V74.2c0-.5.6-.9 1.4-.9.8 0 1.4.4 1.4.9v10.4zM599.7 105.6c0 .5-.6.9-1.4.9-.8 0-1.4-.4-1.4-.9V95.2c0-.5.6-.9 1.4-.9.8 0 1.4.4 1.4.9v10.4zM599.7 126.6c0 .5-.6.9-1.4.9-.8 0-1.4-.4-1.4-.9v-10.4c0-.5.6-.9 1.4-.9.8 0 1.4.4 1.4.9v10.4zM599.7 147.6c0 .5-.6.9-1.4.9-.8 0-1.4-.4-1.4-.9v-10.4c0-.5.6-.9 1.4-.9.8 0 1.4.4 1.4.9v10.4zM599.7 168.6c0 .5-.6.9-1.4.9-.8 0-1.4-.4-1.4-.9v-10.4c0-.5.6-.9 1.4-.9.8 0 1.4.4 1.4.9v10.4zM599.7 189.6c0 .5-.6.9-1.4.9-.8 0-1.4-.4-1.4-.9v-10.4c0-.5.6-.9 1.4-.9.8 0 1.4.4 1.4.9v10.4zM634.5 57.8c0 .5-.6.9-1.4.9-.8 0-1.4-.4-1.4-.9V47.4c0-.5.6-.9 1.4-.9.8 0 1.4.4 1.4.9v10.4zM634.5 37.8c0 .5-.6.9-1.4.9-.8 0-1.4-.4-1.4-.9V27.4c0-.5.6-.9 1.4-.9.8 0 1.4.4 1.4.9v10.4zM634.5 80c0 .5-.6.9-1.4.9-.8 0-1.4-.4-1.4-.9V69.6c0-.5.6-.9 1.4-.9.8 0 1.4.4 1.4.9V80zM634.5 102.2c0 .5-.6.9-1.4.9-.8 0-1.4-.4-1.4-.9V91.9c0-.5.6-.9 1.4-.9.8 0 1.4.4 1.4.9v10.3zM634.5 124.5c0 .5-.6.9-1.4.9-.8 0-1.4-.4-1.4-.9v-10.4c0-.5.6-.9 1.4-.9.8 0 1.4.4 1.4.9v10.4zM634.5 146.7c0 .5-.6.9-1.4.9-.8 0-1.4-.4-1.4-.9v-10.4c0-.5.6-.9 1.4-.9.8 0 1.4.4 1.4.9v10.4zM634.5 168.9c0 .5-.6.9-1.4.9-.8 0-1.4-.4-1.4-.9v-10.4c0-.5.6-.9 1.4-.9.8 0 1.4.4 1.4.9v10.4zM634.5 191.1c0 .5-.6.9-1.4.9-.8 0-1.4-.4-1.4-.9v-10.4c0-.5.6-.9 1.4-.9.8 0 1.4.4 1.4.9v10.4zM509.9 34.7c0 .5-.6.9-1.4.9-.8 0-1.4-.4-1.4-.9V24.3c0-.5.6-.9 1.4-.9.8 0 1.4.4 1.4.9v10.4zM507.1-31.2v2.9c0 .5.6.9 1.4.9s1.4-.4 1.4-.9v-2.9h-2.8zM509.9-8.3c0 .5-.6.9-1.4.9-.8 0-1.4-.4-1.4-.9v-10.4c0-.5.6-.9 1.4-.9.8 0 1.4.4 1.4.9v10.4zM509.9 12c0 .5-.6.9-1.4.9-.8 0-1.4-.4-1.4-.9V1.6c0-.5.6-.9 1.4-.9.8 0 1.4.4 1.4.9V12zM459.5 1.3c0 .5-.6.9-1.4.9-.8 0-1.4-.4-1.4-.9V-9.1c0-.5.6-.9 1.4-.9.8 0 1.4.4 1.4.9V1.3zM459.5 23.9c0 .5-.6.9-1.4.9-.8 0-1.4-.4-1.4-.9V13.5c0-.5.6-.9 1.4-.9.8 0 1.4.4 1.4.9v10.4zM456.7-31.2v9.8c0 .5.6.9 1.4.9s1.4-.4 1.4-.9v-9.8h-2.8zM563.7 9.1c0 .5-.6.9-1.4.9-.8 0-1.4-.4-1.4-.9V-1.3c0-.5.6-.9 1.4-.9.8 0 1.4.4 1.4.9V9.1zM563.7 29.7c0 .5-.6.9-1.4.9-.8 0-1.4-.4-1.4-.9V19.3c0-.5.6-.9 1.4-.9.8 0 1.4.4 1.4.9v10.4zM563.7-13.5c0 .5-.6.9-1.4.9-.8 0-1.4-.4-1.4-.9v-10.4c0-.5.6-.9 1.4-.9.8 0 1.4.4 1.4.9v10.4zM418.7 24.6c0 .5-.6.9-1.4.9-.8 0-1.4-.4-1.4-.9V14.2c0-.5.6-.9 1.4-.9.8 0 1.4.4 1.4.9v10.4zM418.7 3.2c0 .5-.6.9-1.4.9-.8 0-1.4-.4-1.4-.9V-7.2c0-.5.6-.9 1.4-.9.8 0 1.4.4 1.4.9V3.2zM418.7-18.2c0 .5-.6.9-1.4.9-.8 0-1.4-.4-1.4-.9v-10.4c0-.5.6-.9 1.4-.9.8 0 1.4.4 1.4.9v10.4zM375-13.3c0 .5-.6.9-1.4.9-.8 0-1.4-.4-1.4-.9v-10.4c0-.5.6-.9 1.4-.9.8 0 1.4.4 1.4.9v10.4zM375 28.7c0 .5-.6.9-1.4.9-.8 0-1.4-.4-1.4-.9V18.3c0-.5.6-.9 1.4-.9.8 0 1.4.4 1.4.9v10.4zM375 7.7c0 .5-.6.9-1.4.9-.8 0-1.4-.4-1.4-.9V-2.7c0-.5.6-.9 1.4-.9.8 0 1.4.4 1.4.9V7.7zM599.7-.5c0 .5-.6.9-1.4.9-.8 0-1.4-.4-1.4-.9v-10.4c0-.5.6-.9 1.4-.9.8 0 1.4.4 1.4.9V-.5zM599.7 20.5c0 .5-.6.9-1.4.9-.8 0-1.4-.4-1.4-.9V10.1c0-.5.6-.9 1.4-.9.8 0 1.4.4 1.4.9v10.4zM597-31.2v9.7c0 .5.6.9 1.4.9.8 0 1.4-.4 1.4-.9v-9.7H597zM634.5-6.3c0 .5-.6.9-1.4.9-.8 0-1.4-.4-1.4-.9v-10.4c0-.5.6-.9 1.4-.9.8 0 1.4.4 1.4.9v10.4zM634.5 16c0 .5-.6.9-1.4.9-.8 0-1.4-.4-1.4-.9V5.6c0-.5.6-.9 1.4-.9.8 0 1.4.4 1.4.9V16zM631.8-31.2v2.7c0 .5.6.9 1.4.9s1.4-.4 1.4-.9v-2.7h-2.8zM634.5 213.3c0 .5-.6.9-1.4.9-.8 0-1.4-.4-1.4-.9V203c0-.5.6-.9 1.4-.9.8 0 1.4.4 1.4.9v10.3zM634.5 235.6c0 .5-.6.9-1.4.9-.8 0-1.4-.4-1.4-.9v-10.4c0-.5.6-.9 1.4-.9.8 0 1.4.4 1.4.9v10.4zM646.2 244.4c-.4-.3-.3-1.1.2-1.7.5-.6 1.2-.8 1.6-.4l8 6.7c.4.3.3 1.1-.2 1.7-.5.6-1.2.8-1.6.4l-8-6.7zM413.9 174.4c.4.3.4 1 0 1.7-.4.6-1.1.9-1.5.6l-8.6-5.7c-.4-.3-.4-1 0-1.7.4-.6 1.1-.9 1.5-.6l8.6 5.7zM510.1 151.3c-.4.4-1.1.2-1.6-.3s-.7-1.3-.3-1.6l4.8-4.8c.4-.4 1.1-.2 1.6.3s.7 1.3.3 1.6l-4.8 4.8zM521 142.5c-.5.2-1.1-.2-1.4-.9-.3-.7-.1-1.4.4-1.6l6.3-2.4c.5-.2 1.1.2 1.4.9.3.7.1 1.4-.4 1.6l-6.3 2.4zM566 166c-.3.4-1.1.3-1.7-.1-.6-.5-.8-1.2-.5-1.6l4.3-5.2c.3-.4 1.1-.3 1.7.1.6.5.8 1.2.5 1.6L566 166z"/>
      <path fill='#9ccce3' d="M509.9 150.6c0 .5-.6.9-1.4.9-.8 0-1.4-.4-1.4-.9v-4c0-.5.6-.9 1.4-.9.8 0 1.4.4 1.4.9v4zM534.1 137.5s4.5-3.7 10.7-2.9c5.2.7 3.9 5.3 1.7 5.7-5.2 1-6.1-3.6-12.4-2.8zM632.5 237.2c-.5-.2-.6-1-.2-1.6.3-.7 1-1 1.5-.8l6.1 3c.5.2.6 1 .2 1.6-.3.7-1 1-1.5.8l-6.1-3zM661.9 256.2s5.7 1.4 8.6 6.9c2.5 4.6-2 6.2-3.6 4.7-3.8-3.6-.6-7.1-5-11.6zM572.9 155.9s1.2-5.1 5.9-7.1c4-1.6 5.5 2.8 4.2 4.1-3.1 3.1-6.2-.4-10.1 3zM399.7 166.6s-2.7-3.7-7.2-3.5c-3.7.2-3.3 4.3-1.9 4.9 3.6 1.3 4.8-2.7 9.1-1.4z"/>
</svg>