<svg xmlns="http://www.w3.org/2000/svg" viewBox="0 0 600 600"><title>introCode</title><rect width="600" height="600" style="fill:#f1b70e"/><path d="M592,411.1V173.9a9.9,9.9,0,0,0-9.9-9.9H215.9a9.9,9.9,0,0,0-9.9,9.9V411.1a9.8,9.8,0,0,0,.8,3.9H591.2A9.8,9.8,0,0,0,592,411.1Z" transform="translate(-102.1)" style="fill:#21212d"/><circle cx="298.3" cy="172.4" r="4" style="fill:#fff571"/><circle cx="298.3" cy="172.4" r="2.8" style="fill:#21212d"/><path d="M609.7,430H190.3c-15.5,0-22.5-4-22.5-4H632.2S625.2,430,609.7,430Z" transform="translate(-102.1)" style="fill:#2e2d3a"/><rect x="63.9" y="415" width="469" height="11" rx="2.1" ry="2.1" style="fill:#393947"/><path d="M358.5,420h82.3a1.1,1.1,0,0,0,1.2-1.3V415H357v3.7A1.4,1.4,0,0,0,358.5,420Z" transform="translate(-102.1)" style="fill:#2e2d3a"/><rect x="119.9" y="181" width="355" height="223" style="fill:#f65"/><rect x="131.9" y="191" width="331" height="213" style="fill:#393947"/><rect x="131.9" y="191" width="331" height="7" style="fill:#21212d"/><rect x="183.9" y="198" width="279" height="8" style="fill:#2e2d3a"/><rect x="183.9" y="398" width="279" height="6" style="fill:#2e2d3a"/><rect x="131.9" y="198" width="53" height="206" style="fill:#2e2d3a"/><rect x="184.9" y="284" width="278" height="9" style="fill:#2e2d3a"/><rect x="131.9" y="228" width="53" height="8" style="fill:#393947"/><rect x="192.9" y="210" width="3" height="5" style="fill:#5f6882"/><rect x="191.9" y="220" width="4" height="5" style="fill:#5f6882"/><rect x="191.9" y="229" width="4" height="5" style="fill:#5f6882"/><rect x="191.9" y="239" width="4" height="5" style="fill:#5f6882"/><rect x="191.9" y="248" width="4" height="5" style="fill:#5f6882"/><rect x="191.9" y="258" width="4" height="5" style="fill:#5f6882"/><rect x="191.9" y="267" width="4" height="6" style="fill:#5f6882"/><rect x="191.9" y="277" width="4" height="5" style="fill:#5f6882"/><rect x="191.9" y="286" width="4" height="5" style="fill:#5f6882"/><rect x="189.9" y="296" width="6" height="5" style="fill:#5f6882"/><rect x="189.9" y="305" width="6" height="6" style="fill:#5f6882"/><rect x="189.9" y="315" width="6" height="5" style="fill:#5f6882"/><rect x="159.9" y="248" width="6" height="5" style="fill:#5f6882"/><rect x="159.9" y="258" width="6" height="5" style="fill:#5f6882"/><rect x="159.9" y="267" width="6" height="6" style="fill:#5f6882"/><rect x="159.9" y="277" width="6" height="6" style="fill:#5f6882"/><rect x="159.9" y="239" width="6" height="5" style="fill:#5f6882"/><rect x="153.9" y="229" width="6" height="6" style="fill:#5f6882"/><rect x="148.9" y="286" width="6" height="5" style="fill:#5f6882"/><rect x="146.9" y="220" width="7" height="5" style="fill:#5f6882"/><rect x="139.9" y="210" width="7" height="5" style="fill:#5f6882"/><rect x="189.9" y="324" width="6" height="6" style="fill:#5f6882"/><rect x="140.9" y="295" width="6" height="6" style="fill:#5f6882"/><rect x="140.9" y="305" width="6" height="5" style="fill:#5f6882"/><rect x="140.9" y="314" width="6" height="6" style="fill:#5f6882"/><rect x="189.9" y="334" width="6" height="5" style="fill:#5f6882"/><rect x="189.9" y="343" width="6" height="6" style="fill:#5f6882"/><rect x="189.9" y="353" width="6" height="5" style="fill:#5f6882"/><rect x="189.9" y="362" width="6" height="6" style="fill:#5f6882"/><rect x="189.9" y="372" width="6" height="5" style="fill:#5f6882"/><rect x="189.9" y="381" width="6" height="6" style="fill:#5f6882"/><rect x="189.9" y="391" width="6" height="5" style="fill:#5f6882"/><rect x="204.9" y="211" width="48" height="4" rx="1.4" ry="1.4" style="fill:#fff"/><rect x="204.9" y="220" width="30" height="4" rx="1.4" ry="1.4" style="fill:#fff"/><rect x="246.9" y="220" width="93" height="4" rx="1.4" ry="1.4" style="fill:#ff8989"/><rect x="347.9" y="220" width="30" height="4" rx="1.4" ry="1.4" style="fill:#fff"/><rect x="397.9" y="220" width="15" height="4" rx="1.4" ry="1.4" style="fill:#11f4c1"/><rect x="291.9" y="287" width="11" height="4" rx="1.4" ry="1.4" style="fill:#00c3ff"/><rect x="358.9" y="296" width="12" height="4" rx="1.4" ry="1.4" style="fill:#00c3ff"/><rect x="386.9" y="306" width="11" height="4" rx="1.4" ry="1.4" style="fill:#00c3ff"/><rect x="306.9" y="315" width="13" height="4" rx="1.4" ry="1.4" style="fill:#00c3ff"/><rect x="356.9" y="344" width="11" height="4" rx="1.4" ry="1.4" style="fill:#00c3ff"/><rect x="343.9" y="372" width="11" height="4" rx="1.4" ry="1.4" style="fill:#00c3ff"/><rect x="217.9" y="230" width="32" height="4" rx="1.4" ry="1.4" style="fill:#fff"/><rect x="217.9" y="268" width="19" height="4" rx="1.4" ry="1.4" style="fill:#fff"/><rect x="217.9" y="277" width="35" height="4" rx="1.4" ry="1.4" style="fill:#fff"/><rect x="260.9" y="277" width="80" height="4" rx="1.4" ry="1.4" style="fill:#fff"/><rect x="232.9" y="287" width="54" height="4" rx="1.4" ry="1.4" style="fill:#fff"/><rect x="246.9" y="296" width="30" height="4" rx="1.4" ry="1.4" style="fill:#fff"/><rect x="282.9" y="296" width="33" height="4" rx="1.4" ry="1.4" style="fill:#ff8989"/><rect x="260.9" y="306" width="32" height="4" rx="1.4" ry="1.4" style="fill:#bd72ff"/><rect x="296.9" y="306" width="47" height="4" rx="1.4" ry="1.4" style="fill:#ff8989"/><rect x="347.9" y="306" width="32" height="4" rx="1.4" ry="1.4" style="fill:#bd72ff"/><rect x="260.9" y="315" width="42" height="4" rx="1.4" ry="1.4" style="fill:#fff"/><rect x="324.9" y="315" width="88" height="4" rx="1.4" ry="1.4" style="fill:#fff"/><rect x="324.9" y="296" width="27" height="4" rx="1.4" ry="1.4" style="fill:#fff"/><rect x="246.9" y="325" width="30" height="4" rx="1.4" ry="1.4" style="fill:#fff"/><rect x="246.9" y="353" width="25" height="4" rx="1.4" ry="1.4" style="fill:#fff"/><rect x="276.9" y="353" width="137" height="4" rx="1.4" ry="1.4" style="fill:#fff"/><rect x="246.9" y="382" width="33" height="4" rx="1.4" ry="1.4" style="fill:#fff"/><rect x="286.9" y="382" width="44" height="4" rx="1.4" ry="1.4" style="fill:#ff8989"/><rect x="336.9" y="382" width="23" height="4" rx="1.4" ry="1.4" style="fill:#fff571"/><rect x="246.9" y="391" width="86" height="4" rx="1.4" ry="1.4" style="fill:#fff"/><rect x="351.9" y="391" width="61" height="4" rx="1.4" ry="1.4" style="fill:#fff"/><rect x="232.9" y="334" width="21" height="4" rx="1.4" ry="1.4" style="fill:#fff"/><rect x="232.9" y="363" width="21" height="4" rx="1.4" ry="1.4" style="fill:#fff"/><rect x="232.9" y="372" width="21" height="4" rx="1.4" ry="1.4" style="fill:#fff"/><rect x="262.9" y="372" width="39" height="4" rx="1.4" ry="1.4" style="fill:#ff8989"/><rect x="305.9" y="372" width="30" height="4" rx="1.4" ry="1.4" style="fill:#11f4c1"/><rect x="232.9" y="344" width="38" height="4" rx="1.4" ry="1.4" style="fill:#fff"/><rect x="276.9" y="344" width="39" height="4" rx="1.4" ry="1.4" style="fill:#ff8989"/><rect x="319.9" y="344" width="32" height="4" rx="1.4" ry="1.4" style="fill:#bd72ff"/><rect x="232.9" y="239" width="39" height="4" rx="1.4" ry="1.4" style="fill:#fff"/><rect x="279.9" y="239" width="21" height="4" rx="1.4" ry="1.4" style="fill:#ff8989"/><rect x="232.9" y="249" width="31" height="4" rx="1.4" ry="1.4" style="fill:#fff"/><rect x="272.9" y="249" width="80" height="4" rx="1.4" ry="1.4" style="fill:#ff8989"/><rect x="376.9" y="249" width="37" height="4" rx="1.4" ry="1.4" style="fill:#ff8989"/><rect x="360.9" y="249" width="13" height="4" rx="1.4" ry="1.4" style="fill:#fff571"/><rect x="232.9" y="258" width="83" height="4" rx="1.4" ry="1.4" style="fill:#fff"/><rect x="148.9" y="211" width="8" height="2" style="fill:#5f6882"/><rect x="155.9" y="222" width="6" height="2" style="fill:#5f6882"/><rect x="161.9" y="232" width="13" height="2" style="fill:#5f6882"/><rect x="168.9" y="240" width="6" height="2" style="fill:#5f6882"/><rect x="168.9" y="250" width="12" height="2" style="fill:#5f6882"/><rect x="168.9" y="260" width="12" height="2" style="fill:#5f6882"/><rect x="168.9" y="270" width="12" height="2" style="fill:#5f6882"/><rect x="168.9" y="279" width="12" height="3" style="fill:#5f6882"/><rect x="156.9" y="288" width="13" height="2" style="fill:#5f6882"/><rect x="149.9" y="297" width="20" height="2" style="fill:#5f6882"/><rect x="149.9" y="307" width="20" height="2" style="fill:#5f6882"/><rect x="149.9" y="317" width="20" height="2" style="fill:#5f6882"/></svg>