<svg width="548" height="411" xmlns="http://www.w3.org/2000/svg">
  <path d="M387 311c-1-2-1-6 5-18 2-5 7-13 16-21 1 3 2 6 1 9 0 19-13 27-22 30zm-73 16c-2 2-4 2-5 2-1-1 1-2 1-2l16-19a634 634 0 0010-10c0 15-15 25-22 29zm-95-45c-5 13-17 48-24 46-6-2-10-28-1-53 4-13 13-29 19-35 8-9 18-13 20-9 3 5-10 43-14 51zm-115 78c-16 17-38 24-47 18-10-5-6-31 13-49a251 251 0 0147-34h1l3-2c7 26 0 49-17 67zm367-124c-19 0-35 5-49 12-5-10-10-19-11-26-1-8-2-12-1-21 1-10 6-23 6-24s-1-5-12-5-21 2-22 5l-4 16c-2 10-22 46-34 64-3-7-7-13-7-18-1-8-2-13-1-22s6-22 6-23-1-6-12-6-20 2-22 5l-4 16a3440 3440 0 01-45 100v1l-3 6-4 5c-1 0-2-7 0-17 4-21 14-53 13-54 0 0 2-6-6-9s-10 2-11 2l-1 2s8-37-17-37c-16 0-37 18-48 33a14207 14207 0 00-55 30l-1-1c-30-33-87-56-85-100 1-16 7-58 109-109 84-42 151-30 163-5 16 37-36 104-123 114-34 4-51-9-55-14-5-5-6-5-7-4-3 1-1 6 0 9 2 6 13 18 31 24 16 6 55 8 102-10 53-20 94-77 82-124-12-49-92-64-168-38-45 16-94 42-129 74-42 39-48 73-45 87 9 51 79 84 107 108l-4 2c-14 7-67 35-80 64-15 33 2 57 13 60 36 10 73-8 93-37 19-29 17-68 8-85l-1-1a3652 3652 0 0131-18c-3 10-5 21-7 37-1 19 7 43 17 53 4 4 9 4 13 4 12 0 17-10 23-21l14-31s-8 45 13 45c9 0 17-11 20-16l1-1 1-2 21-40c14-27 27-61 27-61l6 22c2 8 7 17 11 26l-5 7-9 11c-10 13-23 27-25 32s-2 8 2 11c3 3 8 3 14 3 9-1 16-3 20-5l17-9c11-8 17-19 17-34-1-8-3-17-7-24a655 655 0 0033-56s1 8 6 22l9 22a94 94 0 00-29 38c-6 18-1 26 8 28 4 1 10-1 15-3s12-5 18-10c11-8 21-19 21-33l-5-21c13-5 31-8 53-6 48 6 57 36 55 48-2 13-12 19-15 21-3 3-4 3-4 5s2 2 5 1c4 0 25-10 26-33 1-29-27-61-77-61z" fill="#BE5F8B" fill-rule="evenodd"/>
</svg>
