<?xml version="1.0" encoding="UTF-8"?>
<svg width="444px" height="444px" viewBox="0 0 444 444" version="1.1" xmlns="http://www.w3.org/2000/svg" xmlns:xlink="http://www.w3.org/1999/xlink">
    <!-- Generator: Sketch 51.3 (57544) - http://www.bohemiancoding.com/sketch -->
    <title>icon_512x512</title>
    <desc>Created with Sketch.</desc>
    <defs>
        <linearGradient x1="0%" y1="0%" x2="0%" y2="100%" id="linearGradient-1">
            <stop stop-color="#EDEBED" offset="0%"></stop>
            <stop stop-color="#F4F3F4" offset="4.24081%"></stop>
            <stop stop-color="#DFDDDF" offset="100%"></stop>
        </linearGradient>
    </defs>
    <g id="Page-1" stroke="none" stroke-width="1" fill="none" fill-rule="evenodd">
        <g id="Artboard">
            <g id="icon_512x512">
                <path d="M20,0 C8.9543,0 0,8.96570675 0,20.0254777 L0,372.974522 C0,384.034594 8.9543,393 20,393 L424,393 C435.046,393 444,384.034594 444,372.974522 L444,20.0254777 C444,8.96570675 435.046,0 424,0 L20,0 Z" id="Shape" fill-opacity="0.01" fill="#000000"></path>
                <path d="M0,45 L0,424.002741 C0,435.047227 8.9543,444 20,444 L424,444 C435.046,444 444,435.047227 444,424.002741 L444,45 L0,45 Z" id="Shape" fill="#202A2F"></path>
                <path d="M1,423.473428 L1,44 L444,44 L444,423.473428 C444,434.258104 435.27,443 424.5,443 L20.5,443 C9.7304,443 1,434.258104 1,423.473428 Z" id="Shape" stroke="#000000"></path>
                <path d="M20,0 C8.9543,0 0,8.9543 0,20 L0,45 L444,45 L444,20 C444,8.9543 435.046,0 424,0 L20,0 Z" id="Shape" fill="url(#linearGradient-1)"></path>
                <path d="M94.8560541,110.741 L85.9731352,120.916 C78.7749595,115.6 73.2615271,112.715 63.9190054,112.715 C55.4955892,112.715 50.2882919,116.36 50.2882919,122.435 C50.2882919,136.103 97,133.825 97,161.617 C97,174.526 87.7119023,184.245 71.0185376,186.675 L71.0185376,209 L58.0127998,209 L58.0127998,186.979 C47.4452376,185.916 36.5045108,181.208 29,174.981 L36.9640135,162.984 C45.6937649,168.755 54.4235163,172.855 64.9910784,172.855 C74.7932029,172.855 79.8474327,168.907 79.8474327,162.832 C79.8474327,147.189 33.2882919,149.923 33.2882919,122.738 C33.2882919,109.678 42.8506106,100.869 58.0127998,98.895 L58.0127998,79 L71.0185376,79 L71.0185376,98.743 C81.7392673,99.958 88.5762837,104.514 94.8560541,110.741 Z" id="Shape" fill="#0EE827"></path>
                <polygon id="Shape" fill="#0F741E" points="131 80 131 210 197 210 197 80"></polygon>
            </g>
        </g>
    </g>
</svg>